<svg width="406" height="200" viewBox="0 0 356 150" fill="none" xmlns="http://www.w3.org/2000/svg">
<path fill-rule="evenodd" clip-rule="evenodd" d="M311.403 114.299C339.17 100.437 352 84.3516 352 68.4333C352 34.5491 275.289 0.307678 164.452 0.307678C53.6157 0.307678 5.97285 14.6499 0 76.0029C0 109.887 46.4483 149.308 157.285 149.308C221.836 143.471 268.864 132.655 300.514 119.293L320.881 129.153L311.403 114.299Z" fill="black"/>
<path d="M49.9531 37.8125C50.849 37.8958 51.6406 37.9583 52.3281 38C53.0156 38.0417 53.5885 38.0833 54.0469 38.125C54.5885 38.1667 55.0469 38.1979 55.4219 38.2188C55.7969 38.2396 56.2552 38.25 56.7969 38.25C57.2552 38.2708 57.8281 38.2812 58.5156 38.2812C59.2031 38.2812 60.0156 38.2812 60.9531 38.2812C60.349 38.5729 59.8802 38.8438 59.5469 39.0938C59.2344 39.3438 58.9948 39.5625 58.8281 39.75C58.6198 39.9792 58.4948 40.1875 58.4531 40.375C58.4323 40.5417 58.474 40.8229 58.5781 41.2188C58.6823 41.6146 58.8281 42.0625 59.0156 42.5625C59.2031 43.0417 59.4323 43.5521 59.7031 44.0938C59.974 44.6354 60.2552 45.125 60.5469 45.5625C60.8594 45.9792 61.1719 46.3229 61.4844 46.5938C61.7969 46.8646 62.099 46.9896 62.3906 46.9688C62.6823 46.9479 63.0365 46.8125 63.4531 46.5625C63.8698 46.2917 64.2969 45.9583 64.7344 45.5625C65.1927 45.1667 65.6406 44.7396 66.0781 44.2812C66.5156 43.8229 66.901 43.375 67.2344 42.9375C67.5885 42.5 67.8698 42.1042 68.0781 41.75C68.3073 41.375 68.4219 41.1042 68.4219 40.9375C68.401 40.7292 68.3177 40.4896 68.1719 40.2188C68.0469 39.9896 67.8385 39.7188 67.5469 39.4062C67.2552 39.0729 66.849 38.6979 66.3281 38.2812C68.0365 38.3438 69.2865 38.375 70.0781 38.375H71.2344H72.5469C73.026 38.375 73.6615 38.375 74.4531 38.375C75.2448 38.3542 76.2344 38.3229 77.4219 38.2812C76.6094 38.8229 75.901 39.3125 75.2969 39.75C74.7135 40.1667 74.2135 40.5208 73.7969 40.8125C73.3177 41.1667 72.9219 41.4792 72.6094 41.75C72.2552 42.0417 71.7656 42.5 71.1406 43.125C70.599 43.6667 69.8802 44.3958 68.9844 45.3125C68.0885 46.2083 66.9635 47.375 65.6094 48.8125C65.4219 50.3333 65.2969 51.5625 65.2344 52.5C65.1927 53.4375 65.1719 54.1771 65.1719 54.7188C65.1719 55.3438 65.2135 55.8125 65.2969 56.125C65.401 56.375 65.5781 56.6667 65.8281 57C66.0365 57.2917 66.3281 57.6354 66.7031 58.0312C67.099 58.4271 67.6198 58.8646 68.2656 59.3438C67.5781 59.1771 66.9323 59.0521 66.3281 58.9688C65.7448 58.8854 65.224 58.8229 64.7656 58.7812C64.224 58.7188 63.7344 58.6875 63.2969 58.6875C62.8385 58.6875 62.2969 58.7083 61.6719 58.75C61.1302 58.7917 60.4844 58.8438 59.7344 58.9062C58.9844 58.9688 58.1094 59.0625 57.1094 59.1875C57.6302 58.8333 58.0573 58.4792 58.3906 58.125C58.724 57.7708 58.9844 57.4479 59.1719 57.1562C59.401 56.8229 59.5677 56.5104 59.6719 56.2188C59.7552 55.8854 59.8177 55.4062 59.8594 54.7812C59.901 54.2396 59.901 53.5208 59.8594 52.625C59.8385 51.7292 59.776 50.5938 59.6719 49.2188C58.4219 47.2188 57.401 45.6458 56.6094 44.5C55.8177 43.3333 55.2031 42.4479 54.7656 41.8438C54.2448 41.1562 53.8698 40.6979 53.6406 40.4688C53.4323 40.3021 53.151 40.0938 52.7969 39.8438C52.5052 39.6146 52.1302 39.3438 51.6719 39.0312C51.1927 38.6979 50.6198 38.2917 49.9531 37.8125ZM78.7656 46C79.3073 46 79.8698 46.1042 80.4531 46.3125C81.0365 46.5 81.599 46.75 82.1406 47.0625C82.6823 47.3542 83.1719 47.6771 83.6094 48.0312C84.0677 48.3646 84.4427 48.6875 84.7344 49C85.2552 49.5625 85.6094 50.3229 85.7969 51.2812C86.0052 52.2188 86.0469 53.1875 85.9219 54.1875C85.7969 55.1667 85.5052 56.0938 85.0469 56.9688C84.5885 57.8438 83.9531 58.4896 83.1406 58.9062C82.5573 59.1979 81.9844 59.4271 81.4219 59.5938C80.8594 59.7604 80.3177 59.8854 79.7969 59.9688C79.276 60.0521 78.7865 60.0938 78.3281 60.0938C77.8698 60.0938 77.474 60.0833 77.1406 60.0625C76.5156 60.0208 75.8594 59.8021 75.1719 59.4062C74.5052 59.0104 73.8698 58.5208 73.2656 57.9375C72.6823 57.3542 72.1823 56.7188 71.7656 56.0312C71.349 55.3229 71.099 54.6562 71.0156 54.0312C70.8906 53.1771 70.8698 52.2812 70.9531 51.3438C71.0365 50.4062 71.3385 49.5417 71.8594 48.75C72.401 47.9583 73.2135 47.3021 74.2969 46.7812C75.401 46.2604 76.8906 46 78.7656 46ZM77.7344 58.125C77.9635 58.1667 78.276 58.1146 78.6719 57.9688C79.0677 57.8021 79.4531 57.5417 79.8281 57.1875C80.224 56.8333 80.5677 56.3854 80.8594 55.8438C81.1719 55.2812 81.3594 54.6042 81.4219 53.8125C81.4844 53.0417 81.4844 52.3333 81.4219 51.6875C81.3802 51.0417 81.2865 50.4792 81.1406 50C80.9948 49.5 80.8281 49.0938 80.6406 48.7812C80.4531 48.4688 80.2552 48.25 80.0469 48.125C79.6927 47.9375 79.2656 47.7917 78.7656 47.6875C78.2656 47.5625 77.8385 47.5833 77.4844 47.75C77.3177 47.8333 77.1094 48.0104 76.8594 48.2812C76.6094 48.5521 76.3594 48.8958 76.1094 49.3125C75.8594 49.7083 75.6302 50.1667 75.4219 50.6875C75.2344 51.2083 75.099 51.75 75.0156 52.3125C74.9323 52.875 74.9115 53.4792 74.9531 54.125C75.0156 54.7708 75.151 55.3854 75.3594 55.9688C75.5677 56.5312 75.8594 57.0208 76.2344 57.4375C76.6302 57.8333 77.1302 58.0625 77.7344 58.125ZM87.5781 45.625C88.1198 45.7292 88.5885 45.8125 88.9844 45.875C89.401 45.9167 89.7552 45.9583 90.0469 46C90.3802 46.0417 90.6719 46.0729 90.9219 46.0938C91.1719 46.1146 91.4635 46.1354 91.7969 46.1562C92.3594 46.1771 93.151 46.1771 94.1719 46.1562C93.5677 46.1146 93.0885 46.2708 92.7344 46.625C92.401 46.9583 92.151 47.3438 91.9844 47.7812C91.776 48.3021 91.6615 48.9062 91.6406 49.5938C91.599 50.5104 91.6198 51.3438 91.7031 52.0938C91.8073 52.8229 91.9844 53.4479 92.2344 53.9688C92.5052 54.4688 92.8594 54.8438 93.2969 55.0938C93.7344 55.3229 94.2969 55.3854 94.9844 55.2812C95.6719 55.1771 96.1927 54.9375 96.5469 54.5625C96.9219 54.1667 97.1927 53.6875 97.3594 53.125C97.526 52.5417 97.6198 51.8854 97.6406 51.1562C97.6823 50.4271 97.7135 49.6667 97.7344 48.875C97.7344 48.0833 97.724 47.5208 97.7031 47.1875C97.7031 46.8333 97.6927 46.6042 97.6719 46.5C97.651 46.3958 97.6198 46.3542 97.5781 46.375C97.5365 46.375 97.4844 46.3229 97.4219 46.2188C97.3802 46.1354 97.3177 46.0521 97.2344 45.9688C97.1719 45.8854 97.0885 45.7917 96.9844 45.6875C96.8802 45.5625 96.7656 45.4375 96.6406 45.3125C97.1823 45.3333 97.6615 45.3542 98.0781 45.375C98.5156 45.375 98.8802 45.3854 99.1719 45.4062C99.5052 45.4271 99.7969 45.4479 100.047 45.4688C100.276 45.4896 100.578 45.5208 100.953 45.5625C101.266 45.6042 101.672 45.6458 102.172 45.6875C102.672 45.7292 103.266 45.7917 103.953 45.875C103.474 45.9792 103.089 46.1354 102.797 46.3438C102.505 46.5521 102.276 46.7604 102.109 46.9688C101.922 47.1979 101.786 47.4479 101.703 47.7188C101.641 48.0729 101.641 48.6146 101.703 49.3438C101.745 49.9896 101.849 50.875 102.016 52C102.182 53.125 102.443 54.6042 102.797 56.4375L100.328 57.9062L99.8281 53.75C99.224 54.7708 98.5781 55.5625 97.8906 56.125C97.224 56.6667 96.599 57.0625 96.0156 57.3125C95.3281 57.6042 94.6615 57.7708 94.0156 57.8125C93.1615 57.8125 92.4219 57.7604 91.7969 57.6562C91.1927 57.5312 90.6719 57.375 90.2344 57.1875C89.7969 57 89.4427 56.7917 89.1719 56.5625C88.9219 56.3125 88.7344 56.0625 88.6094 55.8125C88.3177 55.2917 88.1615 54.625 88.1406 53.8125C88.1198 52.9792 88.151 52.1562 88.2344 51.3438C88.3177 50.5104 88.4115 49.75 88.5156 49.0625C88.6198 48.375 88.651 47.9062 88.6094 47.6562C88.5677 47.4688 88.5052 47.2604 88.4219 47.0312C88.3385 46.8438 88.2344 46.6354 88.1094 46.4062C87.9844 46.1562 87.8073 45.8958 87.5781 45.625ZM104.109 45.0312C104.505 45.0521 104.859 45.0625 105.172 45.0625C105.505 45.0417 105.786 45.0208 106.016 45C106.286 44.9792 106.526 44.9583 106.734 44.9375C107.047 44.8958 107.37 44.8438 107.703 44.7812C107.995 44.7396 108.297 44.6875 108.609 44.625C108.943 44.5417 109.266 44.4479 109.578 44.3438C109.453 44.6562 109.349 44.9271 109.266 45.1562C109.182 45.3854 109.12 45.5833 109.078 45.75C109.016 45.9375 108.984 46.0938 108.984 46.2188C108.964 46.3646 108.953 46.5417 108.953 46.75C108.932 47.1042 108.932 47.6771 108.953 48.4688C110.036 47.5312 110.943 46.8021 111.672 46.2812C112.422 45.7604 113.016 45.3542 113.453 45.0625C113.974 44.7292 114.38 44.5104 114.672 44.4062C115.443 44.2812 116.12 44.4583 116.703 44.9375C116.953 45.1458 117.193 45.4271 117.422 45.7812C117.651 46.1146 117.849 46.5625 118.016 47.125C118.182 47.6875 118.307 48.3646 118.391 49.1562C118.474 49.9271 118.484 50.8542 118.422 51.9375C117.984 51.9792 117.589 52.0208 117.234 52.0625C116.901 52.1042 116.62 52.1354 116.391 52.1562C116.12 52.1979 115.87 52.2188 115.641 52.2188L114.797 52.3125C114.505 52.3542 114.141 52.3958 113.703 52.4375C113.286 52.4583 112.776 52.5 112.172 52.5625C113.047 51.8542 113.609 51.2396 113.859 50.7188C114.13 50.1771 114.245 49.7292 114.203 49.375C114.161 48.9792 113.974 48.6354 113.641 48.3438C113.245 48.1146 112.818 48.0312 112.359 48.0938C111.964 48.1354 111.505 48.3125 110.984 48.625C110.464 48.9375 109.911 49.5208 109.328 50.375C109.37 51.7083 109.411 52.8125 109.453 53.6875C109.516 54.5625 109.568 55.2708 109.609 55.8125C109.672 56.4375 109.724 56.9271 109.766 57.2812C109.828 57.5938 109.953 57.9271 110.141 58.2812C110.286 58.5729 110.495 58.8958 110.766 59.25C111.036 59.6042 111.391 59.9583 111.828 60.3125C110.911 60.2708 110.161 60.2708 109.578 60.3125C109.224 60.3333 108.911 60.3542 108.641 60.375C108.349 60.4167 108.036 60.4583 107.703 60.5C107.411 60.5417 107.068 60.5833 106.672 60.625C106.297 60.6875 105.88 60.75 105.422 60.8125C105.589 60.5833 105.724 60.3125 105.828 60C105.932 59.7083 106.016 59.4271 106.078 59.1562C106.161 58.8438 106.224 58.5208 106.266 58.1875C106.286 57.8958 106.297 57.4583 106.297 56.875C106.318 56.2917 106.307 55.6354 106.266 54.9062C106.245 54.1562 106.214 53.3854 106.172 52.5938C106.13 51.7812 106.078 51.0208 106.016 50.3125C105.953 49.6042 105.88 48.9896 105.797 48.4688C105.734 47.9271 105.661 47.5521 105.578 47.3438C105.474 47.0938 105.349 46.8438 105.203 46.5938C105.078 46.3646 104.922 46.125 104.734 45.875C104.547 45.6042 104.339 45.3229 104.109 45.0312ZM129.047 45.4375C129.714 45.3333 130.255 45.25 130.672 45.1875C131.109 45.1042 131.464 45.0417 131.734 45C132.047 44.9375 132.286 44.8854 132.453 44.8438C132.62 44.8021 132.859 44.7396 133.172 44.6562C133.443 44.5729 133.797 44.4792 134.234 44.375C134.672 44.25 135.224 44.0833 135.891 43.875C135.724 44.0833 135.589 44.2708 135.484 44.4375C135.401 44.5833 135.318 44.7083 135.234 44.8125C135.151 44.9375 135.078 45.0521 135.016 45.1562C134.953 45.2604 134.891 45.4167 134.828 45.625C134.786 45.7917 134.734 46.0312 134.672 46.3438C134.609 46.6354 134.557 47.0208 134.516 47.5C135.641 46.7917 136.672 46.2604 137.609 45.9062C138.568 45.5521 139.401 45.3021 140.109 45.1562C140.943 44.9896 141.693 44.9271 142.359 44.9688C143.193 45.0312 143.964 45.2188 144.672 45.5312C145.401 45.8229 146.057 46.1771 146.641 46.5938C147.224 47.0104 147.734 47.4688 148.172 47.9688C148.609 48.4688 148.953 48.9688 149.203 49.4688C149.37 49.8021 149.474 50.2812 149.516 50.9062C149.578 51.5312 149.516 52.1979 149.328 52.9062C149.141 53.6146 148.807 54.3125 148.328 55C147.87 55.6667 147.214 56.1979 146.359 56.5938C144.88 57.2604 143.411 57.6354 141.953 57.7188C141.328 57.7604 140.682 57.7396 140.016 57.6562C139.37 57.5729 138.714 57.3958 138.047 57.125C137.401 56.8542 136.776 56.4688 136.172 55.9688C135.568 55.4479 135.016 54.7812 134.516 53.9688C134.349 55.0312 134.224 55.9583 134.141 56.75C134.078 57.5208 134.036 58.1667 134.016 58.6875C133.995 59.2917 133.995 59.8021 134.016 60.2188C134.057 60.6354 134.141 61.0833 134.266 61.5625C134.37 61.9792 134.516 62.4583 134.703 63C134.911 63.5625 135.172 64.1458 135.484 64.75C135.359 64.7083 135.182 64.6771 134.953 64.6562C134.745 64.6562 134.526 64.6771 134.297 64.7188C134.047 64.7604 133.766 64.8021 133.453 64.8438C133.161 64.9062 132.839 64.9792 132.484 65.0625C132.193 65.125 131.849 65.1979 131.453 65.2812C131.078 65.3854 130.693 65.5 130.297 65.625C130.526 65.3542 130.703 65.0417 130.828 64.6875C130.974 64.3542 131.089 64.0417 131.172 63.75C131.255 63.3958 131.328 63.0417 131.391 62.6875C131.411 62.375 131.443 61.7812 131.484 60.9062C131.547 60.0521 131.599 59.0625 131.641 57.9375C131.682 56.7917 131.714 55.5938 131.734 54.3438C131.776 53.0938 131.797 51.9375 131.797 50.875C131.818 49.7917 131.818 48.875 131.797 48.125C131.776 47.375 131.734 46.9375 131.672 46.8125C131.589 46.6667 131.432 46.5104 131.203 46.3438C131.016 46.1979 130.745 46.0521 130.391 45.9062C130.057 45.7604 129.609 45.6042 129.047 45.4375ZM136.484 51.125C136.339 51.6042 136.307 52.0729 136.391 52.5312C136.474 52.9896 136.682 53.4167 137.016 53.8125C137.37 54.2083 137.859 54.5625 138.484 54.875C139.13 55.1667 139.932 55.3854 140.891 55.5312C141.849 55.6771 142.578 55.6562 143.078 55.4688C143.578 55.2812 143.943 54.9896 144.172 54.5938C144.422 54.1771 144.589 53.6979 144.672 53.1562C144.755 52.5938 144.859 52.0104 144.984 51.4062C145.109 50.8229 145.089 50.2292 144.922 49.625C144.755 49 144.516 48.4375 144.203 47.9375C143.911 47.4375 143.578 47.0312 143.203 46.7188C142.849 46.3854 142.536 46.2188 142.266 46.2188C141.62 46.2188 140.984 46.3854 140.359 46.7188C139.734 47.0521 139.161 47.4688 138.641 47.9688C138.12 48.4688 137.661 49.0104 137.266 49.5938C136.891 50.1562 136.63 50.6667 136.484 51.125ZM150.953 45.625C151.495 45.7292 151.964 45.8125 152.359 45.875C152.776 45.9167 153.13 45.9583 153.422 46C153.755 46.0417 154.047 46.0729 154.297 46.0938C154.547 46.1146 154.839 46.1354 155.172 46.1562C155.734 46.1771 156.526 46.1771 157.547 46.1562C156.943 46.1146 156.464 46.2708 156.109 46.625C155.776 46.9583 155.526 47.3438 155.359 47.7812C155.151 48.3021 155.036 48.9062 155.016 49.5938C154.974 50.5104 154.995 51.3438 155.078 52.0938C155.182 52.8229 155.359 53.4479 155.609 53.9688C155.88 54.4688 156.234 54.8438 156.672 55.0938C157.109 55.3229 157.672 55.3854 158.359 55.2812C159.047 55.1771 159.568 54.9375 159.922 54.5625C160.297 54.1667 160.568 53.6875 160.734 53.125C160.901 52.5417 160.995 51.8854 161.016 51.1562C161.057 50.4271 161.089 49.6667 161.109 48.875C161.109 48.0833 161.099 47.5208 161.078 47.1875C161.078 46.8333 161.068 46.6042 161.047 46.5C161.026 46.3958 160.995 46.3542 160.953 46.375C160.911 46.375 160.859 46.3229 160.797 46.2188C160.755 46.1354 160.693 46.0521 160.609 45.9688C160.547 45.8854 160.464 45.7917 160.359 45.6875C160.255 45.5625 160.141 45.4375 160.016 45.3125C160.557 45.3333 161.036 45.3542 161.453 45.375C161.891 45.375 162.255 45.3854 162.547 45.4062C162.88 45.4271 163.172 45.4479 163.422 45.4688C163.651 45.4896 163.953 45.5208 164.328 45.5625C164.641 45.6042 165.047 45.6458 165.547 45.6875C166.047 45.7292 166.641 45.7917 167.328 45.875C166.849 45.9792 166.464 46.1354 166.172 46.3438C165.88 46.5521 165.651 46.7604 165.484 46.9688C165.297 47.1979 165.161 47.4479 165.078 47.7188C165.016 48.0729 165.016 48.6146 165.078 49.3438C165.12 49.9896 165.224 50.875 165.391 52C165.557 53.125 165.818 54.6042 166.172 56.4375L163.703 57.9062L163.203 53.75C162.599 54.7708 161.953 55.5625 161.266 56.125C160.599 56.6667 159.974 57.0625 159.391 57.3125C158.703 57.6042 158.036 57.7708 157.391 57.8125C156.536 57.8125 155.797 57.7604 155.172 57.6562C154.568 57.5312 154.047 57.375 153.609 57.1875C153.172 57 152.818 56.7917 152.547 56.5625C152.297 56.3125 152.109 56.0625 151.984 55.8125C151.693 55.2917 151.536 54.625 151.516 53.8125C151.495 52.9792 151.526 52.1562 151.609 51.3438C151.693 50.5104 151.786 49.75 151.891 49.0625C151.995 48.375 152.026 47.9062 151.984 47.6562C151.943 47.4688 151.88 47.2604 151.797 47.0312C151.714 46.8438 151.609 46.6354 151.484 46.4062C151.359 46.1562 151.182 45.8958 150.953 45.625ZM167.641 45.1875C168.12 45.1458 168.526 45.1042 168.859 45.0625C169.214 45.0208 169.505 44.9792 169.734 44.9375C170.005 44.8958 170.234 44.8542 170.422 44.8125C170.609 44.7917 170.818 44.75 171.047 44.6875C171.255 44.6458 171.484 44.5938 171.734 44.5312C172.005 44.4479 172.297 44.3542 172.609 44.25L172.422 48.2188C172.88 47.4896 173.411 46.9375 174.016 46.5625C174.62 46.1667 175.193 45.875 175.734 45.6875C176.38 45.4583 177.026 45.3229 177.672 45.2812C178.339 45.3021 178.953 45.4062 179.516 45.5938C179.995 45.7604 180.474 46.0208 180.953 46.375C181.453 46.7292 181.839 47.25 182.109 47.9375C182.818 47.2083 183.516 46.6458 184.203 46.25C184.911 45.8333 185.536 45.5208 186.078 45.3125C186.724 45.0833 187.328 44.9479 187.891 44.9062C188.641 44.8854 189.328 45.0104 189.953 45.2812C190.599 45.5521 191.161 45.8958 191.641 46.3125C192.12 46.7083 192.505 47.1354 192.797 47.5938C193.089 48.0312 193.255 48.4167 193.297 48.75C193.359 49.2083 193.328 49.8021 193.203 50.5312C193.078 51.2396 192.932 51.9688 192.766 52.7188C192.599 53.4479 192.443 54.125 192.297 54.75C192.172 55.3542 192.12 55.7812 192.141 56.0312C192.203 56.2396 192.349 56.4896 192.578 56.7812C192.786 57.0312 193.089 57.3438 193.484 57.7188C193.901 58.0729 194.495 58.4896 195.266 58.9688C194.599 58.9479 194.005 58.9271 193.484 58.9062C192.984 58.8854 192.557 58.8542 192.203 58.8125C191.786 58.7708 191.422 58.7396 191.109 58.7188C190.859 58.7188 190.557 58.6979 190.203 58.6562C189.911 58.6354 189.526 58.6042 189.047 58.5625C188.589 58.5208 188.057 58.4792 187.453 58.4375C187.682 58.375 187.87 58.2604 188.016 58.0938C188.161 57.9062 188.286 57.7292 188.391 57.5625C188.495 57.3542 188.578 57.125 188.641 56.875C188.682 56.6667 188.724 56.3333 188.766 55.875C188.807 55.4167 188.839 54.8958 188.859 54.3125C188.901 53.7292 188.922 53.1146 188.922 52.4688C188.943 51.8229 188.943 51.2083 188.922 50.625C188.901 50.0417 188.859 49.5104 188.797 49.0312C188.734 48.5521 188.651 48.1875 188.547 47.9375C188.464 47.75 188.318 47.6042 188.109 47.5C187.901 47.375 187.661 47.3021 187.391 47.2812C187.12 47.2396 186.849 47.25 186.578 47.3125C186.307 47.3542 186.068 47.4375 185.859 47.5625C185.672 47.7083 185.422 47.9062 185.109 48.1562C184.839 48.3854 184.484 48.6979 184.047 49.0938C183.609 49.4896 183.057 49.9896 182.391 50.5938C182.328 51.9062 182.276 52.9688 182.234 53.7812C182.214 54.5729 182.193 55.1771 182.172 55.5938C182.151 56.0938 182.141 56.4375 182.141 56.625C182.12 56.7917 182.13 56.9479 182.172 57.0938C182.214 57.4062 182.339 57.6979 182.547 57.9688C182.297 57.9062 182.026 57.8646 181.734 57.8438C181.464 57.8229 181.214 57.8021 180.984 57.7812C180.714 57.7604 180.443 57.75 180.172 57.75C179.943 57.75 179.693 57.7604 179.422 57.7812C179.193 57.8021 178.911 57.8333 178.578 57.875C178.245 57.8958 177.88 57.9271 177.484 57.9688C177.651 57.8646 177.786 57.7396 177.891 57.5938C177.995 57.4479 178.078 57.3125 178.141 57.1875C178.224 57.0417 178.286 56.9062 178.328 56.7812C178.349 56.6562 178.391 56.3542 178.453 55.875C178.516 55.375 178.557 54.7917 178.578 54.125C178.599 53.4583 178.599 52.7604 178.578 52.0312C178.557 51.2812 178.484 50.6042 178.359 50C178.234 49.375 178.036 48.8646 177.766 48.4688C177.516 48.0729 177.182 47.8958 176.766 47.9375C176.266 47.9792 175.755 48.1042 175.234 48.3125C174.797 48.4792 174.328 48.7292 173.828 49.0625C173.328 49.3958 172.859 49.8438 172.422 50.4062C172.339 51.9688 172.286 53.2083 172.266 54.125C172.266 55.0417 172.276 55.7396 172.297 56.2188C172.318 56.7812 172.339 57.1667 172.359 57.375C172.38 57.5208 172.432 57.6667 172.516 57.8125C172.578 57.9375 172.651 58.0833 172.734 58.25C172.839 58.4167 172.953 58.5729 173.078 58.7188L168.109 58.4688C168.276 58.3854 168.422 58.2812 168.547 58.1562C168.672 58.0104 168.776 57.8646 168.859 57.7188C168.943 57.5521 169.026 57.3854 169.109 57.2188C169.172 57.0729 169.224 56.7292 169.266 56.1875C169.328 55.6458 169.38 55.0104 169.422 54.2812C169.464 53.5312 169.495 52.75 169.516 51.9375C169.557 51.1042 169.578 50.3333 169.578 49.625C169.599 48.8958 169.609 48.2812 169.609 47.7812C169.609 47.2604 169.599 46.9479 169.578 46.8438C169.516 46.6354 169.401 46.4167 169.234 46.1875C169.089 46.0208 168.891 45.8438 168.641 45.6562C168.391 45.4479 168.057 45.2917 167.641 45.1875ZM194.484 45.4375C195.151 45.3333 195.693 45.25 196.109 45.1875C196.547 45.1042 196.901 45.0417 197.172 45C197.484 44.9375 197.724 44.8854 197.891 44.8438C198.057 44.8021 198.297 44.7396 198.609 44.6562C198.88 44.5729 199.234 44.4792 199.672 44.375C200.109 44.25 200.661 44.0833 201.328 43.875C201.161 44.0833 201.026 44.2708 200.922 44.4375C200.839 44.5833 200.755 44.7083 200.672 44.8125C200.589 44.9375 200.516 45.0521 200.453 45.1562C200.391 45.2604 200.328 45.4167 200.266 45.625C200.224 45.7917 200.172 46.0312 200.109 46.3438C200.047 46.6354 199.995 47.0208 199.953 47.5C201.078 46.7917 202.109 46.2604 203.047 45.9062C204.005 45.5521 204.839 45.3021 205.547 45.1562C206.38 44.9896 207.13 44.9271 207.797 44.9688C208.63 45.0312 209.401 45.2188 210.109 45.5312C210.839 45.8229 211.495 46.1771 212.078 46.5938C212.661 47.0104 213.172 47.4688 213.609 47.9688C214.047 48.4688 214.391 48.9688 214.641 49.4688C214.807 49.8021 214.911 50.2812 214.953 50.9062C215.016 51.5312 214.953 52.1979 214.766 52.9062C214.578 53.6146 214.245 54.3125 213.766 55C213.307 55.6667 212.651 56.1979 211.797 56.5938C210.318 57.2604 208.849 57.6354 207.391 57.7188C206.766 57.7604 206.12 57.7396 205.453 57.6562C204.807 57.5729 204.151 57.3958 203.484 57.125C202.839 56.8542 202.214 56.4688 201.609 55.9688C201.005 55.4479 200.453 54.7812 199.953 53.9688C199.786 55.0312 199.661 55.9583 199.578 56.75C199.516 57.5208 199.474 58.1667 199.453 58.6875C199.432 59.2917 199.432 59.8021 199.453 60.2188C199.495 60.6354 199.578 61.0833 199.703 61.5625C199.807 61.9792 199.953 62.4583 200.141 63C200.349 63.5625 200.609 64.1458 200.922 64.75C200.797 64.7083 200.62 64.6771 200.391 64.6562C200.182 64.6562 199.964 64.6771 199.734 64.7188C199.484 64.7604 199.203 64.8021 198.891 64.8438C198.599 64.9062 198.276 64.9792 197.922 65.0625C197.63 65.125 197.286 65.1979 196.891 65.2812C196.516 65.3854 196.13 65.5 195.734 65.625C195.964 65.3542 196.141 65.0417 196.266 64.6875C196.411 64.3542 196.526 64.0417 196.609 63.75C196.693 63.3958 196.766 63.0417 196.828 62.6875C196.849 62.375 196.88 61.7812 196.922 60.9062C196.984 60.0521 197.036 59.0625 197.078 57.9375C197.12 56.7917 197.151 55.5938 197.172 54.3438C197.214 53.0938 197.234 51.9375 197.234 50.875C197.255 49.7917 197.255 48.875 197.234 48.125C197.214 47.375 197.172 46.9375 197.109 46.8125C197.026 46.6667 196.87 46.5104 196.641 46.3438C196.453 46.1979 196.182 46.0521 195.828 45.9062C195.495 45.7604 195.047 45.6042 194.484 45.4375ZM201.922 51.125C201.776 51.6042 201.745 52.0729 201.828 52.5312C201.911 52.9896 202.12 53.4167 202.453 53.8125C202.807 54.2083 203.297 54.5625 203.922 54.875C204.568 55.1667 205.37 55.3854 206.328 55.5312C207.286 55.6771 208.016 55.6562 208.516 55.4688C209.016 55.2812 209.38 54.9896 209.609 54.5938C209.859 54.1771 210.026 53.6979 210.109 53.1562C210.193 52.5938 210.297 52.0104 210.422 51.4062C210.547 50.8229 210.526 50.2292 210.359 49.625C210.193 49 209.953 48.4375 209.641 47.9375C209.349 47.4375 209.016 47.0312 208.641 46.7188C208.286 46.3854 207.974 46.2188 207.703 46.2188C207.057 46.2188 206.422 46.3854 205.797 46.7188C205.172 47.0521 204.599 47.4688 204.078 47.9688C203.557 48.4688 203.099 49.0104 202.703 49.5938C202.328 50.1562 202.068 50.6667 201.922 51.125ZM224.359 54.9688C224.943 54.9688 225.484 54.9062 225.984 54.7812C226.401 54.6771 226.797 54.5104 227.172 54.2812C227.568 54.0312 227.828 53.6667 227.953 53.1875C228.37 53.2708 228.724 53.3438 229.016 53.4062C229.307 53.4479 229.557 53.4896 229.766 53.5312C229.995 53.5938 230.193 53.6354 230.359 53.6562C230.526 53.6979 230.724 53.7396 230.953 53.7812C231.161 53.8229 231.411 53.875 231.703 53.9375C232.016 53.9792 232.38 54.0417 232.797 54.125C232.484 54.0833 232.161 54.1146 231.828 54.2188C231.516 54.3229 231.214 54.4375 230.922 54.5625C230.589 54.7083 230.276 54.8854 229.984 55.0938C229.797 55.2188 229.578 55.4062 229.328 55.6562C229.099 55.9062 228.766 56.1458 228.328 56.375C227.891 56.6042 227.307 56.8021 226.578 56.9688C225.87 57.1146 224.953 57.1667 223.828 57.125C222.474 57.0833 221.339 56.8438 220.422 56.4062C219.505 55.9479 218.766 55.3958 218.203 54.75C217.641 54.0833 217.234 53.3646 216.984 52.5938C216.734 51.8229 216.599 51.1042 216.578 50.4375C216.557 49.7708 216.755 49.0729 217.172 48.3438C217.589 47.6146 218.172 46.9479 218.922 46.3438C219.693 45.7396 220.62 45.25 221.703 44.875C222.786 44.4792 223.974 44.2812 225.266 44.2812C226.016 44.2812 226.703 44.375 227.328 44.5625C227.974 44.7292 228.557 44.9583 229.078 45.25C229.62 45.5417 230.089 45.875 230.484 46.25C230.88 46.6042 231.214 46.9688 231.484 47.3438C231.755 47.7396 231.984 48.1562 232.172 48.5938C232.339 48.9688 232.474 49.3958 232.578 49.875C232.682 50.3542 232.714 50.8438 232.672 51.3438C231.089 51.3854 229.807 51.4167 228.828 51.4375C227.87 51.4583 227.12 51.4688 226.578 51.4688H225.172H224.109C223.734 51.4688 223.245 51.4792 222.641 51.5C222.036 51.5208 221.297 51.5521 220.422 51.5938C220.526 52.4271 220.786 53.0729 221.203 53.5312C221.641 53.9688 222.099 54.3021 222.578 54.5312C223.12 54.7812 223.714 54.9271 224.359 54.9688ZM221.547 49.3438C222.214 49.3854 222.766 49.4167 223.203 49.4375C223.661 49.4583 224.036 49.4792 224.328 49.5C224.641 49.5208 224.891 49.5312 225.078 49.5312H225.859C226.38 49.5312 227.349 49.5 228.766 49.4375C228.703 48.5208 228.505 47.8229 228.172 47.3438C227.859 46.8646 227.526 46.5104 227.172 46.2812C226.755 46.0312 226.297 45.8854 225.797 45.8438C224.443 45.8646 223.432 46.1458 222.766 46.6875C222.12 47.2292 221.714 48.1146 221.547 49.3438ZM233.609 45.0312C234.005 45.0521 234.359 45.0625 234.672 45.0625C235.005 45.0417 235.286 45.0208 235.516 45C235.786 44.9792 236.026 44.9583 236.234 44.9375C236.547 44.8958 236.87 44.8438 237.203 44.7812C237.495 44.7396 237.797 44.6875 238.109 44.625C238.443 44.5417 238.766 44.4479 239.078 44.3438C238.953 44.6562 238.849 44.9271 238.766 45.1562C238.682 45.3854 238.62 45.5833 238.578 45.75C238.516 45.9375 238.484 46.0938 238.484 46.2188C238.464 46.3646 238.453 46.5417 238.453 46.75C238.432 47.1042 238.432 47.6771 238.453 48.4688C239.536 47.5312 240.443 46.8021 241.172 46.2812C241.922 45.7604 242.516 45.3542 242.953 45.0625C243.474 44.7292 243.88 44.5104 244.172 44.4062C244.943 44.2812 245.62 44.4583 246.203 44.9375C246.453 45.1458 246.693 45.4271 246.922 45.7812C247.151 46.1146 247.349 46.5625 247.516 47.125C247.682 47.6875 247.807 48.3646 247.891 49.1562C247.974 49.9271 247.984 50.8542 247.922 51.9375C247.484 51.9792 247.089 52.0208 246.734 52.0625C246.401 52.1042 246.12 52.1354 245.891 52.1562C245.62 52.1979 245.37 52.2188 245.141 52.2188L244.297 52.3125C244.005 52.3542 243.641 52.3958 243.203 52.4375C242.786 52.4583 242.276 52.5 241.672 52.5625C242.547 51.8542 243.109 51.2396 243.359 50.7188C243.63 50.1771 243.745 49.7292 243.703 49.375C243.661 48.9792 243.474 48.6354 243.141 48.3438C242.745 48.1146 242.318 48.0312 241.859 48.0938C241.464 48.1354 241.005 48.3125 240.484 48.625C239.964 48.9375 239.411 49.5208 238.828 50.375C238.87 51.7083 238.911 52.8125 238.953 53.6875C239.016 54.5625 239.068 55.2708 239.109 55.8125C239.172 56.4375 239.224 56.9271 239.266 57.2812C239.328 57.5938 239.453 57.9271 239.641 58.2812C239.786 58.5729 239.995 58.8958 240.266 59.25C240.536 59.6042 240.891 59.9583 241.328 60.3125C240.411 60.2708 239.661 60.2708 239.078 60.3125C238.724 60.3333 238.411 60.3542 238.141 60.375C237.849 60.4167 237.536 60.4583 237.203 60.5C236.911 60.5417 236.568 60.5833 236.172 60.625C235.797 60.6875 235.38 60.75 234.922 60.8125C235.089 60.5833 235.224 60.3125 235.328 60C235.432 59.7083 235.516 59.4271 235.578 59.1562C235.661 58.8438 235.724 58.5208 235.766 58.1875C235.786 57.8958 235.797 57.4583 235.797 56.875C235.818 56.2917 235.807 55.6354 235.766 54.9062C235.745 54.1562 235.714 53.3854 235.672 52.5938C235.63 51.7812 235.578 51.0208 235.516 50.3125C235.453 49.6042 235.38 48.9896 235.297 48.4688C235.234 47.9271 235.161 47.5521 235.078 47.3438C234.974 47.0938 234.849 46.8438 234.703 46.5938C234.578 46.3646 234.422 46.125 234.234 45.875C234.047 45.6042 233.839 45.3229 233.609 45.0312ZM259.484 46.0312L265.234 46.0938C264.901 47.3646 264.651 48.4479 264.484 49.3438C264.339 50.2396 264.245 50.9896 264.203 51.5938C264.12 52.2812 264.099 52.8646 264.141 53.3438C264.203 53.7812 264.307 54.25 264.453 54.75C264.578 55.1667 264.766 55.6458 265.016 56.1875C265.266 56.7292 265.599 57.2708 266.016 57.8125C265.766 57.7292 265.495 57.6667 265.203 57.625C264.911 57.5833 264.641 57.5521 264.391 57.5312C264.099 57.5104 263.807 57.5104 263.516 57.5312C263.224 57.5521 262.901 57.5833 262.547 57.625C262.255 57.6667 261.901 57.7188 261.484 57.7812C261.068 57.8438 260.63 57.9271 260.172 58.0312C260.484 57.0938 260.724 56.2812 260.891 55.5938C261.078 54.9062 261.214 54.3333 261.297 53.875C261.38 53.3333 261.432 52.8958 261.453 52.5625C261.453 52.1458 261.453 51.6771 261.453 51.1562C261.453 50.6146 261.453 50.0938 261.453 49.5938C261.453 49.0938 261.443 48.6562 261.422 48.2812C261.401 47.8854 261.359 47.6354 261.297 47.5312L260.984 47.2188C260.859 47.1146 260.672 46.9688 260.422 46.7812C260.193 46.5729 259.88 46.3229 259.484 46.0312ZM261.703 41.2188C262.141 40.9896 262.578 40.9271 263.016 41.0312C263.474 41.1354 263.828 41.3333 264.078 41.625C264.328 41.9167 264.411 42.2604 264.328 42.6562C264.266 43.0521 263.932 43.4375 263.328 43.8125C262.724 44.1667 262.193 44.2917 261.734 44.1875C261.276 44.0833 260.953 43.8646 260.766 43.5312C260.578 43.1979 260.547 42.8125 260.672 42.375C260.797 41.9167 261.141 41.5312 261.703 41.2188ZM280.922 42.1562C280.734 42.6146 280.568 43.0312 280.422 43.4062C280.297 43.7812 280.182 44.1146 280.078 44.4062C279.974 44.7396 279.88 45.0312 279.797 45.2812C279.714 45.5729 279.62 45.9062 279.516 46.2812C279.411 46.6146 279.276 47.0312 279.109 47.5312C278.964 48.0104 278.786 48.5833 278.578 49.25C278.411 48.25 278.109 47.4583 277.672 46.875C277.234 46.2708 276.786 45.8021 276.328 45.4688C275.786 45.0938 275.203 44.8229 274.578 44.6562C273.453 44.4688 272.641 44.4896 272.141 44.7188C271.641 44.9479 271.307 45.2396 271.141 45.5938C271.057 45.7396 270.964 45.9271 270.859 46.1562C270.776 46.3646 270.703 46.5833 270.641 46.8125C270.599 47.0417 270.589 47.2708 270.609 47.5C270.63 47.7292 270.724 47.9167 270.891 48.0625C270.995 48.1667 271.266 48.3125 271.703 48.5C272.141 48.6667 272.661 48.8646 273.266 49.0938C273.891 49.3021 274.547 49.5312 275.234 49.7812C275.943 50.0312 276.609 50.2812 277.234 50.5312C277.859 50.7812 278.401 51.0312 278.859 51.2812C279.318 51.5312 279.62 51.7604 279.766 51.9688C279.891 52.1771 280.026 52.4583 280.172 52.8125C280.339 53.1458 280.453 53.5208 280.516 53.9375C280.599 54.3333 280.62 54.75 280.578 55.1875C280.557 55.6042 280.443 56.0208 280.234 56.4375C280.026 56.8542 279.693 57.2396 279.234 57.5938C278.797 57.9479 278.203 58.2396 277.453 58.4688C276.578 58.7396 275.734 58.8125 274.922 58.6875C274.109 58.5625 273.359 58.375 272.672 58.125C272.005 57.875 271.422 57.6354 270.922 57.4062C270.422 57.1562 270.068 57.0521 269.859 57.0938C269.63 57.1354 269.37 57.25 269.078 57.4375C268.786 57.625 268.505 57.8229 268.234 58.0312C267.984 58.2188 267.766 58.3958 267.578 58.5625C267.391 58.7083 267.297 58.7604 267.297 58.7188C267.297 58.6771 267.328 58.5521 267.391 58.3438C267.474 58.1354 267.557 57.8854 267.641 57.5938C267.745 57.2812 267.839 56.9479 267.922 56.5938C268.026 56.2188 268.099 55.8646 268.141 55.5312C268.182 55.2604 268.234 54.9271 268.297 54.5312C268.339 54.1771 268.391 53.75 268.453 53.25C268.536 52.7292 268.63 52.1042 268.734 51.375C268.839 51.9167 268.984 52.3854 269.172 52.7812C269.38 53.1771 269.578 53.5208 269.766 53.8125C269.995 54.1458 270.214 54.4271 270.422 54.6562C270.734 54.9479 271.099 55.2188 271.516 55.4688C271.953 55.7188 272.391 55.9375 272.828 56.125C273.266 56.2917 273.682 56.3958 274.078 56.4375C274.474 56.4792 274.807 56.4375 275.078 56.3125C275.349 56.1875 275.578 55.9583 275.766 55.625C275.974 55.2917 276.12 54.9271 276.203 54.5312C276.286 54.1354 276.318 53.7604 276.297 53.4062C276.276 53.0312 276.182 52.7292 276.016 52.5C275.891 52.3542 275.599 52.1667 275.141 51.9375C274.703 51.7083 274.172 51.4583 273.547 51.1875C272.943 50.9167 272.297 50.6354 271.609 50.3438C270.943 50.0521 270.307 49.7604 269.703 49.4688C269.12 49.1562 268.63 48.8646 268.234 48.5938C267.859 48.3021 267.651 48.0417 267.609 47.8125C267.568 47.4792 267.536 47.1146 267.516 46.7188C267.495 46.3021 267.516 45.8958 267.578 45.5C267.661 45.0833 267.807 44.6875 268.016 44.3125C268.245 43.9375 268.578 43.625 269.016 43.375C269.307 43.2083 269.693 43.0833 270.172 43C270.651 42.9167 271.182 42.875 271.766 42.875C272.349 42.8542 272.953 42.875 273.578 42.9375C274.203 42.9792 274.797 43.0417 275.359 43.125C275.943 43.1875 276.464 43.2708 276.922 43.375C277.401 43.4792 277.766 43.5729 278.016 43.6562C278.307 43.7604 278.62 43.7708 278.953 43.6875C279.245 43.625 279.557 43.4896 279.891 43.2812C280.224 43.0729 280.568 42.6979 280.922 42.1562ZM72.5469 84.0312C72.9427 84.0521 73.2969 84.0625 73.6094 84.0625C73.9427 84.0417 74.224 84.0208 74.4531 84C74.724 83.9792 74.9635 83.9583 75.1719 83.9375C75.4844 83.8958 75.8073 83.8438 76.1406 83.7812C76.4323 83.7396 76.7344 83.6875 77.0469 83.625C77.3802 83.5417 77.7031 83.4479 78.0156 83.3438C77.8906 83.6562 77.7865 83.9271 77.7031 84.1562C77.6198 84.3854 77.5573 84.5833 77.5156 84.75C77.4531 84.9375 77.4219 85.0938 77.4219 85.2188C77.401 85.3646 77.3906 85.5417 77.3906 85.75C77.3698 86.1042 77.3698 86.6771 77.3906 87.4688C78.474 86.5312 79.3802 85.8021 80.1094 85.2812C80.8594 84.7604 81.4531 84.3542 81.8906 84.0625C82.4115 83.7292 82.8177 83.5104 83.1094 83.4062C83.8802 83.2812 84.5573 83.4583 85.1406 83.9375C85.3906 84.1458 85.6302 84.4271 85.8594 84.7812C86.0885 85.1146 86.2865 85.5625 86.4531 86.125C86.6198 86.6875 86.7448 87.3646 86.8281 88.1562C86.9115 88.9271 86.9219 89.8542 86.8594 90.9375C86.4219 90.9792 86.026 91.0208 85.6719 91.0625C85.3385 91.1042 85.0573 91.1354 84.8281 91.1562C84.5573 91.1979 84.3073 91.2188 84.0781 91.2188L83.2344 91.3125C82.9427 91.3542 82.5781 91.3958 82.1406 91.4375C81.724 91.4583 81.2135 91.5 80.6094 91.5625C81.4844 90.8542 82.0469 90.2396 82.2969 89.7188C82.5677 89.1771 82.6823 88.7292 82.6406 88.375C82.599 87.9792 82.4115 87.6354 82.0781 87.3438C81.6823 87.1146 81.2552 87.0312 80.7969 87.0938C80.401 87.1354 79.9427 87.3125 79.4219 87.625C78.901 87.9375 78.349 88.5208 77.7656 89.375C77.8073 90.7083 77.849 91.8125 77.8906 92.6875C77.9531 93.5625 78.0052 94.2708 78.0469 94.8125C78.1094 95.4375 78.1615 95.9271 78.2031 96.2812C78.2656 96.5938 78.3906 96.9271 78.5781 97.2812C78.724 97.5729 78.9323 97.8958 79.2031 98.25C79.474 98.6042 79.8281 98.9583 80.2656 99.3125C79.349 99.2708 78.599 99.2708 78.0156 99.3125C77.6615 99.3333 77.349 99.3542 77.0781 99.375C76.7865 99.4167 76.474 99.4583 76.1406 99.5C75.849 99.5417 75.5052 99.5833 75.1094 99.625C74.7344 99.6875 74.3177 99.75 73.8594 99.8125C74.026 99.5833 74.1615 99.3125 74.2656 99C74.3698 98.7083 74.4531 98.4271 74.5156 98.1562C74.599 97.8438 74.6615 97.5208 74.7031 97.1875C74.724 96.8958 74.7344 96.4583 74.7344 95.875C74.7552 95.2917 74.7448 94.6354 74.7031 93.9062C74.6823 93.1562 74.651 92.3854 74.6094 91.5938C74.5677 90.7812 74.5156 90.0208 74.4531 89.3125C74.3906 88.6042 74.3177 87.9896 74.2344 87.4688C74.1719 86.9271 74.099 86.5521 74.0156 86.3438C73.9115 86.0938 73.7865 85.8438 73.6406 85.5938C73.5156 85.3646 73.3594 85.125 73.1719 84.875C72.9844 84.6042 72.776 84.3229 72.5469 84.0312ZM96.2969 93.9688C96.8802 93.9688 97.4219 93.9062 97.9219 93.7812C98.3385 93.6771 98.7344 93.5104 99.1094 93.2812C99.5052 93.0312 99.7656 92.6667 99.8906 92.1875C100.307 92.2708 100.661 92.3438 100.953 92.4062C101.245 92.4479 101.495 92.4896 101.703 92.5312C101.932 92.5938 102.13 92.6354 102.297 92.6562C102.464 92.6979 102.661 92.7396 102.891 92.7812C103.099 92.8229 103.349 92.875 103.641 92.9375C103.953 92.9792 104.318 93.0417 104.734 93.125C104.422 93.0833 104.099 93.1146 103.766 93.2188C103.453 93.3229 103.151 93.4375 102.859 93.5625C102.526 93.7083 102.214 93.8854 101.922 94.0938C101.734 94.2188 101.516 94.4062 101.266 94.6562C101.036 94.9062 100.703 95.1458 100.266 95.375C99.8281 95.6042 99.2448 95.8021 98.5156 95.9688C97.8073 96.1146 96.8906 96.1667 95.7656 96.125C94.4115 96.0833 93.276 95.8438 92.3594 95.4062C91.4427 94.9479 90.7031 94.3958 90.1406 93.75C89.5781 93.0833 89.1719 92.3646 88.9219 91.5938C88.6719 90.8229 88.5365 90.1042 88.5156 89.4375C88.4948 88.7708 88.6927 88.0729 89.1094 87.3438C89.526 86.6146 90.1094 85.9479 90.8594 85.3438C91.6302 84.7396 92.5573 84.25 93.6406 83.875C94.724 83.4792 95.9115 83.2812 97.2031 83.2812C97.9531 83.2812 98.6406 83.375 99.2656 83.5625C99.9115 83.7292 100.495 83.9583 101.016 84.25C101.557 84.5417 102.026 84.875 102.422 85.25C102.818 85.6042 103.151 85.9688 103.422 86.3438C103.693 86.7396 103.922 87.1562 104.109 87.5938C104.276 87.9688 104.411 88.3958 104.516 88.875C104.62 89.3542 104.651 89.8438 104.609 90.3438C103.026 90.3854 101.745 90.4167 100.766 90.4375C99.8073 90.4583 99.0573 90.4688 98.5156 90.4688H97.1094H96.0469C95.6719 90.4688 95.1823 90.4792 94.5781 90.5C93.974 90.5208 93.2344 90.5521 92.3594 90.5938C92.4635 91.4271 92.724 92.0729 93.1406 92.5312C93.5781 92.9688 94.0365 93.3021 94.5156 93.5312C95.0573 93.7812 95.651 93.9271 96.2969 93.9688ZM93.4844 88.3438C94.151 88.3854 94.7031 88.4167 95.1406 88.4375C95.599 88.4583 95.974 88.4792 96.2656 88.5C96.5781 88.5208 96.8281 88.5312 97.0156 88.5312H97.7969C98.3177 88.5312 99.2865 88.5 100.703 88.4375C100.641 87.5208 100.443 86.8229 100.109 86.3438C99.7969 85.8646 99.4635 85.5104 99.1094 85.2812C98.6927 85.0312 98.2344 84.8854 97.7344 84.8438C96.3802 84.8646 95.3698 85.1458 94.7031 85.6875C94.0573 86.2292 93.651 87.1146 93.4844 88.3438ZM108.203 86.3438C108.307 86.2188 108.37 85.9896 108.391 85.6562C108.432 85.3021 108.516 84.9062 108.641 84.4688C108.786 84.0312 109.026 83.5729 109.359 83.0938C109.693 82.6146 110.234 82.1667 110.984 81.75C111.714 81.3333 112.422 81.0833 113.109 81C113.797 80.9167 114.453 80.9479 115.078 81.0938C115.703 81.2396 116.286 81.4688 116.828 81.7812C117.391 82.0938 117.901 82.4375 118.359 82.8125C118.672 83.0625 118.922 83.4271 119.109 83.9062C119.297 84.3646 119.443 84.8854 119.547 85.4688C119.651 86.0521 119.724 86.6667 119.766 87.3125C119.828 87.9375 119.87 88.5521 119.891 89.1562C119.911 89.7396 119.922 90.2812 119.922 90.7812C119.943 91.2604 119.984 91.6562 120.047 91.9688C120.13 92.4271 120.276 92.8229 120.484 93.1562C120.693 93.4688 120.922 93.7396 121.172 93.9688C121.422 94.1771 121.672 94.3438 121.922 94.4688C122.172 94.5938 122.391 94.6875 122.578 94.75C122.703 94.8125 122.818 94.8542 122.922 94.875C123.13 94.9583 123.276 94.9583 123.359 94.875C123.234 95.1667 123.12 95.4167 123.016 95.625C122.911 95.8333 122.828 96.0104 122.766 96.1562C122.682 96.3229 122.609 96.4583 122.547 96.5625C122.484 96.6875 122.411 96.8021 122.328 96.9062C122.266 97.0104 122.182 97.125 122.078 97.25C121.974 97.375 121.87 97.5104 121.766 97.6562C121.495 97.5521 121.234 97.4271 120.984 97.2812C120.755 97.1354 120.547 97 120.359 96.875C120.13 96.7292 119.922 96.5833 119.734 96.4375C119.547 96.2917 119.37 96.125 119.203 95.9375C119.057 95.7708 118.901 95.5938 118.734 95.4062C118.589 95.2188 118.464 95.0104 118.359 94.7812C118.234 95.0521 117.932 95.4375 117.453 95.9375C116.995 96.4375 116.391 96.8958 115.641 97.3125C114.891 97.7083 114.016 97.9896 113.016 98.1562C112.036 98.3229 110.953 98.2083 109.766 97.8125C109.245 97.6458 108.755 97.4062 108.297 97.0938C107.839 96.7604 107.443 96.3646 107.109 95.9062C106.797 95.4479 106.568 94.9271 106.422 94.3438C106.297 93.7396 106.307 93.0729 106.453 92.3438C106.599 91.6146 106.859 91 107.234 90.5C107.609 90 108.057 89.5938 108.578 89.2812C109.099 88.9688 109.682 88.7292 110.328 88.5625C110.974 88.3958 111.641 88.2812 112.328 88.2188C112.87 88.1979 113.411 88.2292 113.953 88.3125C114.411 88.3958 114.891 88.5521 115.391 88.7812C115.891 88.9896 116.318 89.3125 116.672 89.75C116.651 88.6458 116.609 87.7708 116.547 87.125C116.505 86.4583 116.464 85.9479 116.422 85.5938C116.339 85.1771 116.266 84.8854 116.203 84.7188C116.099 84.5729 115.984 84.4062 115.859 84.2188C115.755 84.0312 115.62 83.8646 115.453 83.7188C115.286 83.5521 115.078 83.4167 114.828 83.3125C114.578 83.2083 114.286 83.1667 113.953 83.1875C113.599 83.2083 113.318 83.3021 113.109 83.4688C112.901 83.6354 112.734 83.8333 112.609 84.0625C112.505 84.2708 112.443 84.5 112.422 84.75C112.401 85 112.411 85.2188 112.453 85.4062C112.495 85.5312 112.557 85.6667 112.641 85.8125C112.724 85.9375 112.839 86.0729 112.984 86.2188C113.13 86.3646 113.328 86.4896 113.578 86.5938C113.099 86.6562 112.672 86.7083 112.297 86.75C111.922 86.7708 111.599 86.8021 111.328 86.8438C111.016 86.8854 110.745 86.9167 110.516 86.9375C110.286 86.9583 110.016 87 109.703 87.0625C109.432 87.1042 109.099 87.1562 108.703 87.2188C108.307 87.2812 107.849 87.3646 107.328 87.4688C107.453 87.3229 107.568 87.1875 107.672 87.0625C107.776 86.9167 107.87 86.7917 107.953 86.6875C108.036 86.5625 108.12 86.4479 108.203 86.3438ZM112.891 90.0625C112.516 90.0833 112.141 90.1771 111.766 90.3438C111.391 90.4896 111.057 90.7083 110.766 91C110.474 91.2708 110.224 91.5938 110.016 91.9688C109.828 92.3229 109.734 92.7188 109.734 93.1562C109.734 93.5938 109.839 93.9792 110.047 94.3125C110.276 94.625 110.568 94.8854 110.922 95.0938C111.297 95.3021 111.693 95.4271 112.109 95.4688C112.547 95.5104 112.974 95.4688 113.391 95.3438C113.786 95.1979 114.161 94.9688 114.516 94.6562C114.87 94.3229 115.172 93.9688 115.422 93.5938C115.672 93.1979 115.849 92.8125 115.953 92.4375C116.057 92.0417 116.068 91.7188 115.984 91.4688C115.818 90.9271 115.443 90.5521 114.859 90.3438C114.276 90.1146 113.62 90.0208 112.891 90.0625ZM138.391 75.0625C138.786 75.0833 139.214 75.0938 139.672 75.0938C140.068 75.0938 140.516 75.1042 141.016 75.125C141.536 75.125 142.078 75.1042 142.641 75.0625C142.141 75.2917 141.703 75.625 141.328 76.0625C140.953 76.5 140.651 76.9375 140.422 77.375C140.13 77.8958 139.891 78.4375 139.703 79C139.599 79.3333 139.516 79.9271 139.453 80.7812C139.391 81.6146 139.339 82.5938 139.297 83.7188C139.276 84.8438 139.266 86.0312 139.266 87.2812C139.266 88.5312 139.276 89.7292 139.297 90.875C139.318 92 139.349 93 139.391 93.875C139.432 94.75 139.484 95.3646 139.547 95.7188C139.63 96.1354 139.734 96.5312 139.859 96.9062C139.964 97.2396 140.099 97.5833 140.266 97.9375C140.432 98.2708 140.641 98.5417 140.891 98.75L137.703 100.188C137.536 99.9583 137.401 99.7188 137.297 99.4688C137.193 99.2396 137.109 99.0312 137.047 98.8438C136.964 98.6146 136.911 98.4062 136.891 98.2188C136.849 97.9688 136.807 97.6979 136.766 97.4062C136.724 97.0938 136.672 96.8021 136.609 96.5312C136.568 96.2396 136.536 96 136.516 95.8125C136.495 95.625 136.495 95.5104 136.516 95.4688C136.536 95.4271 136.411 95.6146 136.141 96.0312C135.87 96.4271 135.464 96.8958 134.922 97.4375C134.401 97.9583 133.755 98.4688 132.984 98.9688C132.214 99.4479 131.349 99.75 130.391 99.875C129.411 100 128.505 99.8125 127.672 99.3125C126.859 98.8125 126.161 98.1146 125.578 97.2188C124.995 96.3021 124.547 95.25 124.234 94.0625C123.943 92.8542 123.828 91.625 123.891 90.375C123.932 89.5417 124.12 88.8021 124.453 88.1562C124.786 87.4896 125.203 86.9167 125.703 86.4375C126.224 85.9375 126.786 85.5208 127.391 85.1875C128.016 84.8333 128.62 84.5417 129.203 84.3125C129.807 84.0833 130.37 83.9167 130.891 83.8125C131.411 83.7083 131.828 83.6354 132.141 83.5938C132.516 83.5729 132.943 83.6354 133.422 83.7812C133.839 83.9062 134.318 84.1146 134.859 84.4062C135.422 84.6979 136.047 85.1354 136.734 85.7188C136.609 83.6354 136.495 81.9688 136.391 80.7188C136.286 79.4479 136.182 78.4792 136.078 77.8125C135.974 77.0208 135.88 76.4792 135.797 76.1875C135.693 75.9792 135.557 75.7708 135.391 75.5625C135.245 75.3958 135.057 75.2292 134.828 75.0625C134.62 74.875 134.37 74.7292 134.078 74.625C134.62 74.7292 135.141 74.8021 135.641 74.8438C136.141 74.8854 136.599 74.9271 137.016 74.9688C137.495 75.0104 137.953 75.0417 138.391 75.0625ZM130.547 86.7188C130.151 86.8646 129.828 87.1146 129.578 87.4688C129.349 87.8229 129.161 88.25 129.016 88.75C128.87 89.2292 128.766 89.75 128.703 90.3125C128.661 90.8542 128.63 91.3854 128.609 91.9062C128.609 92.4062 128.609 92.8646 128.609 93.2812C128.609 93.6979 128.609 94.0104 128.609 94.2188C128.609 94.3438 128.63 94.5729 128.672 94.9062C128.734 95.2188 128.859 95.5521 129.047 95.9062C129.234 96.2396 129.495 96.5417 129.828 96.8125C130.182 97.0833 130.651 97.2188 131.234 97.2188C131.714 97.1771 132.224 97.0104 132.766 96.7188C133.245 96.4688 133.786 96.0729 134.391 95.5312C135.016 94.9688 135.682 94.1667 136.391 93.125C136.349 92.4583 136.318 91.9062 136.297 91.4688C136.297 91.0312 136.286 90.6771 136.266 90.4062C136.245 90.0938 136.234 89.8438 136.234 89.6562V89.1875C136.234 89.0625 136.234 88.9271 136.234 88.7812C136.234 88.6354 136.245 88.5 136.266 88.375C135.682 87.9583 135.161 87.6042 134.703 87.3125C134.266 87 133.828 86.7708 133.391 86.625C132.974 86.4583 132.536 86.3854 132.078 86.4062C131.641 86.4062 131.13 86.5104 130.547 86.7188ZM157.328 75.0625C157.724 75.0833 158.151 75.0938 158.609 75.0938C159.005 75.0938 159.453 75.1042 159.953 75.125C160.474 75.125 161.016 75.1042 161.578 75.0625C161.078 75.2917 160.641 75.625 160.266 76.0625C159.891 76.5 159.589 76.9375 159.359 77.375C159.068 77.8958 158.828 78.4375 158.641 79C158.536 79.3333 158.453 79.9271 158.391 80.7812C158.328 81.6146 158.276 82.5938 158.234 83.7188C158.214 84.8438 158.203 86.0312 158.203 87.2812C158.203 88.5312 158.214 89.7292 158.234 90.875C158.255 92 158.286 93 158.328 93.875C158.37 94.75 158.422 95.3646 158.484 95.7188C158.568 96.1354 158.672 96.5312 158.797 96.9062C158.901 97.2396 159.036 97.5833 159.203 97.9375C159.37 98.2708 159.578 98.5417 159.828 98.75L156.641 100.188C156.474 99.9583 156.339 99.7188 156.234 99.4688C156.13 99.2396 156.047 99.0312 155.984 98.8438C155.901 98.6146 155.849 98.4062 155.828 98.2188C155.786 97.9688 155.745 97.6979 155.703 97.4062C155.661 97.0938 155.609 96.8021 155.547 96.5312C155.505 96.2396 155.474 96 155.453 95.8125C155.432 95.625 155.432 95.5104 155.453 95.4688C155.474 95.4271 155.349 95.6146 155.078 96.0312C154.807 96.4271 154.401 96.8958 153.859 97.4375C153.339 97.9583 152.693 98.4688 151.922 98.9688C151.151 99.4479 150.286 99.75 149.328 99.875C148.349 100 147.443 99.8125 146.609 99.3125C145.797 98.8125 145.099 98.1146 144.516 97.2188C143.932 96.3021 143.484 95.25 143.172 94.0625C142.88 92.8542 142.766 91.625 142.828 90.375C142.87 89.5417 143.057 88.8021 143.391 88.1562C143.724 87.4896 144.141 86.9167 144.641 86.4375C145.161 85.9375 145.724 85.5208 146.328 85.1875C146.953 84.8333 147.557 84.5417 148.141 84.3125C148.745 84.0833 149.307 83.9167 149.828 83.8125C150.349 83.7083 150.766 83.6354 151.078 83.5938C151.453 83.5729 151.88 83.6354 152.359 83.7812C152.776 83.9062 153.255 84.1146 153.797 84.4062C154.359 84.6979 154.984 85.1354 155.672 85.7188C155.547 83.6354 155.432 81.9688 155.328 80.7188C155.224 79.4479 155.12 78.4792 155.016 77.8125C154.911 77.0208 154.818 76.4792 154.734 76.1875C154.63 75.9792 154.495 75.7708 154.328 75.5625C154.182 75.3958 153.995 75.2292 153.766 75.0625C153.557 74.875 153.307 74.7292 153.016 74.625C153.557 74.7292 154.078 74.8021 154.578 74.8438C155.078 74.8854 155.536 74.9271 155.953 74.9688C156.432 75.0104 156.891 75.0417 157.328 75.0625ZM149.484 86.7188C149.089 86.8646 148.766 87.1146 148.516 87.4688C148.286 87.8229 148.099 88.25 147.953 88.75C147.807 89.2292 147.703 89.75 147.641 90.3125C147.599 90.8542 147.568 91.3854 147.547 91.9062C147.547 92.4062 147.547 92.8646 147.547 93.2812C147.547 93.6979 147.547 94.0104 147.547 94.2188C147.547 94.3438 147.568 94.5729 147.609 94.9062C147.672 95.2188 147.797 95.5521 147.984 95.9062C148.172 96.2396 148.432 96.5417 148.766 96.8125C149.12 97.0833 149.589 97.2188 150.172 97.2188C150.651 97.1771 151.161 97.0104 151.703 96.7188C152.182 96.4688 152.724 96.0729 153.328 95.5312C153.953 94.9688 154.62 94.1667 155.328 93.125C155.286 92.4583 155.255 91.9062 155.234 91.4688C155.234 91.0312 155.224 90.6771 155.203 90.4062C155.182 90.0938 155.172 89.8438 155.172 89.6562V89.1875C155.172 89.0625 155.172 88.9271 155.172 88.7812C155.172 88.6354 155.182 88.5 155.203 88.375C154.62 87.9583 154.099 87.6042 153.641 87.3125C153.203 87 152.766 86.7708 152.328 86.625C151.911 86.4583 151.474 86.3854 151.016 86.4062C150.578 86.4062 150.068 86.5104 149.484 86.7188ZM176.266 75.0625C176.661 75.0833 177.089 75.0938 177.547 75.0938C177.943 75.0938 178.391 75.1042 178.891 75.125C179.411 75.125 179.953 75.1042 180.516 75.0625C180.016 75.2917 179.578 75.625 179.203 76.0625C178.828 76.5 178.526 76.9375 178.297 77.375C178.005 77.8958 177.766 78.4375 177.578 79C177.474 79.3333 177.391 79.9271 177.328 80.7812C177.266 81.6146 177.214 82.5938 177.172 83.7188C177.151 84.8438 177.141 86.0312 177.141 87.2812C177.141 88.5312 177.151 89.7292 177.172 90.875C177.193 92 177.224 93 177.266 93.875C177.307 94.75 177.359 95.3646 177.422 95.7188C177.505 96.1354 177.609 96.5312 177.734 96.9062C177.839 97.2396 177.974 97.5833 178.141 97.9375C178.307 98.2708 178.516 98.5417 178.766 98.75L175.578 100.188C175.411 99.9583 175.276 99.7188 175.172 99.4688C175.068 99.2396 174.984 99.0312 174.922 98.8438C174.839 98.6146 174.786 98.4062 174.766 98.2188C174.724 97.9688 174.682 97.6979 174.641 97.4062C174.599 97.0938 174.547 96.8021 174.484 96.5312C174.443 96.2396 174.411 96 174.391 95.8125C174.37 95.625 174.37 95.5104 174.391 95.4688C174.411 95.4271 174.286 95.6146 174.016 96.0312C173.745 96.4271 173.339 96.8958 172.797 97.4375C172.276 97.9583 171.63 98.4688 170.859 98.9688C170.089 99.4479 169.224 99.75 168.266 99.875C167.286 100 166.38 99.8125 165.547 99.3125C164.734 98.8125 164.036 98.1146 163.453 97.2188C162.87 96.3021 162.422 95.25 162.109 94.0625C161.818 92.8542 161.703 91.625 161.766 90.375C161.807 89.5417 161.995 88.8021 162.328 88.1562C162.661 87.4896 163.078 86.9167 163.578 86.4375C164.099 85.9375 164.661 85.5208 165.266 85.1875C165.891 84.8333 166.495 84.5417 167.078 84.3125C167.682 84.0833 168.245 83.9167 168.766 83.8125C169.286 83.7083 169.703 83.6354 170.016 83.5938C170.391 83.5729 170.818 83.6354 171.297 83.7812C171.714 83.9062 172.193 84.1146 172.734 84.4062C173.297 84.6979 173.922 85.1354 174.609 85.7188C174.484 83.6354 174.37 81.9688 174.266 80.7188C174.161 79.4479 174.057 78.4792 173.953 77.8125C173.849 77.0208 173.755 76.4792 173.672 76.1875C173.568 75.9792 173.432 75.7708 173.266 75.5625C173.12 75.3958 172.932 75.2292 172.703 75.0625C172.495 74.875 172.245 74.7292 171.953 74.625C172.495 74.7292 173.016 74.8021 173.516 74.8438C174.016 74.8854 174.474 74.9271 174.891 74.9688C175.37 75.0104 175.828 75.0417 176.266 75.0625ZM168.422 86.7188C168.026 86.8646 167.703 87.1146 167.453 87.4688C167.224 87.8229 167.036 88.25 166.891 88.75C166.745 89.2292 166.641 89.75 166.578 90.3125C166.536 90.8542 166.505 91.3854 166.484 91.9062C166.484 92.4062 166.484 92.8646 166.484 93.2812C166.484 93.6979 166.484 94.0104 166.484 94.2188C166.484 94.3438 166.505 94.5729 166.547 94.9062C166.609 95.2188 166.734 95.5521 166.922 95.9062C167.109 96.2396 167.37 96.5417 167.703 96.8125C168.057 97.0833 168.526 97.2188 169.109 97.2188C169.589 97.1771 170.099 97.0104 170.641 96.7188C171.12 96.4688 171.661 96.0729 172.266 95.5312C172.891 94.9688 173.557 94.1667 174.266 93.125C174.224 92.4583 174.193 91.9062 174.172 91.4688C174.172 91.0312 174.161 90.6771 174.141 90.4062C174.12 90.0938 174.109 89.8438 174.109 89.6562V89.1875C174.109 89.0625 174.109 88.9271 174.109 88.7812C174.109 88.6354 174.12 88.5 174.141 88.375C173.557 87.9583 173.036 87.6042 172.578 87.3125C172.141 87 171.703 86.7708 171.266 86.625C170.849 86.4583 170.411 86.3854 169.953 86.4062C169.516 86.4062 169.005 86.5104 168.422 86.7188ZM195.203 75.0625C195.599 75.0833 196.026 75.0938 196.484 75.0938C196.88 75.0938 197.328 75.1042 197.828 75.125C198.349 75.125 198.891 75.1042 199.453 75.0625C198.953 75.2917 198.516 75.625 198.141 76.0625C197.766 76.5 197.464 76.9375 197.234 77.375C196.943 77.8958 196.703 78.4375 196.516 79C196.411 79.3333 196.328 79.9271 196.266 80.7812C196.203 81.6146 196.151 82.5938 196.109 83.7188C196.089 84.8438 196.078 86.0312 196.078 87.2812C196.078 88.5312 196.089 89.7292 196.109 90.875C196.13 92 196.161 93 196.203 93.875C196.245 94.75 196.297 95.3646 196.359 95.7188C196.443 96.1354 196.547 96.5312 196.672 96.9062C196.776 97.2396 196.911 97.5833 197.078 97.9375C197.245 98.2708 197.453 98.5417 197.703 98.75L194.516 100.188C194.349 99.9583 194.214 99.7188 194.109 99.4688C194.005 99.2396 193.922 99.0312 193.859 98.8438C193.776 98.6146 193.724 98.4062 193.703 98.2188C193.661 97.9688 193.62 97.6979 193.578 97.4062C193.536 97.0938 193.484 96.8021 193.422 96.5312C193.38 96.2396 193.349 96 193.328 95.8125C193.307 95.625 193.307 95.5104 193.328 95.4688C193.349 95.4271 193.224 95.6146 192.953 96.0312C192.682 96.4271 192.276 96.8958 191.734 97.4375C191.214 97.9583 190.568 98.4688 189.797 98.9688C189.026 99.4479 188.161 99.75 187.203 99.875C186.224 100 185.318 99.8125 184.484 99.3125C183.672 98.8125 182.974 98.1146 182.391 97.2188C181.807 96.3021 181.359 95.25 181.047 94.0625C180.755 92.8542 180.641 91.625 180.703 90.375C180.745 89.5417 180.932 88.8021 181.266 88.1562C181.599 87.4896 182.016 86.9167 182.516 86.4375C183.036 85.9375 183.599 85.5208 184.203 85.1875C184.828 84.8333 185.432 84.5417 186.016 84.3125C186.62 84.0833 187.182 83.9167 187.703 83.8125C188.224 83.7083 188.641 83.6354 188.953 83.5938C189.328 83.5729 189.755 83.6354 190.234 83.7812C190.651 83.9062 191.13 84.1146 191.672 84.4062C192.234 84.6979 192.859 85.1354 193.547 85.7188C193.422 83.6354 193.307 81.9688 193.203 80.7188C193.099 79.4479 192.995 78.4792 192.891 77.8125C192.786 77.0208 192.693 76.4792 192.609 76.1875C192.505 75.9792 192.37 75.7708 192.203 75.5625C192.057 75.3958 191.87 75.2292 191.641 75.0625C191.432 74.875 191.182 74.7292 190.891 74.625C191.432 74.7292 191.953 74.8021 192.453 74.8438C192.953 74.8854 193.411 74.9271 193.828 74.9688C194.307 75.0104 194.766 75.0417 195.203 75.0625ZM187.359 86.7188C186.964 86.8646 186.641 87.1146 186.391 87.4688C186.161 87.8229 185.974 88.25 185.828 88.75C185.682 89.2292 185.578 89.75 185.516 90.3125C185.474 90.8542 185.443 91.3854 185.422 91.9062C185.422 92.4062 185.422 92.8646 185.422 93.2812C185.422 93.6979 185.422 94.0104 185.422 94.2188C185.422 94.3438 185.443 94.5729 185.484 94.9062C185.547 95.2188 185.672 95.5521 185.859 95.9062C186.047 96.2396 186.307 96.5417 186.641 96.8125C186.995 97.0833 187.464 97.2188 188.047 97.2188C188.526 97.1771 189.036 97.0104 189.578 96.7188C190.057 96.4688 190.599 96.0729 191.203 95.5312C191.828 94.9688 192.495 94.1667 193.203 93.125C193.161 92.4583 193.13 91.9062 193.109 91.4688C193.109 91.0312 193.099 90.6771 193.078 90.4062C193.057 90.0938 193.047 89.8438 193.047 89.6562V89.1875C193.047 89.0625 193.047 88.9271 193.047 88.7812C193.047 88.6354 193.057 88.5 193.078 88.375C192.495 87.9583 191.974 87.6042 191.516 87.3125C191.078 87 190.641 86.7708 190.203 86.625C189.786 86.4583 189.349 86.3854 188.891 86.4062C188.453 86.4062 187.943 86.5104 187.359 86.7188ZM214.141 75.0625C214.536 75.0833 214.964 75.0938 215.422 75.0938C215.818 75.0938 216.266 75.1042 216.766 75.125C217.286 75.125 217.828 75.1042 218.391 75.0625C217.891 75.2917 217.453 75.625 217.078 76.0625C216.703 76.5 216.401 76.9375 216.172 77.375C215.88 77.8958 215.641 78.4375 215.453 79C215.349 79.3333 215.266 79.9271 215.203 80.7812C215.141 81.6146 215.089 82.5938 215.047 83.7188C215.026 84.8438 215.016 86.0312 215.016 87.2812C215.016 88.5312 215.026 89.7292 215.047 90.875C215.068 92 215.099 93 215.141 93.875C215.182 94.75 215.234 95.3646 215.297 95.7188C215.38 96.1354 215.484 96.5312 215.609 96.9062C215.714 97.2396 215.849 97.5833 216.016 97.9375C216.182 98.2708 216.391 98.5417 216.641 98.75L213.453 100.188C213.286 99.9583 213.151 99.7188 213.047 99.4688C212.943 99.2396 212.859 99.0312 212.797 98.8438C212.714 98.6146 212.661 98.4062 212.641 98.2188C212.599 97.9688 212.557 97.6979 212.516 97.4062C212.474 97.0938 212.422 96.8021 212.359 96.5312C212.318 96.2396 212.286 96 212.266 95.8125C212.245 95.625 212.245 95.5104 212.266 95.4688C212.286 95.4271 212.161 95.6146 211.891 96.0312C211.62 96.4271 211.214 96.8958 210.672 97.4375C210.151 97.9583 209.505 98.4688 208.734 98.9688C207.964 99.4479 207.099 99.75 206.141 99.875C205.161 100 204.255 99.8125 203.422 99.3125C202.609 98.8125 201.911 98.1146 201.328 97.2188C200.745 96.3021 200.297 95.25 199.984 94.0625C199.693 92.8542 199.578 91.625 199.641 90.375C199.682 89.5417 199.87 88.8021 200.203 88.1562C200.536 87.4896 200.953 86.9167 201.453 86.4375C201.974 85.9375 202.536 85.5208 203.141 85.1875C203.766 84.8333 204.37 84.5417 204.953 84.3125C205.557 84.0833 206.12 83.9167 206.641 83.8125C207.161 83.7083 207.578 83.6354 207.891 83.5938C208.266 83.5729 208.693 83.6354 209.172 83.7812C209.589 83.9062 210.068 84.1146 210.609 84.4062C211.172 84.6979 211.797 85.1354 212.484 85.7188C212.359 83.6354 212.245 81.9688 212.141 80.7188C212.036 79.4479 211.932 78.4792 211.828 77.8125C211.724 77.0208 211.63 76.4792 211.547 76.1875C211.443 75.9792 211.307 75.7708 211.141 75.5625C210.995 75.3958 210.807 75.2292 210.578 75.0625C210.37 74.875 210.12 74.7292 209.828 74.625C210.37 74.7292 210.891 74.8021 211.391 74.8438C211.891 74.8854 212.349 74.9271 212.766 74.9688C213.245 75.0104 213.703 75.0417 214.141 75.0625ZM206.297 86.7188C205.901 86.8646 205.578 87.1146 205.328 87.4688C205.099 87.8229 204.911 88.25 204.766 88.75C204.62 89.2292 204.516 89.75 204.453 90.3125C204.411 90.8542 204.38 91.3854 204.359 91.9062C204.359 92.4062 204.359 92.8646 204.359 93.2812C204.359 93.6979 204.359 94.0104 204.359 94.2188C204.359 94.3438 204.38 94.5729 204.422 94.9062C204.484 95.2188 204.609 95.5521 204.797 95.9062C204.984 96.2396 205.245 96.5417 205.578 96.8125C205.932 97.0833 206.401 97.2188 206.984 97.2188C207.464 97.1771 207.974 97.0104 208.516 96.7188C208.995 96.4688 209.536 96.0729 210.141 95.5312C210.766 94.9688 211.432 94.1667 212.141 93.125C212.099 92.4583 212.068 91.9062 212.047 91.4688C212.047 91.0312 212.036 90.6771 212.016 90.4062C211.995 90.0938 211.984 89.8438 211.984 89.6562V89.1875C211.984 89.0625 211.984 88.9271 211.984 88.7812C211.984 88.6354 211.995 88.5 212.016 88.375C211.432 87.9583 210.911 87.6042 210.453 87.3125C210.016 87 209.578 86.7708 209.141 86.625C208.724 86.4583 208.286 86.3854 207.828 86.4062C207.391 86.4062 206.88 86.5104 206.297 86.7188ZM216.141 83.0312C216.557 83.0938 216.932 83.1458 217.266 83.1875C217.578 83.2083 217.859 83.2292 218.109 83.25C218.38 83.2708 218.641 83.2812 218.891 83.2812C219.12 83.2812 219.411 83.2708 219.766 83.25C220.057 83.2292 220.432 83.2083 220.891 83.1875C221.37 83.1458 221.932 83.0938 222.578 83.0312C222.536 83.1146 222.453 83.375 222.328 83.8125C222.203 84.2292 222.078 84.75 221.953 85.375C221.828 85.9792 221.714 86.6562 221.609 87.4062C221.526 88.1354 221.484 88.8646 221.484 89.5938C221.505 90.3021 221.599 90.9792 221.766 91.625C221.932 92.25 222.203 92.7604 222.578 93.1562C223.37 93.9688 224.068 94.4583 224.672 94.625C225.297 94.7917 225.839 94.7708 226.297 94.5625C226.755 94.3542 227.13 94.0417 227.422 93.625C227.714 93.2083 227.922 92.8229 228.047 92.4688C228.359 91.5104 228.547 90.5 228.609 89.4375C228.651 88.5208 228.578 87.5 228.391 86.375C228.203 85.25 227.755 84.1042 227.047 82.9375C227.589 82.9792 228.057 83.0104 228.453 83.0312C228.849 83.0521 229.193 83.0729 229.484 83.0938C229.818 83.1146 230.109 83.1354 230.359 83.1562C230.589 83.1771 230.859 83.1771 231.172 83.1562C231.443 83.1562 231.766 83.1458 232.141 83.125C232.536 83.0833 232.974 83.0417 233.453 83C233.536 85.0417 233.609 86.8646 233.672 88.4688C233.734 90.0521 233.776 91.4583 233.797 92.6875C233.839 93.8958 233.859 94.9479 233.859 95.8438C233.859 96.7188 233.859 97.4583 233.859 98.0625C233.839 99.5 233.776 100.448 233.672 100.906C233.505 101.552 233.203 102.198 232.766 102.844C232.349 103.49 231.818 104.062 231.172 104.562C230.526 105.083 229.776 105.479 228.922 105.75C228.089 106.042 227.172 106.146 226.172 106.062C225.193 105.979 224.411 105.844 223.828 105.656C223.266 105.49 222.818 105.292 222.484 105.062C222.172 104.833 221.943 104.594 221.797 104.344C221.672 104.094 221.578 103.833 221.516 103.562C221.453 103.312 221.391 103.073 221.328 102.844C221.266 102.615 221.141 102.417 220.953 102.25C220.724 102.062 220.484 101.875 220.234 101.688C220.005 101.521 219.755 101.354 219.484 101.188C219.234 101.021 218.984 100.885 218.734 100.781L225.391 100.406C225.203 100.656 225.068 100.885 224.984 101.094C224.901 101.302 224.849 101.479 224.828 101.625C224.807 101.812 224.818 101.969 224.859 102.094C224.943 102.344 225.089 102.615 225.297 102.906C225.526 103.219 225.818 103.458 226.172 103.625C226.526 103.812 226.943 103.875 227.422 103.812C227.922 103.75 228.484 103.49 229.109 103.031C229.63 102.635 230.068 102 230.422 101.125C230.714 100.375 230.943 99.3229 231.109 97.9688C231.276 96.6146 231.245 94.8333 231.016 92.625C230.641 93.9167 230.13 94.9062 229.484 95.5938C228.839 96.2812 228.193 96.7812 227.547 97.0938C226.797 97.4688 226.016 97.6667 225.203 97.6875C224.12 97.6458 223.193 97.5104 222.422 97.2812C221.651 97.0312 221.016 96.6979 220.516 96.2812C220.016 95.8646 219.62 95.375 219.328 94.8125C219.057 94.2292 218.859 93.5833 218.734 92.875C218.609 92.1667 218.547 91.4583 218.547 90.75C218.547 90.0208 218.547 89.3438 218.547 88.7188C218.568 88.0938 218.578 87.5312 218.578 87.0312C218.578 86.5104 218.526 86.0938 218.422 85.7812C218.297 85.4688 218.13 85.1562 217.922 84.8438C217.755 84.5729 217.526 84.2812 217.234 83.9688C216.922 83.6354 216.557 83.3229 216.141 83.0312ZM237.828 76.4688C238.224 76.5729 238.599 76.6562 238.953 76.7188C239.307 76.7604 239.62 76.8021 239.891 76.8438C240.203 76.8854 240.495 76.9167 240.766 76.9375C241.057 76.9583 241.401 76.9792 241.797 77C242.151 77.0208 242.578 77.0312 243.078 77.0312C243.578 77.0312 244.172 77.0312 244.859 77.0312C244.255 78.4688 243.766 79.6875 243.391 80.6875C243.016 81.6667 242.724 82.4792 242.516 83.125C242.286 83.875 242.12 84.4896 242.016 84.9688C241.932 85.4479 241.828 86.0312 241.703 86.7188C241.599 87.3229 241.453 88.0625 241.266 88.9375C241.078 89.8125 240.87 90.8542 240.641 92.0625L237.891 91.9375C238.057 90.8333 238.172 89.8958 238.234 89.125C238.297 88.3333 238.349 87.6771 238.391 87.1562C238.432 86.5521 238.453 86.0521 238.453 85.6562C238.453 85.2396 238.422 84.6146 238.359 83.7812C238.318 83.0938 238.255 82.1667 238.172 81C238.089 79.8125 237.974 78.3021 237.828 76.4688ZM241.266 94.4375C241.411 94.6667 241.495 94.9271 241.516 95.2188C241.557 95.4896 241.536 95.7708 241.453 96.0625C241.391 96.3333 241.255 96.5938 241.047 96.8438C240.859 97.0938 240.599 97.2917 240.266 97.4375C239.599 97.75 239.005 97.8333 238.484 97.6875C237.964 97.5208 237.578 97.25 237.328 96.875C237.182 96.6667 237.099 96.4375 237.078 96.1875C237.078 95.9167 237.13 95.6562 237.234 95.4062C237.339 95.1354 237.505 94.8854 237.734 94.6562C237.964 94.4271 238.255 94.2396 238.609 94.0938C239.297 93.8021 239.859 93.6979 240.297 93.7812C240.755 93.8646 241.078 94.0833 241.266 94.4375ZM247.203 76.4688C247.599 76.5729 247.974 76.6562 248.328 76.7188C248.682 76.7604 248.995 76.8021 249.266 76.8438C249.578 76.8854 249.87 76.9167 250.141 76.9375C250.432 76.9583 250.776 76.9792 251.172 77C251.526 77.0208 251.953 77.0312 252.453 77.0312C252.953 77.0312 253.547 77.0312 254.234 77.0312C253.63 78.4688 253.141 79.6875 252.766 80.6875C252.391 81.6667 252.099 82.4792 251.891 83.125C251.661 83.875 251.495 84.4896 251.391 84.9688C251.307 85.4479 251.203 86.0312 251.078 86.7188C250.974 87.3229 250.828 88.0625 250.641 88.9375C250.453 89.8125 250.245 90.8542 250.016 92.0625L247.266 91.9375C247.432 90.8333 247.547 89.8958 247.609 89.125C247.672 88.3333 247.724 87.6771 247.766 87.1562C247.807 86.5521 247.828 86.0521 247.828 85.6562C247.828 85.2396 247.797 84.6146 247.734 83.7812C247.693 83.0938 247.63 82.1667 247.547 81C247.464 79.8125 247.349 78.3021 247.203 76.4688ZM250.641 94.4375C250.786 94.6667 250.87 94.9271 250.891 95.2188C250.932 95.4896 250.911 95.7708 250.828 96.0625C250.766 96.3333 250.63 96.5938 250.422 96.8438C250.234 97.0938 249.974 97.2917 249.641 97.4375C248.974 97.75 248.38 97.8333 247.859 97.6875C247.339 97.5208 246.953 97.25 246.703 96.875C246.557 96.6667 246.474 96.4375 246.453 96.1875C246.453 95.9167 246.505 95.6562 246.609 95.4062C246.714 95.1354 246.88 94.8854 247.109 94.6562C247.339 94.4271 247.63 94.2396 247.984 94.0938C248.672 93.8021 249.234 93.6979 249.672 93.7812C250.13 93.8646 250.453 94.0833 250.641 94.4375ZM256.578 76.4688C256.974 76.5729 257.349 76.6562 257.703 76.7188C258.057 76.7604 258.37 76.8021 258.641 76.8438C258.953 76.8854 259.245 76.9167 259.516 76.9375C259.807 76.9583 260.151 76.9792 260.547 77C260.901 77.0208 261.328 77.0312 261.828 77.0312C262.328 77.0312 262.922 77.0312 263.609 77.0312C263.005 78.4688 262.516 79.6875 262.141 80.6875C261.766 81.6667 261.474 82.4792 261.266 83.125C261.036 83.875 260.87 84.4896 260.766 84.9688C260.682 85.4479 260.578 86.0312 260.453 86.7188C260.349 87.3229 260.203 88.0625 260.016 88.9375C259.828 89.8125 259.62 90.8542 259.391 92.0625L256.641 91.9375C256.807 90.8333 256.922 89.8958 256.984 89.125C257.047 88.3333 257.099 87.6771 257.141 87.1562C257.182 86.5521 257.203 86.0521 257.203 85.6562C257.203 85.2396 257.172 84.6146 257.109 83.7812C257.068 83.0938 257.005 82.1667 256.922 81C256.839 79.8125 256.724 78.3021 256.578 76.4688ZM260.016 94.4375C260.161 94.6667 260.245 94.9271 260.266 95.2188C260.307 95.4896 260.286 95.7708 260.203 96.0625C260.141 96.3333 260.005 96.5938 259.797 96.8438C259.609 97.0938 259.349 97.2917 259.016 97.4375C258.349 97.75 257.755 97.8333 257.234 97.6875C256.714 97.5208 256.328 97.25 256.078 96.875C255.932 96.6667 255.849 96.4375 255.828 96.1875C255.828 95.9167 255.88 95.6562 255.984 95.4062C256.089 95.1354 256.255 94.8854 256.484 94.6562C256.714 94.4271 257.005 94.2396 257.359 94.0938C258.047 93.8021 258.609 93.6979 259.047 93.7812C259.505 93.8646 259.828 94.0833 260.016 94.4375Z" fill="#FF4242"/>
</svg>
