<svg width="200" height="50" viewBox="0 0 200 50" fill="none" xmlns="http://www.w3.org/2000/svg">
<rect x="2.5" y="2.5" width="195" height="45" rx="17.5" fill="#4478FF" stroke="black" stroke-width="5"/>
<path d="M23.9648 17.5664C24.4206 17.5664 24.8307 17.6445 25.1953 17.8008C25.5729 17.944 25.918 18.1068 26.2305 18.2891C26.556 18.4714 26.862 18.6406 27.1484 18.7969C27.4349 18.9401 27.7279 19.0117 28.0273 19.0117C28.2617 18.9987 28.5286 18.9661 28.8281 18.9141C29.0885 18.862 29.388 18.7839 29.7266 18.6797C30.0781 18.5625 30.4688 18.3932 30.8984 18.1719C30.4688 18.5885 30.1172 18.9401 29.8438 19.2266C29.5833 19.5 29.3815 19.7279 29.2383 19.9102C29.069 20.1185 28.9453 20.2812 28.8672 20.3984C28.7891 20.5417 28.6719 20.7565 28.5156 21.043C28.3724 21.3034 28.1771 21.6549 27.9297 22.0977C27.6823 22.5273 27.3698 23.0938 26.9922 23.7969C26.9922 22.8984 26.901 22.2018 26.7188 21.707C26.5495 21.2122 26.3607 20.8346 26.1523 20.5742C25.9049 20.2747 25.625 20.0859 25.3125 20.0078C25.026 19.9688 24.7396 20.0208 24.4531 20.1641C24.1667 20.2943 23.8802 20.4896 23.5938 20.75C23.3203 21.0104 23.0534 21.3229 22.793 21.6875C22.5456 22.0391 22.3177 22.4102 22.1094 22.8008C21.9141 23.1914 21.7513 23.5885 21.6211 23.9922C21.4909 24.3828 21.4062 24.7474 21.3672 25.0859C21.3281 25.3854 21.3216 25.737 21.3477 26.1406C21.3737 26.5312 21.4323 26.9349 21.5234 27.3516C21.6146 27.7552 21.7318 28.1523 21.875 28.543C22.0182 28.9336 22.194 29.2852 22.4023 29.5977C22.6237 29.8971 22.8711 30.1445 23.1445 30.3398C23.418 30.5221 23.7305 30.6068 24.082 30.5938C24.4727 30.5677 24.8568 30.4505 25.2344 30.2422C25.5599 30.0729 25.8919 29.8125 26.2305 29.4609C26.569 29.0964 26.862 28.582 27.1094 27.918L30 28.4453C29.1667 29.4609 28.3529 30.2227 27.5586 30.7305C26.7773 31.2383 26.0742 31.5964 25.4492 31.8047C24.7201 32.0391 24.0299 32.1497 23.3789 32.1367C22.5586 32.0456 21.7904 31.7982 21.0742 31.3945C20.3581 30.9909 19.7396 30.5026 19.2188 29.9297C18.7109 29.3438 18.3138 28.7057 18.0273 28.0156C17.7409 27.3255 17.6172 26.6484 17.6562 25.9844C17.6823 25.5417 17.7734 25.0273 17.9297 24.4414C18.0859 23.8424 18.2943 23.2305 18.5547 22.6055C18.8281 21.9805 19.1536 21.3685 19.5312 20.7695C19.9089 20.1706 20.3255 19.6367 20.7812 19.168C21.237 18.6862 21.7318 18.3021 22.2656 18.0156C22.8125 17.7161 23.3789 17.5664 23.9648 17.5664ZM36.6211 17.2734C37.3242 17.2995 38.0339 17.4297 38.75 17.6641C39.4792 17.8854 40.1497 18.25 40.7617 18.7578C41.3737 19.2526 41.8945 19.8971 42.3242 20.6914C42.7539 21.4727 43.0208 22.4297 43.125 23.5625C43.2161 24.487 43.099 25.4049 42.7734 26.3164C42.4609 27.2148 42.0247 28.0417 41.4648 28.7969C40.9049 29.5521 40.2604 30.1966 39.5312 30.7305C38.8021 31.2513 38.0729 31.5964 37.3438 31.7656C36.901 31.8698 36.4128 31.8828 35.8789 31.8047C35.3581 31.7135 34.8242 31.5508 34.2773 31.3164C33.7435 31.069 33.2161 30.7565 32.6953 30.3789C32.1875 30.0013 31.7253 29.5716 31.3086 29.0898C30.8919 28.5951 30.5404 28.0612 30.2539 27.4883C29.9805 26.9154 29.8112 26.3164 29.7461 25.6914C29.681 25.1706 29.6745 24.5977 29.7266 23.9727C29.7917 23.3346 29.9154 22.7031 30.0977 22.0781C30.293 21.4401 30.5599 20.8281 30.8984 20.2422C31.25 19.6432 31.6927 19.1224 32.2266 18.6797C32.7604 18.224 33.3854 17.8724 34.1016 17.625C34.8307 17.3646 35.6706 17.2474 36.6211 17.2734ZM33.125 25.1836C32.9427 26.5768 33.0729 27.6966 33.5156 28.543C33.9714 29.3893 34.6549 29.9036 35.5664 30.0859C36.0091 30.1771 36.4323 30.0859 36.8359 29.8125C37.2526 29.526 37.6302 29.1159 37.9688 28.582C38.3073 28.0482 38.6003 27.4232 38.8477 26.707C39.0951 25.9909 39.2773 25.2422 39.3945 24.4609C39.5117 23.6797 39.5182 22.9766 39.4141 22.3516C39.3229 21.7135 39.1602 21.1732 38.9258 20.7305C38.6914 20.2747 38.4049 19.9232 38.0664 19.6758C37.7409 19.4284 37.4023 19.2917 37.0508 19.2656C36.4388 19.2266 35.9049 19.3893 35.4492 19.7539C34.9935 20.1055 34.6094 20.5677 34.2969 21.1406C33.9844 21.7135 33.7305 22.3581 33.5352 23.0742C33.3529 23.7904 33.2161 24.4935 33.125 25.1836ZM43.2617 18.1523C43.8477 18.2565 44.3294 18.3281 44.707 18.3672C45.0846 18.4062 45.3906 18.4388 45.625 18.4648C45.8984 18.4909 46.1133 18.4974 46.2695 18.4844H46.8555C47.0638 18.4844 47.3242 18.4844 47.6367 18.4844C47.9622 18.4714 48.3659 18.4648 48.8477 18.4648C49.1211 19.1029 49.3685 19.6888 49.5898 20.2227C49.8242 20.7565 50.0195 21.2122 50.1758 21.5898C50.3581 22.0456 50.5273 22.4557 50.6836 22.8203C50.8659 23.276 51.0612 23.7773 51.2695 24.3242C51.4779 24.8711 51.6667 25.3854 51.8359 25.8672C52.0182 26.349 52.168 26.7461 52.2852 27.0586C52.4023 27.3711 52.4609 27.5143 52.4609 27.4883C52.4609 27.4753 52.4674 27.3451 52.4805 27.0977C52.4935 26.8372 52.5065 26.5182 52.5195 26.1406C52.5326 25.75 52.5456 25.3268 52.5586 24.8711C52.5846 24.4023 52.5977 23.9531 52.5977 23.5234C52.6107 23.0807 52.6172 22.6771 52.6172 22.3125C52.6172 21.9479 52.6042 21.6745 52.5781 21.4922C52.5391 21.2708 52.4609 21.0169 52.3438 20.7305C52.2396 20.4831 52.0964 20.1901 51.9141 19.8516C51.7318 19.5 51.4779 19.1029 51.1523 18.6602C51.6862 18.6732 52.1224 18.6797 52.4609 18.6797C52.7995 18.6797 53.0729 18.6797 53.2812 18.6797C53.5156 18.6797 53.6979 18.6732 53.8281 18.6602C53.9974 18.6602 54.2057 18.6471 54.4531 18.6211C54.6745 18.5951 54.9479 18.5755 55.2734 18.5625C55.612 18.5365 56.0286 18.5039 56.5234 18.4648C56.237 18.7253 56.0091 18.9727 55.8398 19.207C55.6706 19.4414 55.5339 19.6497 55.4297 19.832C55.3125 20.0404 55.2344 20.2357 55.1953 20.418C55.1432 20.6523 55.0977 21.0365 55.0586 21.5703C55.0326 22.0911 55 22.6771 54.9609 23.3281C54.9349 23.9792 54.9089 24.6562 54.8828 25.3594C54.8568 26.0625 54.8307 26.707 54.8047 27.293C54.8047 27.7357 54.7917 28.2109 54.7656 28.7188C54.7396 29.1484 54.7135 29.6367 54.6875 30.1836C54.6615 30.7174 54.6289 31.2578 54.5898 31.8047L52.8516 31.8438C52.3438 30.9453 51.9141 30.1771 51.5625 29.5391C51.224 28.888 50.944 28.3542 50.7227 27.9375C50.4753 27.4557 50.2669 27.0521 50.0977 26.7266C49.9544 26.4141 49.7656 26.056 49.5312 25.6523C49.3359 25.3138 49.0885 24.8971 48.7891 24.4023C48.5026 23.9076 48.1576 23.3411 47.7539 22.7031C47.7148 23.6016 47.6953 24.3698 47.6953 25.0078C47.7083 25.6328 47.7279 26.1536 47.7539 26.5703C47.793 27.0521 47.8385 27.4557 47.8906 27.7812C47.9557 28.0938 48.0469 28.4453 48.1641 28.8359C48.2682 29.1745 48.3919 29.5716 48.5352 30.0273C48.6914 30.4831 48.8802 30.9974 49.1016 31.5703C48.3333 31.5312 47.7604 31.5117 47.3828 31.5117H46.7969C46.6146 31.5117 46.3672 31.5312 46.0547 31.5703C45.7943 31.5964 45.4362 31.6354 44.9805 31.6875C44.5378 31.7396 43.9844 31.8112 43.3203 31.9023C43.6328 31.5247 43.8802 31.1797 44.0625 30.8672C44.2578 30.5417 44.4076 30.2682 44.5117 30.0469C44.6419 29.7865 44.7331 29.5586 44.7852 29.3633C44.8242 29.1549 44.8503 28.7969 44.8633 28.2891C44.8763 27.7682 44.8763 27.1823 44.8633 26.5312C44.8633 25.8672 44.8503 25.1706 44.8242 24.4414C44.8112 23.7122 44.7917 23.0352 44.7656 22.4102C44.7396 21.7852 44.707 21.2513 44.668 20.8086C44.6419 20.3659 44.6224 20.0924 44.6094 19.9883C44.5703 19.819 44.4922 19.6367 44.375 19.4414C44.2708 19.2721 44.1341 19.0833 43.9648 18.875C43.7956 18.6536 43.5612 18.4128 43.2617 18.1523ZM56.1328 18.1523C56.7188 18.2565 57.2005 18.3281 57.5781 18.3672C57.9557 18.4062 58.2617 18.4388 58.4961 18.4648C58.7695 18.4909 58.9844 18.4974 59.1406 18.4844H59.7266C59.9349 18.4844 60.1953 18.4844 60.5078 18.4844C60.8333 18.4714 61.237 18.4648 61.7188 18.4648C61.9922 19.1029 62.2396 19.6888 62.4609 20.2227C62.6953 20.7565 62.8906 21.2122 63.0469 21.5898C63.2292 22.0456 63.3984 22.4557 63.5547 22.8203C63.737 23.276 63.9323 23.7773 64.1406 24.3242C64.349 24.8711 64.5378 25.3854 64.707 25.8672C64.8893 26.349 65.0391 26.7461 65.1562 27.0586C65.2734 27.3711 65.332 27.5143 65.332 27.4883C65.332 27.4753 65.3385 27.3451 65.3516 27.0977C65.3646 26.8372 65.3776 26.5182 65.3906 26.1406C65.4036 25.75 65.4167 25.3268 65.4297 24.8711C65.4557 24.4023 65.4688 23.9531 65.4688 23.5234C65.4818 23.0807 65.4883 22.6771 65.4883 22.3125C65.4883 21.9479 65.4753 21.6745 65.4492 21.4922C65.4102 21.2708 65.332 21.0169 65.2148 20.7305C65.1107 20.4831 64.9674 20.1901 64.7852 19.8516C64.6029 19.5 64.349 19.1029 64.0234 18.6602C64.5573 18.6732 64.9935 18.6797 65.332 18.6797C65.6706 18.6797 65.944 18.6797 66.1523 18.6797C66.3867 18.6797 66.569 18.6732 66.6992 18.6602C66.8685 18.6602 67.0768 18.6471 67.3242 18.6211C67.5456 18.5951 67.819 18.5755 68.1445 18.5625C68.4831 18.5365 68.8997 18.5039 69.3945 18.4648C69.1081 18.7253 68.8802 18.9727 68.7109 19.207C68.5417 19.4414 68.4049 19.6497 68.3008 19.832C68.1836 20.0404 68.1055 20.2357 68.0664 20.418C68.0143 20.6523 67.9688 21.0365 67.9297 21.5703C67.9036 22.0911 67.8711 22.6771 67.832 23.3281C67.806 23.9792 67.7799 24.6562 67.7539 25.3594C67.7279 26.0625 67.7018 26.707 67.6758 27.293C67.6758 27.7357 67.6628 28.2109 67.6367 28.7188C67.6107 29.1484 67.5846 29.6367 67.5586 30.1836C67.5326 30.7174 67.5 31.2578 67.4609 31.8047L65.7227 31.8438C65.2148 30.9453 64.7852 30.1771 64.4336 29.5391C64.0951 28.888 63.8151 28.3542 63.5938 27.9375C63.3464 27.4557 63.138 27.0521 62.9688 26.7266C62.8255 26.4141 62.6367 26.056 62.4023 25.6523C62.207 25.3138 61.9596 24.8971 61.6602 24.4023C61.3737 23.9076 61.0286 23.3411 60.625 22.7031C60.5859 23.6016 60.5664 24.3698 60.5664 25.0078C60.5794 25.6328 60.599 26.1536 60.625 26.5703C60.6641 27.0521 60.7096 27.4557 60.7617 27.7812C60.8268 28.0938 60.918 28.4453 61.0352 28.8359C61.1393 29.1745 61.263 29.5716 61.4062 30.0273C61.5625 30.4831 61.7513 30.9974 61.9727 31.5703C61.2044 31.5312 60.6315 31.5117 60.2539 31.5117H59.668C59.4857 31.5117 59.2383 31.5312 58.9258 31.5703C58.6654 31.5964 58.3073 31.6354 57.8516 31.6875C57.4089 31.7396 56.8555 31.8112 56.1914 31.9023C56.5039 31.5247 56.7513 31.1797 56.9336 30.8672C57.1289 30.5417 57.2786 30.2682 57.3828 30.0469C57.513 29.7865 57.6042 29.5586 57.6562 29.3633C57.6953 29.1549 57.7214 28.7969 57.7344 28.2891C57.7474 27.7682 57.7474 27.1823 57.7344 26.5312C57.7344 25.8672 57.7214 25.1706 57.6953 24.4414C57.6823 23.7122 57.6628 23.0352 57.6367 22.4102C57.6107 21.7852 57.5781 21.2513 57.5391 20.8086C57.513 20.3659 57.4935 20.0924 57.4805 19.9883C57.4414 19.819 57.3633 19.6367 57.2461 19.4414C57.1419 19.2721 57.0052 19.0833 56.8359 18.875C56.6667 18.6536 56.4323 18.4128 56.1328 18.1523ZM68.3008 18.6602C69.2122 18.6862 69.9674 18.7057 70.5664 18.7188C71.1784 18.7188 71.6732 18.7188 72.0508 18.7188H73.0859H78.9062C78.9323 18.9792 78.9518 19.2331 78.9648 19.4805C78.9909 19.7148 79.0039 19.9232 79.0039 20.1055C79.0039 20.3268 78.9974 20.5286 78.9844 20.7109C78.9714 20.8932 78.9518 21.0885 78.9258 21.2969C78.8997 21.4792 78.8737 21.6745 78.8477 21.8828C78.8216 22.0911 78.776 22.306 78.7109 22.5273C78.5286 21.8242 78.2812 21.2904 77.9688 20.9258C77.6693 20.5612 77.3633 20.2943 77.0508 20.125C76.6862 19.9297 76.3021 19.8255 75.8984 19.8125C75.3646 19.8385 74.9479 19.8841 74.6484 19.9492C74.349 20.0143 74.1146 20.1055 73.9453 20.2227C73.776 20.3398 73.6458 20.4766 73.5547 20.6328C73.4766 20.776 73.3919 20.9388 73.3008 21.1211C73.2227 21.2773 73.151 21.5182 73.0859 21.8438C73.0208 22.1172 72.9557 22.4883 72.8906 22.957C72.8385 23.4258 72.7799 24.0312 72.7148 24.7734C73.0664 24.6693 73.3464 24.5716 73.5547 24.4805C73.776 24.3893 73.9518 24.3112 74.082 24.2461C74.2253 24.168 74.3294 24.0964 74.3945 24.0312C74.4466 23.9531 74.5247 23.8099 74.6289 23.6016C74.707 23.4193 74.8112 23.1719 74.9414 22.8594C75.0846 22.5469 75.2539 22.1172 75.4492 21.5703C75.4753 22.1693 75.4883 22.6706 75.4883 23.0742C75.4883 23.4648 75.4948 23.7839 75.5078 24.0312C75.5078 24.3177 75.5143 24.5456 75.5273 24.7148V25.457C75.5273 25.7305 75.5273 26.1016 75.5273 26.5703C75.5404 27.026 75.5599 27.6055 75.5859 28.3086C75.4297 27.8268 75.2865 27.4492 75.1562 27.1758C75.0391 26.8893 74.9349 26.6745 74.8438 26.5312C74.7396 26.362 74.6484 26.2448 74.5703 26.1797C74.4792 26.1536 74.3555 26.1276 74.1992 26.1016C74.056 26.0885 73.8737 26.082 73.6523 26.082C73.444 26.082 73.1771 26.1146 72.8516 26.1797C72.8125 26.8958 72.806 27.4753 72.832 27.918C72.8711 28.3477 72.9232 28.6797 72.9883 28.9141C73.0534 29.1875 73.1315 29.3828 73.2227 29.5C73.3398 29.6172 73.5742 29.7148 73.9258 29.793C74.2773 29.8581 74.6745 29.8841 75.1172 29.8711C75.5729 29.8451 76.0352 29.7669 76.5039 29.6367C76.9727 29.5065 77.3893 29.2917 77.7539 28.9922C78.0273 28.7448 78.3203 28.4323 78.6328 28.0547C78.8932 27.7292 79.1797 27.319 79.4922 26.8242C79.8177 26.3294 80.1367 25.7305 80.4492 25.0273C80.3971 25.6133 80.3581 26.1016 80.332 26.4922C80.319 26.8698 80.2995 27.1758 80.2734 27.4102C80.2474 27.6836 80.2279 27.8919 80.2148 28.0352C80.2148 28.1914 80.1953 28.4128 80.1562 28.6992C80.1302 28.9466 80.0846 29.2852 80.0195 29.7148C79.9674 30.1315 79.8958 30.6654 79.8047 31.3164C79.1927 31.3294 78.6133 31.3424 78.0664 31.3555C77.5195 31.3555 77.0378 31.362 76.6211 31.375C76.1263 31.388 75.6706 31.401 75.2539 31.4141C74.8242 31.4141 74.349 31.4336 73.8281 31.4727C73.3724 31.4987 72.832 31.5378 72.207 31.5898C71.5951 31.6419 70.918 31.7135 70.1758 31.8047C70.2409 30.9193 70.2865 30.0859 70.3125 29.3047C70.3516 28.5104 70.3776 27.8138 70.3906 27.2148C70.4036 26.5117 70.4036 25.8607 70.3906 25.2617C70.4557 23.7643 70.4297 22.5534 70.3125 21.6289C70.1953 20.7044 70.0586 20.112 69.9023 19.8516C69.8242 19.7604 69.7135 19.6497 69.5703 19.5195C69.4531 19.4154 69.2904 19.2917 69.082 19.1484C68.8737 19.0052 68.6133 18.8424 68.3008 18.6602ZM86.9727 17.5664C87.4284 17.5664 87.8385 17.6445 88.2031 17.8008C88.5807 17.944 88.9258 18.1068 89.2383 18.2891C89.5638 18.4714 89.8698 18.6406 90.1562 18.7969C90.4427 18.9401 90.7357 19.0117 91.0352 19.0117C91.2695 18.9987 91.5365 18.9661 91.8359 18.9141C92.0964 18.862 92.3958 18.7839 92.7344 18.6797C93.0859 18.5625 93.4766 18.3932 93.9062 18.1719C93.4766 18.5885 93.125 18.9401 92.8516 19.2266C92.5911 19.5 92.3893 19.7279 92.2461 19.9102C92.0768 20.1185 91.9531 20.2812 91.875 20.3984C91.7969 20.5417 91.6797 20.7565 91.5234 21.043C91.3802 21.3034 91.1849 21.6549 90.9375 22.0977C90.6901 22.5273 90.3776 23.0938 90 23.7969C90 22.8984 89.9089 22.2018 89.7266 21.707C89.5573 21.2122 89.3685 20.8346 89.1602 20.5742C88.9128 20.2747 88.6328 20.0859 88.3203 20.0078C88.0339 19.9688 87.7474 20.0208 87.4609 20.1641C87.1745 20.2943 86.888 20.4896 86.6016 20.75C86.3281 21.0104 86.0612 21.3229 85.8008 21.6875C85.5534 22.0391 85.3255 22.4102 85.1172 22.8008C84.9219 23.1914 84.7591 23.5885 84.6289 23.9922C84.4987 24.3828 84.4141 24.7474 84.375 25.0859C84.3359 25.3854 84.3294 25.737 84.3555 26.1406C84.3815 26.5312 84.4401 26.9349 84.5312 27.3516C84.6224 27.7552 84.7396 28.1523 84.8828 28.543C85.026 28.9336 85.2018 29.2852 85.4102 29.5977C85.6315 29.8971 85.8789 30.1445 86.1523 30.3398C86.4258 30.5221 86.7383 30.6068 87.0898 30.5938C87.4805 30.5677 87.8646 30.4505 88.2422 30.2422C88.5677 30.0729 88.8997 29.8125 89.2383 29.4609C89.5768 29.0964 89.8698 28.582 90.1172 27.918L93.0078 28.4453C92.1745 29.4609 91.3607 30.2227 90.5664 30.7305C89.7852 31.2383 89.082 31.5964 88.457 31.8047C87.7279 32.0391 87.0378 32.1497 86.3867 32.1367C85.5664 32.0456 84.7982 31.7982 84.082 31.3945C83.3659 30.9909 82.7474 30.5026 82.2266 29.9297C81.7188 29.3438 81.3216 28.7057 81.0352 28.0156C80.7487 27.3255 80.625 26.6484 80.6641 25.9844C80.6901 25.5417 80.7812 25.0273 80.9375 24.4414C81.0938 23.8424 81.3021 23.2305 81.5625 22.6055C81.8359 21.9805 82.1615 21.3685 82.5391 20.7695C82.9167 20.1706 83.3333 19.6367 83.7891 19.168C84.2448 18.6862 84.7396 18.3021 85.2734 18.0156C85.8203 17.7161 86.3867 17.5664 86.9727 17.5664ZM92.5195 17.7422C93.3919 17.8464 94.1471 17.9245 94.7852 17.9766C95.4232 18.0156 95.9505 18.0482 96.3672 18.0742C96.849 18.1003 97.2526 18.1068 97.5781 18.0938C97.9167 18.0807 98.3789 18.0482 98.9648 17.9961C99.4596 17.957 100.111 17.9049 100.918 17.8398C101.725 17.7617 102.734 17.6576 103.945 17.5273C103.958 17.8268 103.965 18.1198 103.965 18.4062C103.978 18.6797 103.991 18.9206 104.004 19.1289C104.017 19.3763 104.023 19.6042 104.023 19.8125C104.023 20.0339 104.01 20.3138 103.984 20.6523C103.958 20.9388 103.913 21.3034 103.848 21.7461C103.796 22.1758 103.711 22.6901 103.594 23.2891C103.411 22.5859 103.236 22.0195 103.066 21.5898C102.897 21.1471 102.741 20.7956 102.598 20.5352C102.441 20.2357 102.285 20.0078 102.129 19.8516C101.96 19.7344 101.758 19.6367 101.523 19.5586C101.315 19.4935 101.048 19.4414 100.723 19.4023C100.41 19.3633 100.039 19.3698 99.6094 19.4219C99.5443 21.1406 99.4987 22.5339 99.4727 23.6016C99.4466 24.6693 99.4271 25.5026 99.4141 26.1016C99.401 26.8177 99.3945 27.332 99.3945 27.6445C99.4076 28.0872 99.4792 28.5234 99.6094 28.9531C99.7135 29.3177 99.8828 29.6953 100.117 30.0859C100.352 30.4766 100.69 30.8216 101.133 31.1211H98.75C98.5286 31.1211 98.2552 31.1341 97.9297 31.1602C97.6562 31.1862 97.3047 31.2122 96.875 31.2383C96.4583 31.2643 95.9701 31.3099 95.4102 31.375C95.6055 31.0365 95.7617 30.7305 95.8789 30.457C95.9961 30.1836 96.0872 29.9492 96.1523 29.7539C96.2305 29.5195 96.2891 29.3112 96.3281 29.1289C96.3411 28.8685 96.3737 28.3411 96.4258 27.5469C96.4388 27.2214 96.4518 26.8177 96.4648 26.3359C96.4909 25.8542 96.5169 25.2812 96.543 24.6172C96.582 23.9531 96.6146 23.1914 96.6406 22.332C96.6797 21.4596 96.7188 20.4766 96.7578 19.3828C96.5234 19.3177 96.3021 19.3242 96.0938 19.4023C95.8854 19.4674 95.7031 19.5521 95.5469 19.6562C95.3646 19.7865 95.1888 19.9427 95.0195 20.125C94.8503 20.3464 94.6615 20.6328 94.4531 20.9844C94.2708 21.2839 94.0625 21.681 93.8281 22.1758C93.5938 22.6576 93.3268 23.2565 93.0273 23.9727C92.9622 23.2174 92.9167 22.599 92.8906 22.1172C92.8646 21.6224 92.8451 21.2383 92.832 20.9648C92.819 20.6393 92.8125 20.3984 92.8125 20.2422C92.8125 20.099 92.7995 19.9102 92.7734 19.6758C92.7474 19.4805 92.7148 19.2266 92.6758 18.9141C92.6367 18.5885 92.5846 18.1979 92.5195 17.7422ZM108.438 18.2695C108.867 18.3216 109.258 18.3607 109.609 18.3867C109.948 18.4128 110.241 18.4388 110.488 18.4648C110.775 18.4909 111.029 18.5104 111.25 18.5234C111.484 18.5234 111.784 18.5169 112.148 18.5039C112.461 18.4909 112.858 18.4714 113.34 18.4453C113.822 18.4193 114.414 18.3737 115.117 18.3086C114.779 18.5039 114.499 18.6992 114.277 18.8945C114.069 19.0898 113.906 19.2656 113.789 19.4219C113.646 19.6042 113.542 19.7865 113.477 19.9688C113.438 20.2161 113.451 20.6979 113.516 21.4141C113.542 21.7135 113.581 22.0846 113.633 22.5273C113.698 22.957 113.776 23.4714 113.867 24.0703C113.971 24.6562 114.095 25.3333 114.238 26.1016C114.395 26.8698 114.57 27.7422 114.766 28.7188C115.026 27.9766 115.241 27.319 115.41 26.7461C115.579 26.1602 115.723 25.6589 115.84 25.2422C115.97 24.7734 116.081 24.3568 116.172 23.9922C116.263 23.6146 116.374 23.1263 116.504 22.5273C116.608 22.0195 116.745 21.362 116.914 20.5547C117.083 19.7474 117.292 18.7513 117.539 17.5664L118.242 17.6641C118.307 18.5885 118.372 19.4023 118.438 20.1055C118.516 20.8086 118.581 21.4076 118.633 21.9023C118.685 22.4753 118.737 22.9701 118.789 23.3867C118.841 23.7643 118.919 24.2005 119.023 24.6953C119.115 25.112 119.232 25.6263 119.375 26.2383C119.518 26.8372 119.707 27.5143 119.941 28.2695C120.176 27.3451 120.384 26.5182 120.566 25.7891C120.762 25.0599 120.924 24.4154 121.055 23.8555C121.198 23.2956 121.315 22.8138 121.406 22.4102C121.51 22.0065 121.595 21.668 121.66 21.3945C121.803 20.7435 121.888 20.3073 121.914 20.0859C121.901 19.8385 121.842 19.5977 121.738 19.3633C121.647 19.1549 121.504 18.9271 121.309 18.6797C121.113 18.4323 120.827 18.1914 120.449 17.957C121.243 17.9831 121.888 18.0026 122.383 18.0156C122.891 18.0156 123.294 18.0156 123.594 18.0156H124.375H125.078C125.339 18.0156 125.677 18.0156 126.094 18.0156C126.523 18.0026 127.07 17.9831 127.734 17.957C127.161 18.2565 126.699 18.5299 126.348 18.7773C125.996 19.0247 125.723 19.2331 125.527 19.4023C125.293 19.6107 125.124 19.7865 125.02 19.9297C124.915 20.1901 124.746 20.776 124.512 21.6875C124.408 22.0781 124.29 22.5664 124.16 23.1523C124.03 23.7253 123.874 24.4154 123.691 25.2227C123.522 26.0299 123.327 26.974 123.105 28.0547C122.884 29.1224 122.637 30.3464 122.363 31.7266L118.984 31.375L117.539 25.3008C117.318 26.4076 117.142 27.306 117.012 27.9961C116.882 28.6732 116.784 29.2005 116.719 29.5781C116.641 30.0339 116.595 30.3659 116.582 30.5742C116.569 30.7565 116.556 30.9323 116.543 31.1016C116.53 31.2448 116.51 31.401 116.484 31.5703C116.471 31.7396 116.452 31.8958 116.426 32.0391H112.969C112.63 30.5547 112.324 29.2461 112.051 28.1133C111.79 26.9674 111.556 25.9648 111.348 25.1055C111.139 24.2461 110.957 23.5169 110.801 22.918C110.658 22.319 110.527 21.8177 110.41 21.4141C110.15 20.4766 109.961 19.8971 109.844 19.6758C109.753 19.5716 109.635 19.4479 109.492 19.3047C109.375 19.1875 109.232 19.0443 109.062 18.875C108.88 18.6927 108.672 18.4909 108.438 18.2695ZM128.496 18.7773C129.147 18.8164 129.694 18.849 130.137 18.875C130.592 18.888 130.97 18.901 131.27 18.9141C131.608 18.9271 131.895 18.9271 132.129 18.9141C132.363 18.901 132.682 18.8685 133.086 18.8164C133.424 18.7773 133.874 18.7188 134.434 18.6406C135.007 18.5495 135.716 18.4323 136.562 18.2891C136.263 18.5885 136.029 18.862 135.859 19.1094C135.703 19.3438 135.579 19.5456 135.488 19.7148C135.384 19.9232 135.312 20.099 135.273 20.2422C135.247 20.3724 135.273 20.6979 135.352 21.2188C135.43 21.7396 135.54 22.3581 135.684 23.0742C135.827 23.7773 135.983 24.5326 136.152 25.3398C136.322 26.1341 136.491 26.8828 136.66 27.5859C136.829 28.276 136.979 28.8685 137.109 29.3633C137.253 29.8451 137.357 30.1315 137.422 30.2227C137.617 30.4961 137.741 30.6784 137.793 30.7695C137.845 30.8477 137.936 30.9193 138.066 30.9844C138.118 31.0104 138.203 31.0495 138.32 31.1016C138.424 31.1536 138.561 31.2188 138.73 31.2969C138.913 31.375 139.141 31.4661 139.414 31.5703C138.906 31.5964 138.47 31.6159 138.105 31.6289C137.741 31.6289 137.441 31.6354 137.207 31.6484C136.934 31.6615 136.699 31.6745 136.504 31.6875C136.309 31.6875 136.074 31.7005 135.801 31.7266C135.566 31.7526 135.26 31.7786 134.883 31.8047C134.518 31.8307 134.089 31.8568 133.594 31.8828C133.854 31.7005 134.062 31.5378 134.219 31.3945C134.388 31.2383 134.518 31.1081 134.609 31.0039C134.714 30.8737 134.785 30.7565 134.824 30.6523C134.85 30.5352 134.87 30.3594 134.883 30.125C134.896 29.9167 134.896 29.6432 134.883 29.3047C134.87 28.9531 134.837 28.4974 134.785 27.9375L129.648 28.4648C129.518 28.6862 129.421 28.8815 129.355 29.0508C129.29 29.207 129.245 29.3438 129.219 29.4609C129.18 29.6042 129.167 29.7214 129.18 29.8125C129.206 29.9167 129.251 30.0404 129.316 30.1836C129.382 30.3138 129.473 30.4701 129.59 30.6523C129.72 30.8216 129.909 31.0234 130.156 31.2578C129.831 31.2448 129.499 31.2383 129.16 31.2383C128.822 31.2383 128.509 31.2448 128.223 31.2578C127.884 31.2708 127.552 31.2839 127.227 31.2969C126.901 31.3099 126.53 31.3294 126.113 31.3555C125.762 31.3815 125.352 31.4141 124.883 31.4531C124.401 31.4792 123.887 31.5182 123.34 31.5703C123.678 31.4141 123.965 31.2578 124.199 31.1016C124.434 30.9323 124.629 30.776 124.785 30.6328C124.967 30.4766 125.124 30.3268 125.254 30.1836C125.345 30.0534 125.527 29.7539 125.801 29.2852C126.074 28.8034 126.38 28.237 126.719 27.5859C127.07 26.9349 127.435 26.2383 127.812 25.4961C128.203 24.7539 128.555 24.0573 128.867 23.4062C129.18 22.7422 129.434 22.1693 129.629 21.6875C129.824 21.2057 129.922 20.8932 129.922 20.75C129.896 20.5807 129.831 20.3919 129.727 20.1836C129.635 20.0013 129.492 19.793 129.297 19.5586C129.115 19.3242 128.848 19.0638 128.496 18.7773ZM134.551 26.4922C134.473 26.0365 134.401 25.6458 134.336 25.3203C134.271 24.9818 134.219 24.7018 134.18 24.4805C134.128 24.2201 134.089 23.9922 134.062 23.7969C134.023 23.6146 133.978 23.3802 133.926 23.0938C133.874 22.8464 133.809 22.5404 133.73 22.1758C133.665 21.7982 133.581 21.349 133.477 20.8281C132.734 22.3125 132.155 23.4648 131.738 24.2852C131.335 25.0924 131.042 25.6849 130.859 26.0625C130.638 26.5052 130.514 26.7656 130.488 26.8438L134.551 26.4922ZM138.789 17.8398C139.167 17.9049 139.499 17.9505 139.785 17.9766C140.085 18.0026 140.332 18.0221 140.527 18.0352C140.762 18.0482 140.964 18.0547 141.133 18.0547C141.302 18.0547 141.543 18.0417 141.855 18.0156C142.116 17.9896 142.454 17.957 142.871 17.918C143.301 17.8789 143.828 17.8138 144.453 17.7227C144.271 17.7747 144.102 17.9245 143.945 18.1719C143.802 18.4062 143.672 18.6602 143.555 18.9336C143.411 19.2591 143.288 19.6172 143.184 20.0078C143.092 20.3594 142.975 20.8411 142.832 21.4531C142.702 22.0651 142.572 22.7292 142.441 23.4453C142.324 24.1615 142.233 24.8906 142.168 25.6328C142.103 26.362 142.09 27.0326 142.129 27.6445C142.181 28.2565 142.305 28.7643 142.5 29.168C142.695 29.5586 142.995 29.7669 143.398 29.793C144.01 29.8451 144.518 29.8516 144.922 29.8125C145.339 29.7604 145.677 29.6888 145.938 29.5977C146.198 29.5065 146.4 29.4023 146.543 29.2852C146.686 29.1549 146.797 29.0312 146.875 28.9141C147.083 28.6146 147.298 28.2305 147.52 27.7617C147.741 27.293 147.936 26.8438 148.105 26.4141C148.288 25.9844 148.438 25.6198 148.555 25.3203C148.672 25.0208 148.73 24.8776 148.73 24.8906C148.73 24.9167 148.724 25.0664 148.711 25.3398C148.711 25.6003 148.704 25.9193 148.691 26.2969C148.691 26.6615 148.685 27.0456 148.672 27.4492C148.672 27.8529 148.665 28.1979 148.652 28.4844C148.639 28.7188 148.626 28.9792 148.613 29.2656C148.6 29.513 148.587 29.806 148.574 30.1445C148.574 30.4831 148.561 30.8542 148.535 31.2578C147.988 31.2188 147.467 31.1927 146.973 31.1797C146.478 31.1667 146.042 31.1602 145.664 31.1602C145.221 31.1602 144.811 31.1667 144.434 31.1797C144.03 31.1927 143.561 31.2122 143.027 31.2383C142.572 31.2643 142.005 31.2969 141.328 31.3359C140.651 31.362 139.87 31.401 138.984 31.4531C139.089 31.2708 139.173 31.1016 139.238 30.9453C139.316 30.7891 139.375 30.6589 139.414 30.5547C139.466 30.4245 139.499 30.3138 139.512 30.2227C139.59 29.806 139.655 29.2786 139.707 28.6406C139.759 27.9896 139.798 27.2995 139.824 26.5703C139.863 25.8411 139.883 25.099 139.883 24.3438C139.896 23.5755 139.896 22.8659 139.883 22.2148C139.87 21.5638 139.844 20.9974 139.805 20.5156C139.779 20.0339 139.74 19.7018 139.688 19.5195C139.622 19.3112 139.544 19.1029 139.453 18.8945C139.375 18.7122 139.277 18.5299 139.16 18.3477C139.056 18.1523 138.932 17.9831 138.789 17.8398ZM149.727 17.8398C150.104 17.9049 150.436 17.9505 150.723 17.9766C151.022 18.0026 151.27 18.0221 151.465 18.0352C151.699 18.0482 151.901 18.0547 152.07 18.0547C152.24 18.0547 152.48 18.0417 152.793 18.0156C153.053 17.9896 153.392 17.957 153.809 17.918C154.238 17.8789 154.766 17.8138 155.391 17.7227C155.208 17.7747 155.039 17.9245 154.883 18.1719C154.74 18.4062 154.609 18.6602 154.492 18.9336C154.349 19.2591 154.225 19.6172 154.121 20.0078C154.03 20.3594 153.913 20.8411 153.77 21.4531C153.639 22.0651 153.509 22.7292 153.379 23.4453C153.262 24.1615 153.171 24.8906 153.105 25.6328C153.04 26.362 153.027 27.0326 153.066 27.6445C153.118 28.2565 153.242 28.7643 153.438 29.168C153.633 29.5586 153.932 29.7669 154.336 29.793C154.948 29.8451 155.456 29.8516 155.859 29.8125C156.276 29.7604 156.615 29.6888 156.875 29.5977C157.135 29.5065 157.337 29.4023 157.48 29.2852C157.624 29.1549 157.734 29.0312 157.812 28.9141C158.021 28.6146 158.236 28.2305 158.457 27.7617C158.678 27.293 158.874 26.8438 159.043 26.4141C159.225 25.9844 159.375 25.6198 159.492 25.3203C159.609 25.0208 159.668 24.8776 159.668 24.8906C159.668 24.9167 159.661 25.0664 159.648 25.3398C159.648 25.6003 159.642 25.9193 159.629 26.2969C159.629 26.6615 159.622 27.0456 159.609 27.4492C159.609 27.8529 159.603 28.1979 159.59 28.4844C159.577 28.7188 159.564 28.9792 159.551 29.2656C159.538 29.513 159.525 29.806 159.512 30.1445C159.512 30.4831 159.499 30.8542 159.473 31.2578C158.926 31.2188 158.405 31.1927 157.91 31.1797C157.415 31.1667 156.979 31.1602 156.602 31.1602C156.159 31.1602 155.749 31.1667 155.371 31.1797C154.967 31.1927 154.499 31.2122 153.965 31.2383C153.509 31.2643 152.943 31.2969 152.266 31.3359C151.589 31.362 150.807 31.401 149.922 31.4531C150.026 31.2708 150.111 31.1016 150.176 30.9453C150.254 30.7891 150.312 30.6589 150.352 30.5547C150.404 30.4245 150.436 30.3138 150.449 30.2227C150.527 29.806 150.592 29.2786 150.645 28.6406C150.697 27.9896 150.736 27.2995 150.762 26.5703C150.801 25.8411 150.82 25.099 150.82 24.3438C150.833 23.5755 150.833 22.8659 150.82 22.2148C150.807 21.5638 150.781 20.9974 150.742 20.5156C150.716 20.0339 150.677 19.7018 150.625 19.5195C150.56 19.3112 150.482 19.1029 150.391 18.8945C150.312 18.7122 150.215 18.5299 150.098 18.3477C149.993 18.1523 149.87 17.9831 149.727 17.8398ZM159.277 18.6602C160.189 18.6862 160.944 18.7057 161.543 18.7188C162.155 18.7188 162.65 18.7188 163.027 18.7188H164.062H169.883C169.909 18.9792 169.928 19.2331 169.941 19.4805C169.967 19.7148 169.98 19.9232 169.98 20.1055C169.98 20.3268 169.974 20.5286 169.961 20.7109C169.948 20.8932 169.928 21.0885 169.902 21.2969C169.876 21.4792 169.85 21.6745 169.824 21.8828C169.798 22.0911 169.753 22.306 169.688 22.5273C169.505 21.8242 169.258 21.2904 168.945 20.9258C168.646 20.5612 168.34 20.2943 168.027 20.125C167.663 19.9297 167.279 19.8255 166.875 19.8125C166.341 19.8385 165.924 19.8841 165.625 19.9492C165.326 20.0143 165.091 20.1055 164.922 20.2227C164.753 20.3398 164.622 20.4766 164.531 20.6328C164.453 20.776 164.368 20.9388 164.277 21.1211C164.199 21.2773 164.128 21.5182 164.062 21.8438C163.997 22.1172 163.932 22.4883 163.867 22.957C163.815 23.4258 163.757 24.0312 163.691 24.7734C164.043 24.6693 164.323 24.5716 164.531 24.4805C164.753 24.3893 164.928 24.3112 165.059 24.2461C165.202 24.168 165.306 24.0964 165.371 24.0312C165.423 23.9531 165.501 23.8099 165.605 23.6016C165.684 23.4193 165.788 23.1719 165.918 22.8594C166.061 22.5469 166.23 22.1172 166.426 21.5703C166.452 22.1693 166.465 22.6706 166.465 23.0742C166.465 23.4648 166.471 23.7839 166.484 24.0312C166.484 24.3177 166.491 24.5456 166.504 24.7148V25.457C166.504 25.7305 166.504 26.1016 166.504 26.5703C166.517 27.026 166.536 27.6055 166.562 28.3086C166.406 27.8268 166.263 27.4492 166.133 27.1758C166.016 26.8893 165.911 26.6745 165.82 26.5312C165.716 26.362 165.625 26.2448 165.547 26.1797C165.456 26.1536 165.332 26.1276 165.176 26.1016C165.033 26.0885 164.85 26.082 164.629 26.082C164.421 26.082 164.154 26.1146 163.828 26.1797C163.789 26.8958 163.783 27.4753 163.809 27.918C163.848 28.3477 163.9 28.6797 163.965 28.9141C164.03 29.1875 164.108 29.3828 164.199 29.5C164.316 29.6172 164.551 29.7148 164.902 29.793C165.254 29.8581 165.651 29.8841 166.094 29.8711C166.549 29.8451 167.012 29.7669 167.48 29.6367C167.949 29.5065 168.366 29.2917 168.73 28.9922C169.004 28.7448 169.297 28.4323 169.609 28.0547C169.87 27.7292 170.156 27.319 170.469 26.8242C170.794 26.3294 171.113 25.7305 171.426 25.0273C171.374 25.6133 171.335 26.1016 171.309 26.4922C171.296 26.8698 171.276 27.1758 171.25 27.4102C171.224 27.6836 171.204 27.8919 171.191 28.0352C171.191 28.1914 171.172 28.4128 171.133 28.6992C171.107 28.9466 171.061 29.2852 170.996 29.7148C170.944 30.1315 170.872 30.6654 170.781 31.3164C170.169 31.3294 169.59 31.3424 169.043 31.3555C168.496 31.3555 168.014 31.362 167.598 31.375C167.103 31.388 166.647 31.401 166.23 31.4141C165.801 31.4141 165.326 31.4336 164.805 31.4727C164.349 31.4987 163.809 31.5378 163.184 31.5898C162.572 31.6419 161.895 31.7135 161.152 31.8047C161.217 30.9193 161.263 30.0859 161.289 29.3047C161.328 28.5104 161.354 27.8138 161.367 27.2148C161.38 26.5117 161.38 25.8607 161.367 25.2617C161.432 23.7643 161.406 22.5534 161.289 21.6289C161.172 20.7044 161.035 20.112 160.879 19.8516C160.801 19.7604 160.69 19.6497 160.547 19.5195C160.43 19.4154 160.267 19.2917 160.059 19.1484C159.85 19.0052 159.59 18.8424 159.277 18.6602ZM171.035 17.7422C171.908 17.8464 172.663 17.9245 173.301 17.9766C173.939 18.0156 174.466 18.0482 174.883 18.0742C175.365 18.1003 175.768 18.1068 176.094 18.0938C176.432 18.0807 176.895 18.0482 177.48 17.9961C177.975 17.957 178.626 17.9049 179.434 17.8398C180.241 17.7617 181.25 17.6576 182.461 17.5273C182.474 17.8268 182.48 18.1198 182.48 18.4062C182.493 18.6797 182.507 18.9206 182.52 19.1289C182.533 19.3763 182.539 19.6042 182.539 19.8125C182.539 20.0339 182.526 20.3138 182.5 20.6523C182.474 20.9388 182.428 21.3034 182.363 21.7461C182.311 22.1758 182.227 22.6901 182.109 23.2891C181.927 22.5859 181.751 22.0195 181.582 21.5898C181.413 21.1471 181.257 20.7956 181.113 20.5352C180.957 20.2357 180.801 20.0078 180.645 19.8516C180.475 19.7344 180.273 19.6367 180.039 19.5586C179.831 19.4935 179.564 19.4414 179.238 19.4023C178.926 19.3633 178.555 19.3698 178.125 19.4219C178.06 21.1406 178.014 22.5339 177.988 23.6016C177.962 24.6693 177.943 25.5026 177.93 26.1016C177.917 26.8177 177.91 27.332 177.91 27.6445C177.923 28.0872 177.995 28.5234 178.125 28.9531C178.229 29.3177 178.398 29.6953 178.633 30.0859C178.867 30.4766 179.206 30.8216 179.648 31.1211H177.266C177.044 31.1211 176.771 31.1341 176.445 31.1602C176.172 31.1862 175.82 31.2122 175.391 31.2383C174.974 31.2643 174.486 31.3099 173.926 31.375C174.121 31.0365 174.277 30.7305 174.395 30.457C174.512 30.1836 174.603 29.9492 174.668 29.7539C174.746 29.5195 174.805 29.3112 174.844 29.1289C174.857 28.8685 174.889 28.3411 174.941 27.5469C174.954 27.2214 174.967 26.8177 174.98 26.3359C175.007 25.8542 175.033 25.2812 175.059 24.6172C175.098 23.9531 175.13 23.1914 175.156 22.332C175.195 21.4596 175.234 20.4766 175.273 19.3828C175.039 19.3177 174.818 19.3242 174.609 19.4023C174.401 19.4674 174.219 19.5521 174.062 19.6562C173.88 19.7865 173.704 19.9427 173.535 20.125C173.366 20.3464 173.177 20.6328 172.969 20.9844C172.786 21.2839 172.578 21.681 172.344 22.1758C172.109 22.6576 171.842 23.2565 171.543 23.9727C171.478 23.2174 171.432 22.599 171.406 22.1172C171.38 21.6224 171.361 21.2383 171.348 20.9648C171.335 20.6393 171.328 20.3984 171.328 20.2422C171.328 20.099 171.315 19.9102 171.289 19.6758C171.263 19.4805 171.23 19.2266 171.191 18.9141C171.152 18.5885 171.1 18.1979 171.035 17.7422Z" fill="white"/>
</svg>
