<svg width="50" height="50" viewBox="0 0 50 50" fill="none" xmlns="http://www.w3.org/2000/svg">
<rect x="2.5" y="2.5" width="45" height="45" rx="17.5" fill="white" stroke="black" stroke-width="5"/>
<path d="M34.3004 16.6756C32.621 15.8999 30.8209 15.3285 28.9385 15.0014C28.9045 14.9948 28.8705 15.0114 28.8518 15.0423C28.6202 15.4567 28.3634 15.9982 28.1844 16.4226C26.1593 16.1176 24.1452 16.1176 22.1618 16.4226C21.9829 15.9883 21.7162 15.4567 21.4846 15.0423C21.4659 15.0114 21.4319 14.9959 21.3979 15.0014C19.5166 15.3274 17.7165 15.8988 16.036 16.6756C16.0218 16.6812 16.0086 16.6922 16.0009 16.7055C12.5862 21.8419 11.65 26.8523 12.1088 31.8008C12.111 31.8251 12.1241 31.8483 12.1428 31.8627C14.3962 33.5291 16.5783 34.5403 18.7208 35.2099C18.7548 35.221 18.791 35.2077 18.813 35.179C19.3201 34.4828 19.7712 33.7479 20.1587 32.9755C20.1817 32.9302 20.1598 32.876 20.1126 32.8583C19.3958 32.5843 18.7142 32.2505 18.0578 31.8726C18.0063 31.8417 18.0019 31.7676 18.0491 31.7312C18.1874 31.6273 18.3257 31.519 18.4574 31.4096C18.4815 31.3897 18.5144 31.3853 18.543 31.3985C22.8544 33.3799 27.5215 33.3799 31.7813 31.3985C31.8099 31.3853 31.8428 31.3886 31.868 31.4096C31.9998 31.519 32.1381 31.6284 32.2775 31.7323C32.3258 31.7676 32.3225 31.8428 32.2698 31.8737C31.6134 32.2594 30.9318 32.5865 30.2139 32.8583C30.1667 32.876 30.147 32.9313 30.1689 32.9766C30.5641 33.7479 31.0163 34.4828 31.5135 35.179C31.5344 35.2088 31.5717 35.221 31.6057 35.211C33.7581 34.5403 35.9413 33.5291 38.1936 31.8638C38.2134 31.8494 38.2254 31.8273 38.2276 31.803C38.7764 26.082 37.3078 21.1125 34.3333 16.7077C34.3278 16.6922 34.3146 16.6812 34.3004 16.6756ZM20.803 28.7883C19.5045 28.7883 18.4354 27.5882 18.4354 26.1152C18.4354 24.6421 19.4836 23.442 20.803 23.442C22.1322 23.442 23.1914 24.6521 23.1705 26.1152C23.1705 27.5893 22.1212 28.7883 20.803 28.7883ZM29.5565 28.7883C28.2591 28.7883 27.1889 27.5882 27.1889 26.1152C27.1889 24.6421 28.2371 23.442 29.5565 23.442C30.8857 23.442 31.9449 24.6521 31.924 26.1152C31.924 27.5893 30.8857 28.7883 29.5565 28.7883Z" fill="black"/>
</svg>
