<svg width="117" height="52" viewBox="0 0 117 52" fill="none" xmlns="http://www.w3.org/2000/svg">
<mask id="path-1-inside-1_79_7687" fill="white">
<path fill-rule="evenodd" clip-rule="evenodd" d="M82.9192 0.633789H-88.1752V51.27H83.1565V50.558L108 25.7146L83.1565 0.871094V0.633789H82.9192Z"/>
</mask>
<path fill-rule="evenodd" clip-rule="evenodd" d="M82.9192 0.633789H-88.1752V51.27H83.1565V50.558L108 25.7146L83.1565 0.871094V0.633789H82.9192Z" fill="white"/>
<path d="M-88.1752 0.633789V-4.36621H-93.1752V0.633789H-88.1752ZM-88.1752 51.27H-93.1752V56.27H-88.1752V51.27ZM83.1565 51.27V56.27H88.1565V51.27H83.1565ZM83.1565 50.558L79.621 47.0225L78.1565 48.487V50.558H83.1565ZM108 25.7146L111.536 29.2501L115.071 25.7146L111.536 22.179L108 25.7146ZM83.1565 0.871094H78.1565V2.94216L79.621 4.40663L83.1565 0.871094ZM83.1565 0.633789H88.1565V-4.36621H83.1565V0.633789ZM-88.1752 5.63379H82.9192V-4.36621H-88.1752V5.63379ZM-83.1752 51.27V0.633789H-93.1752V51.27H-83.1752ZM83.1565 46.27H-88.1752V56.27H83.1565V46.27ZM78.1565 50.558V51.27H88.1565V50.558H78.1565ZM104.464 22.179L79.621 47.0225L86.692 54.0936L111.536 29.2501L104.464 22.179ZM79.621 4.40663L104.464 29.2501L111.536 22.179L86.692 -2.66444L79.621 4.40663ZM78.1565 0.633789V0.871094H88.1565V0.633789H78.1565ZM82.9192 5.63379H83.1565V-4.36621H82.9192V5.63379Z" fill="black" mask="url(#path-1-inside-1_79_7687)"/>
<path d="M22.625 19.1328C23.0807 19.1849 23.4648 19.224 23.7773 19.25C24.0898 19.263 24.3372 19.276 24.5195 19.2891C24.7409 19.3021 24.9167 19.3086 25.0469 19.3086C25.2682 19.3086 25.5221 19.3021 25.8086 19.2891C26.056 19.276 26.3424 19.2565 26.668 19.2305C27.0065 19.1914 27.3711 19.1328 27.7617 19.0547C27.5794 19.25 27.4297 19.4388 27.3125 19.6211C27.1953 19.7904 27.1042 19.9466 27.0391 20.0898C26.9609 20.2461 26.8958 20.3893 26.8438 20.5195C26.7917 20.6888 26.7331 20.9492 26.668 21.3008C26.6029 21.6003 26.5312 22.0234 26.4531 22.5703C26.388 23.1172 26.3034 23.8333 26.1992 24.7188C26.6419 24.7318 27.026 24.7383 27.3516 24.7383C27.6771 24.7253 27.9505 24.7188 28.1719 24.7188H28.8164C28.9987 24.7057 29.207 24.6927 29.4414 24.6797C29.832 24.6667 30.4245 24.6276 31.2188 24.5625C31.2839 23.9635 31.3164 23.4492 31.3164 23.0195C31.3294 22.5768 31.3229 22.2057 31.2969 21.9062C31.2708 21.5677 31.2318 21.2812 31.1797 21.0469C31.1406 20.9167 31.082 20.7604 31.0039 20.5781C30.9388 20.4219 30.8477 20.2331 30.7305 20.0117C30.6263 19.7773 30.4831 19.4974 30.3008 19.1719C30.6393 19.224 30.9388 19.263 31.1992 19.2891C31.4727 19.3021 31.7005 19.3151 31.8828 19.3281C32.0911 19.3411 32.2669 19.3477 32.4102 19.3477C32.5534 19.3477 32.7422 19.3411 32.9766 19.3281C33.1719 19.3151 33.4128 19.3086 33.6992 19.3086C33.9857 19.2956 34.3372 19.276 34.7539 19.25C34.6497 19.4323 34.5586 19.6211 34.4805 19.8164C34.4023 20.0117 34.3372 20.1875 34.2852 20.3438C34.2331 20.526 34.181 20.7083 34.1289 20.8906C34.0638 21.1641 34.0052 21.5612 33.9531 22.082C33.9141 22.6029 33.875 23.1823 33.8359 23.8203C33.8099 24.4583 33.7839 25.1224 33.7578 25.8125C33.7448 26.5026 33.7318 27.1536 33.7188 27.7656C33.7188 28.3776 33.7253 28.9245 33.7383 29.4062C33.7513 29.875 33.7773 30.207 33.8164 30.4023C33.8555 30.6367 33.9206 30.8776 34.0117 31.125C34.0898 31.3464 34.194 31.5872 34.3242 31.8477C34.4544 32.0951 34.6237 32.3294 34.832 32.5508L30.125 32.9023C30.3203 32.7201 30.4766 32.5443 30.5938 32.375C30.7109 32.1927 30.8021 32.0365 30.8672 31.9062C30.9323 31.763 30.9779 31.6263 31.0039 31.4961C31.0169 31.3398 31.0365 31.0664 31.0625 30.6758C31.0885 30.3503 31.1146 29.888 31.1406 29.2891C31.1667 28.6901 31.1927 27.8958 31.2188 26.9062C31.0365 26.9062 30.8151 26.9128 30.5547 26.9258C30.3073 26.9258 30.0729 26.9323 29.8516 26.9453C29.5911 26.9583 29.3177 26.9648 29.0312 26.9648C28.7448 26.9779 28.4453 26.9909 28.1328 27.0039C27.8724 27.0299 27.5794 27.056 27.2539 27.082C26.9414 27.0951 26.6289 27.1146 26.3164 27.1406C26.2904 27.6875 26.2904 28.1693 26.3164 28.5859C26.3424 28.9896 26.3815 29.3346 26.4336 29.6211C26.4857 29.9596 26.5508 30.2526 26.6289 30.5C26.707 30.7344 26.7917 30.9688 26.8828 31.2031C26.9609 31.4115 27.0521 31.6328 27.1562 31.8672C27.2734 32.1016 27.3906 32.3099 27.5078 32.4922C27.2604 32.4661 27.0326 32.4466 26.8242 32.4336C26.6159 32.4076 26.4336 32.3815 26.2773 32.3555C26.0951 32.3424 25.9193 32.3294 25.75 32.3164C25.5807 32.3164 25.3789 32.3099 25.1445 32.2969C24.9362 32.2839 24.6758 32.2773 24.3633 32.2773C24.0508 32.2643 23.6862 32.2578 23.2695 32.2578C23.5169 32.0104 23.7122 31.7695 23.8555 31.5352C24.0117 31.2878 24.1224 31.0664 24.1875 30.8711C24.2656 30.6367 24.3177 30.4219 24.3438 30.2266C24.3568 30.0573 24.3633 29.7383 24.3633 29.2695C24.3763 28.8008 24.3763 28.2669 24.3633 27.668C24.3633 27.056 24.3568 26.418 24.3438 25.7539C24.3307 25.0768 24.3112 24.4453 24.2852 23.8594C24.2721 23.2734 24.2526 22.7721 24.2266 22.3555C24.2135 21.9258 24.2005 21.6589 24.1875 21.5547C24.1224 21.3203 24.0247 21.0664 23.8945 20.793C23.7773 20.5716 23.6211 20.3177 23.4258 20.0312C23.2305 19.7318 22.9635 19.4323 22.625 19.1328ZM42.3516 18.2734C43.0547 18.2995 43.7643 18.4297 44.4805 18.6641C45.2096 18.8854 45.8802 19.25 46.4922 19.7578C47.1042 20.2526 47.625 20.8971 48.0547 21.6914C48.4844 22.4727 48.7513 23.4297 48.8555 24.5625C48.9466 25.487 48.8294 26.4049 48.5039 27.3164C48.1914 28.2148 47.7552 29.0417 47.1953 29.7969C46.6354 30.5521 45.9909 31.1966 45.2617 31.7305C44.5326 32.2513 43.8034 32.5964 43.0742 32.7656C42.6315 32.8698 42.1432 32.8828 41.6094 32.8047C41.0885 32.7135 40.5547 32.5508 40.0078 32.3164C39.474 32.069 38.9466 31.7565 38.4258 31.3789C37.918 31.0013 37.4557 30.5716 37.0391 30.0898C36.6224 29.5951 36.2708 29.0612 35.9844 28.4883C35.7109 27.9154 35.5417 27.3164 35.4766 26.6914C35.4115 26.1706 35.4049 25.5977 35.457 24.9727C35.5221 24.3346 35.6458 23.7031 35.8281 23.0781C36.0234 22.4401 36.2904 21.8281 36.6289 21.2422C36.9805 20.6432 37.4232 20.1224 37.957 19.6797C38.4909 19.224 39.1159 18.8724 39.832 18.625C40.5612 18.3646 41.401 18.2474 42.3516 18.2734ZM38.8555 26.1836C38.6732 27.5768 38.8034 28.6966 39.2461 29.543C39.7018 30.3893 40.3854 30.9036 41.2969 31.0859C41.7396 31.1771 42.1628 31.0859 42.5664 30.8125C42.9831 30.526 43.3607 30.1159 43.6992 29.582C44.0378 29.0482 44.3307 28.4232 44.5781 27.707C44.8255 26.9909 45.0078 26.2422 45.125 25.4609C45.2422 24.6797 45.2487 23.9766 45.1445 23.3516C45.0534 22.7135 44.8906 22.1732 44.6562 21.7305C44.4219 21.2747 44.1354 20.9232 43.7969 20.6758C43.4714 20.4284 43.1328 20.2917 42.7812 20.2656C42.1693 20.2266 41.6354 20.3893 41.1797 20.7539C40.724 21.1055 40.3398 21.5677 40.0273 22.1406C39.7148 22.7135 39.4609 23.3581 39.2656 24.0742C39.0833 24.7904 38.9466 25.4935 38.8555 26.1836ZM49.1875 18.9961C49.6042 19.0091 49.9688 19.0156 50.2812 19.0156C50.5938 19.0026 50.8477 18.9961 51.043 18.9961H51.6094C51.7526 18.9831 51.9284 18.9766 52.1367 18.9766C52.319 18.9766 52.5404 18.9766 52.8008 18.9766C53.0612 18.9766 53.3607 18.9831 53.6992 18.9961C53.8034 19.3607 53.9206 19.7188 54.0508 20.0703C54.194 20.4089 54.3177 20.7148 54.4219 20.9883C54.5521 21.3138 54.6823 21.6198 54.8125 21.9062C54.9427 22.1927 55.099 22.5378 55.2812 22.9414C55.4375 23.2799 55.6263 23.6966 55.8477 24.1914C56.069 24.6732 56.3294 25.2266 56.6289 25.8516C56.7721 25.4479 56.9023 25.0768 57.0195 24.7383C57.1497 24.3997 57.2604 24.1068 57.3516 23.8594C57.4557 23.5729 57.5404 23.3125 57.6055 23.0781C57.6706 22.8438 57.7422 22.5573 57.8203 22.2188C57.8854 21.9323 57.957 21.5872 58.0352 21.1836C58.1263 20.7799 58.2174 20.3112 58.3086 19.7773C58.6862 19.7773 59.0247 19.7773 59.3242 19.7773C59.6237 19.7773 59.8841 19.7708 60.1055 19.7578C60.3529 19.7578 60.5742 19.7513 60.7695 19.7383C60.9779 19.7383 61.2578 19.7253 61.6094 19.6992C61.9089 19.6732 62.306 19.6536 62.8008 19.6406C63.3086 19.6146 63.9336 19.582 64.6758 19.543C64.4023 19.7383 64.181 19.9336 64.0117 20.1289C63.8555 20.3112 63.7318 20.474 63.6406 20.6172C63.5365 20.7865 63.4714 20.9492 63.4453 21.1055C63.4193 21.2357 63.3932 21.5352 63.3672 22.0039C63.3542 22.4727 63.3346 23.0326 63.3086 23.6836C63.2956 24.3216 63.2826 25.0052 63.2695 25.7344C63.2695 26.4635 63.276 27.1536 63.2891 27.8047C63.3021 28.4557 63.3216 29.0221 63.3477 29.5039C63.3867 29.9727 63.4388 30.2721 63.5039 30.4023C63.5951 30.5586 63.7188 30.7409 63.875 30.9492C64.0182 31.1315 64.2005 31.3398 64.4219 31.5742C64.6562 31.8086 64.9622 32.069 65.3398 32.3555C64.7409 32.3815 64.2396 32.401 63.8359 32.4141C63.4453 32.4271 63.1198 32.4401 62.8594 32.4531C62.5599 32.4661 62.319 32.4727 62.1367 32.4727C61.9414 32.4727 61.6745 32.4792 61.3359 32.4922C61.0365 32.5052 60.6393 32.5247 60.1445 32.5508C59.6497 32.5638 59.0117 32.5898 58.2305 32.6289C58.4128 32.4206 58.582 32.2122 58.7383 32.0039C58.8945 31.7956 59.0247 31.6068 59.1289 31.4375C59.2591 31.2422 59.3698 31.0534 59.4609 30.8711C59.5521 30.6237 59.6237 30.1745 59.6758 29.5234C59.7279 28.9635 59.7669 28.1628 59.793 27.1211C59.819 26.0664 59.819 24.6536 59.793 22.8828C59.5456 23.2865 59.3242 23.6901 59.1289 24.0938C58.9466 24.4844 58.7839 24.8424 58.6406 25.168C58.4844 25.5456 58.3411 25.9102 58.2109 26.2617C58.0807 26.6263 57.944 27.0299 57.8008 27.4727C57.6706 27.8503 57.5143 28.2995 57.332 28.8203C57.1628 29.3411 56.9674 29.9141 56.7461 30.5391L56.0039 30.5781C55.8997 30.0573 55.7956 29.5885 55.6914 29.1719C55.5872 28.7422 55.4831 28.3776 55.3789 28.0781C55.2617 27.7266 55.1445 27.4141 55.0273 27.1406C54.8971 26.8672 54.7539 26.5612 54.5977 26.2227C54.4544 25.9362 54.2786 25.5977 54.0703 25.207C53.875 24.8164 53.6471 24.3802 53.3867 23.8984C53.2565 25.2266 53.1784 26.3073 53.1523 27.1406C53.1263 27.9609 53.1263 28.599 53.1523 29.0547C53.1784 29.6016 53.2174 29.9987 53.2695 30.2461C53.3477 30.4674 53.4714 30.7148 53.6406 30.9883C53.7839 31.2227 53.9792 31.5026 54.2266 31.8281C54.487 32.1406 54.819 32.4922 55.2227 32.8828C54.9362 32.8828 54.6367 32.8828 54.3242 32.8828C54.0117 32.8828 53.7253 32.8893 53.4648 32.9023C53.1523 32.9154 52.8464 32.9219 52.5469 32.9219C52.2344 32.9349 51.8698 32.9544 51.4531 32.9805C51.0885 33.0065 50.6523 33.0326 50.1445 33.0586C49.6367 33.0846 49.0508 33.1302 48.3867 33.1953C48.6732 33.013 48.9076 32.8372 49.0898 32.668C49.2721 32.4857 49.4154 32.3229 49.5195 32.1797C49.6497 32.0104 49.7474 31.8411 49.8125 31.6719C49.8516 31.5677 49.8841 31.3398 49.9102 30.9883C49.9492 30.6367 49.9818 30.207 50.0078 29.6992C50.0469 29.1914 50.0729 28.625 50.0859 28C50.112 27.375 50.1315 26.7435 50.1445 26.1055C50.1706 25.4544 50.1901 24.8229 50.2031 24.2109C50.2161 23.5859 50.2227 23.026 50.2227 22.5312C50.2357 22.0234 50.2422 21.6003 50.2422 21.2617C50.2422 20.9232 50.2422 20.7083 50.2422 20.6172C50.2031 20.4219 50.1445 20.2266 50.0664 20.0312C50.0013 19.862 49.8971 19.6862 49.7539 19.5039C49.6107 19.3216 49.4219 19.1523 49.1875 18.9961ZM64.2461 19.6602C65.1576 19.6862 65.9128 19.7057 66.5117 19.7188C67.1237 19.7188 67.6185 19.7188 67.9961 19.7188H69.0312H74.8516C74.8776 19.9792 74.8971 20.2331 74.9102 20.4805C74.9362 20.7148 74.9492 20.9232 74.9492 21.1055C74.9492 21.3268 74.9427 21.5286 74.9297 21.7109C74.9167 21.8932 74.8971 22.0885 74.8711 22.2969C74.8451 22.4792 74.819 22.6745 74.793 22.8828C74.7669 23.0911 74.7214 23.306 74.6562 23.5273C74.474 22.8242 74.2266 22.2904 73.9141 21.9258C73.6146 21.5612 73.3086 21.2943 72.9961 21.125C72.6315 20.9297 72.2474 20.8255 71.8438 20.8125C71.3099 20.8385 70.8932 20.8841 70.5938 20.9492C70.2943 21.0143 70.0599 21.1055 69.8906 21.2227C69.7214 21.3398 69.5911 21.4766 69.5 21.6328C69.4219 21.776 69.3372 21.9388 69.2461 22.1211C69.168 22.2773 69.0964 22.5182 69.0312 22.8438C68.9661 23.1172 68.901 23.4883 68.8359 23.957C68.7839 24.4258 68.7253 25.0312 68.6602 25.7734C69.0117 25.6693 69.2917 25.5716 69.5 25.4805C69.7214 25.3893 69.8971 25.3112 70.0273 25.2461C70.1706 25.168 70.2747 25.0964 70.3398 25.0312C70.3919 24.9531 70.4701 24.8099 70.5742 24.6016C70.6523 24.4193 70.7565 24.1719 70.8867 23.8594C71.0299 23.5469 71.1992 23.1172 71.3945 22.5703C71.4206 23.1693 71.4336 23.6706 71.4336 24.0742C71.4336 24.4648 71.4401 24.7839 71.4531 25.0312C71.4531 25.3177 71.4596 25.5456 71.4727 25.7148V26.457C71.4727 26.7305 71.4727 27.1016 71.4727 27.5703C71.4857 28.026 71.5052 28.6055 71.5312 29.3086C71.375 28.8268 71.2318 28.4492 71.1016 28.1758C70.9844 27.8893 70.8802 27.6745 70.7891 27.5312C70.6849 27.362 70.5938 27.2448 70.5156 27.1797C70.4245 27.1536 70.3008 27.1276 70.1445 27.1016C70.0013 27.0885 69.819 27.082 69.5977 27.082C69.3893 27.082 69.1224 27.1146 68.7969 27.1797C68.7578 27.8958 68.7513 28.4753 68.7773 28.918C68.8164 29.3477 68.8685 29.6797 68.9336 29.9141C68.9987 30.1875 69.0768 30.3828 69.168 30.5C69.2852 30.6172 69.5195 30.7148 69.8711 30.793C70.2227 30.8581 70.6198 30.8841 71.0625 30.8711C71.5182 30.8451 71.9805 30.7669 72.4492 30.6367C72.918 30.5065 73.3346 30.2917 73.6992 29.9922C73.9727 29.7448 74.2656 29.4323 74.5781 29.0547C74.8385 28.7292 75.125 28.319 75.4375 27.8242C75.763 27.3294 76.082 26.7305 76.3945 26.0273C76.3424 26.6133 76.3034 27.1016 76.2773 27.4922C76.2643 27.8698 76.2448 28.1758 76.2188 28.4102C76.1927 28.6836 76.1732 28.8919 76.1602 29.0352C76.1602 29.1914 76.1406 29.4128 76.1016 29.6992C76.0755 29.9466 76.0299 30.2852 75.9648 30.7148C75.9128 31.1315 75.8411 31.6654 75.75 32.3164C75.138 32.3294 74.5586 32.3424 74.0117 32.3555C73.4648 32.3555 72.9831 32.362 72.5664 32.375C72.0716 32.388 71.6159 32.401 71.1992 32.4141C70.7695 32.4141 70.2943 32.4336 69.7734 32.4727C69.3177 32.4987 68.7773 32.5378 68.1523 32.5898C67.5404 32.6419 66.8633 32.7135 66.1211 32.8047C66.1862 31.9193 66.2318 31.0859 66.2578 30.3047C66.2969 29.5104 66.3229 28.8138 66.3359 28.2148C66.349 27.5117 66.349 26.8607 66.3359 26.2617C66.401 24.7643 66.375 23.5534 66.2578 22.6289C66.1406 21.7044 66.0039 21.112 65.8477 20.8516C65.7695 20.7604 65.6589 20.6497 65.5156 20.5195C65.3984 20.4154 65.2357 20.2917 65.0273 20.1484C64.819 20.0052 64.5586 19.8424 64.2461 19.6602Z" fill="black"/>
</svg>
