<svg width="206" height="52" viewBox="0 0 206 52" fill="none" xmlns="http://www.w3.org/2000/svg">
<mask id="path-1-inside-1_79_7686" fill="white">
<path fill-rule="evenodd" clip-rule="evenodd" d="M179.769 0.633789H0.824829V51.27H180.017V50.558L206 25.7146L180.017 0.871087V0.633789H179.769Z"/>
</mask>
<path fill-rule="evenodd" clip-rule="evenodd" d="M179.769 0.633789H0.824829V51.27H180.017V50.558L206 25.7146L180.017 0.871087V0.633789H179.769Z" fill="#FFC657"/>
<path d="M0.824829 0.633789V-4.36621H-4.17517V0.633789H0.824829ZM0.824829 51.27H-4.17517V56.27H0.824829V51.27ZM180.017 51.27V56.27H185.017V51.27H180.017ZM180.017 50.558L176.561 46.9441L175.017 48.421V50.558H180.017ZM206 25.7146L209.455 29.3285L213.235 25.7146L209.455 22.1007L206 25.7146ZM180.017 0.871087H175.017V3.00813L176.561 4.48499L180.017 0.871087ZM180.017 0.633789H185.017V-4.36621H180.017V0.633789ZM0.824829 5.63379H179.769V-4.36621H0.824829V5.63379ZM5.82483 51.27V0.633789H-4.17517V51.27H5.82483ZM180.017 46.27H0.824829V56.27H180.017V46.27ZM175.017 50.558V51.27H185.017V50.558H175.017ZM202.545 22.1007L176.561 46.9441L183.472 54.1719L209.455 29.3285L202.545 22.1007ZM176.561 4.48499L202.545 29.3285L209.455 22.1007L183.472 -2.74282L176.561 4.48499ZM175.017 0.633789V0.871087H185.017V0.633789H175.017ZM179.769 5.63379H180.017V-4.36621H179.769V5.63379Z" fill="black" mask="url(#path-1-inside-1_79_7686)"/>
<path d="M74.0859 18.5664C74.5417 18.5664 74.9518 18.6445 75.3164 18.8008C75.694 18.944 76.0391 19.1068 76.3516 19.2891C76.6771 19.4714 76.9831 19.6406 77.2695 19.7969C77.556 19.9401 77.849 20.0117 78.1484 20.0117C78.3828 19.9987 78.6497 19.9661 78.9492 19.9141C79.2096 19.862 79.5091 19.7839 79.8477 19.6797C80.1992 19.5625 80.5898 19.3932 81.0195 19.1719C80.5898 19.5885 80.2383 19.9401 79.9648 20.2266C79.7044 20.5 79.5026 20.7279 79.3594 20.9102C79.1901 21.1185 79.0664 21.2812 78.9883 21.3984C78.9102 21.5417 78.793 21.7565 78.6367 22.043C78.4935 22.3034 78.2982 22.6549 78.0508 23.0977C77.8034 23.5273 77.4909 24.0938 77.1133 24.7969C77.1133 23.8984 77.0221 23.2018 76.8398 22.707C76.6706 22.2122 76.4818 21.8346 76.2734 21.5742C76.026 21.2747 75.7461 21.0859 75.4336 21.0078C75.1471 20.9688 74.8607 21.0208 74.5742 21.1641C74.2878 21.2943 74.0013 21.4896 73.7148 21.75C73.4414 22.0104 73.1745 22.3229 72.9141 22.6875C72.6667 23.0391 72.4388 23.4102 72.2305 23.8008C72.0352 24.1914 71.8724 24.5885 71.7422 24.9922C71.612 25.3828 71.5273 25.7474 71.4883 26.0859C71.4492 26.3854 71.4427 26.737 71.4688 27.1406C71.4948 27.5312 71.5534 27.9349 71.6445 28.3516C71.7357 28.7552 71.8529 29.1523 71.9961 29.543C72.1393 29.9336 72.3151 30.2852 72.5234 30.5977C72.7448 30.8971 72.9922 31.1445 73.2656 31.3398C73.5391 31.5221 73.8516 31.6068 74.2031 31.5938C74.5938 31.5677 74.9779 31.4505 75.3555 31.2422C75.681 31.0729 76.013 30.8125 76.3516 30.4609C76.6901 30.0964 76.9831 29.582 77.2305 28.918L80.1211 29.4453C79.2878 30.4609 78.474 31.2227 77.6797 31.7305C76.8984 32.2383 76.1953 32.5964 75.5703 32.8047C74.8411 33.0391 74.151 33.1497 73.5 33.1367C72.6797 33.0456 71.9115 32.7982 71.1953 32.3945C70.4792 31.9909 69.8607 31.5026 69.3398 30.9297C68.832 30.3438 68.4349 29.7057 68.1484 29.0156C67.862 28.3255 67.7383 27.6484 67.7773 26.9844C67.8034 26.5417 67.8945 26.0273 68.0508 25.4414C68.207 24.8424 68.4154 24.2305 68.6758 23.6055C68.9492 22.9805 69.2747 22.3685 69.6523 21.7695C70.0299 21.1706 70.4466 20.6367 70.9023 20.168C71.3581 19.6862 71.8529 19.3021 72.3867 19.0156C72.9336 18.7161 73.5 18.5664 74.0859 18.5664ZM80.4141 18.8398C80.7917 18.9049 81.1237 18.9505 81.4102 18.9766C81.7096 19.0026 81.957 19.0221 82.1523 19.0352C82.3867 19.0482 82.5885 19.0547 82.7578 19.0547C82.9271 19.0547 83.168 19.0417 83.4805 19.0156C83.7409 18.9896 84.0794 18.957 84.4961 18.918C84.9258 18.8789 85.4531 18.8138 86.0781 18.7227C85.8958 18.7747 85.7266 18.9245 85.5703 19.1719C85.4271 19.4062 85.2969 19.6602 85.1797 19.9336C85.0365 20.2591 84.9128 20.6172 84.8086 21.0078C84.7174 21.3594 84.6003 21.8411 84.457 22.4531C84.3268 23.0651 84.1966 23.7292 84.0664 24.4453C83.9492 25.1615 83.8581 25.8906 83.793 26.6328C83.7279 27.362 83.7148 28.0326 83.7539 28.6445C83.806 29.2565 83.9297 29.7643 84.125 30.168C84.3203 30.5586 84.6198 30.7669 85.0234 30.793C85.6354 30.8451 86.1432 30.8516 86.5469 30.8125C86.9635 30.7604 87.3021 30.6888 87.5625 30.5977C87.8229 30.5065 88.0247 30.4023 88.168 30.2852C88.3112 30.1549 88.4219 30.0312 88.5 29.9141C88.7083 29.6146 88.9232 29.2305 89.1445 28.7617C89.3659 28.293 89.5612 27.8438 89.7305 27.4141C89.9128 26.9844 90.0625 26.6198 90.1797 26.3203C90.2969 26.0208 90.3555 25.8776 90.3555 25.8906C90.3555 25.9167 90.349 26.0664 90.3359 26.3398C90.3359 26.6003 90.3294 26.9193 90.3164 27.2969C90.3164 27.6615 90.3099 28.0456 90.2969 28.4492C90.2969 28.8529 90.2904 29.1979 90.2773 29.4844C90.2643 29.7188 90.2513 29.9792 90.2383 30.2656C90.2253 30.513 90.2122 30.806 90.1992 31.1445C90.1992 31.4831 90.1862 31.8542 90.1602 32.2578C89.6133 32.2188 89.0924 32.1927 88.5977 32.1797C88.1029 32.1667 87.6667 32.1602 87.2891 32.1602C86.8464 32.1602 86.4362 32.1667 86.0586 32.1797C85.6549 32.1927 85.1862 32.2122 84.6523 32.2383C84.1966 32.2643 83.6302 32.2969 82.9531 32.3359C82.276 32.362 81.4948 32.401 80.6094 32.4531C80.7135 32.2708 80.7982 32.1016 80.8633 31.9453C80.9414 31.7891 81 31.6589 81.0391 31.5547C81.0911 31.4245 81.1237 31.3138 81.1367 31.2227C81.2148 30.806 81.2799 30.2786 81.332 29.6406C81.3841 28.9896 81.4232 28.2995 81.4492 27.5703C81.4883 26.8411 81.5078 26.099 81.5078 25.3438C81.5208 24.5755 81.5208 23.8659 81.5078 23.2148C81.4948 22.5638 81.4688 21.9974 81.4297 21.5156C81.4036 21.0339 81.3646 20.7018 81.3125 20.5195C81.2474 20.3112 81.1693 20.1029 81.0781 19.8945C81 19.7122 80.9023 19.5299 80.7852 19.3477C80.681 19.1523 80.5573 18.9831 80.4141 18.8398ZM93.9297 19.7773C94.5807 19.8164 95.1276 19.849 95.5703 19.875C96.026 19.888 96.4036 19.901 96.7031 19.9141C97.0417 19.9271 97.3281 19.9271 97.5625 19.9141C97.7969 19.901 98.1159 19.8685 98.5195 19.8164C98.8581 19.7773 99.3073 19.7188 99.8672 19.6406C100.44 19.5495 101.15 19.4323 101.996 19.2891C101.697 19.5885 101.462 19.862 101.293 20.1094C101.137 20.3438 101.013 20.5456 100.922 20.7148C100.818 20.9232 100.746 21.099 100.707 21.2422C100.681 21.3724 100.707 21.6979 100.785 22.2188C100.863 22.7396 100.974 23.3581 101.117 24.0742C101.26 24.7773 101.417 25.5326 101.586 26.3398C101.755 27.1341 101.924 27.8828 102.094 28.5859C102.263 29.276 102.413 29.8685 102.543 30.3633C102.686 30.8451 102.79 31.1315 102.855 31.2227C103.051 31.4961 103.174 31.6784 103.227 31.7695C103.279 31.8477 103.37 31.9193 103.5 31.9844C103.552 32.0104 103.637 32.0495 103.754 32.1016C103.858 32.1536 103.995 32.2188 104.164 32.2969C104.346 32.375 104.574 32.4661 104.848 32.5703C104.34 32.5964 103.904 32.6159 103.539 32.6289C103.174 32.6289 102.875 32.6354 102.641 32.6484C102.367 32.6615 102.133 32.6745 101.938 32.6875C101.742 32.6875 101.508 32.7005 101.234 32.7266C101 32.7526 100.694 32.7786 100.316 32.8047C99.9518 32.8307 99.5221 32.8568 99.0273 32.8828C99.2878 32.7005 99.4961 32.5378 99.6523 32.3945C99.8216 32.2383 99.9518 32.1081 100.043 32.0039C100.147 31.8737 100.219 31.7565 100.258 31.6523C100.284 31.5352 100.303 31.3594 100.316 31.125C100.329 30.9167 100.329 30.6432 100.316 30.3047C100.303 29.9531 100.271 29.4974 100.219 28.9375L95.082 29.4648C94.9518 29.6862 94.8542 29.8815 94.7891 30.0508C94.724 30.207 94.6784 30.3438 94.6523 30.4609C94.6133 30.6042 94.6003 30.7214 94.6133 30.8125C94.6393 30.9167 94.6849 31.0404 94.75 31.1836C94.8151 31.3138 94.9062 31.4701 95.0234 31.6523C95.1536 31.8216 95.3424 32.0234 95.5898 32.2578C95.2643 32.2448 94.9323 32.2383 94.5938 32.2383C94.2552 32.2383 93.9427 32.2448 93.6562 32.2578C93.3177 32.2708 92.9857 32.2839 92.6602 32.2969C92.3346 32.3099 91.9635 32.3294 91.5469 32.3555C91.1953 32.3815 90.7852 32.4141 90.3164 32.4531C89.8346 32.4792 89.3203 32.5182 88.7734 32.5703C89.112 32.4141 89.3984 32.2578 89.6328 32.1016C89.8672 31.9323 90.0625 31.776 90.2188 31.6328C90.401 31.4766 90.5573 31.3268 90.6875 31.1836C90.7786 31.0534 90.9609 30.7539 91.2344 30.2852C91.5078 29.8034 91.8138 29.237 92.1523 28.5859C92.5039 27.9349 92.8685 27.2383 93.2461 26.4961C93.6367 25.7539 93.9883 25.0573 94.3008 24.4062C94.6133 23.7422 94.8672 23.1693 95.0625 22.6875C95.2578 22.2057 95.3555 21.8932 95.3555 21.75C95.3294 21.5807 95.2643 21.3919 95.1602 21.1836C95.069 21.0013 94.9258 20.793 94.7305 20.5586C94.5482 20.3242 94.2812 20.0638 93.9297 19.7773ZM99.9844 27.4922C99.9062 27.0365 99.8346 26.6458 99.7695 26.3203C99.7044 25.9818 99.6523 25.7018 99.6133 25.4805C99.5612 25.2201 99.5221 24.9922 99.4961 24.7969C99.457 24.6146 99.4115 24.3802 99.3594 24.0938C99.3073 23.8464 99.2422 23.5404 99.1641 23.1758C99.099 22.7982 99.0143 22.349 98.9102 21.8281C98.168 23.3125 97.5885 24.4648 97.1719 25.2852C96.7682 26.0924 96.4753 26.6849 96.293 27.0625C96.0716 27.5052 95.9479 27.7656 95.9219 27.8438L99.9844 27.4922ZM104.027 19.543C104.47 19.5951 104.841 19.6341 105.141 19.6602C105.453 19.6732 105.707 19.6927 105.902 19.7188C106.137 19.7448 106.319 19.7578 106.449 19.7578C106.592 19.7708 106.807 19.7643 107.094 19.7383C107.341 19.7122 107.673 19.6797 108.09 19.6406C108.52 19.6016 109.066 19.543 109.73 19.4648C109.431 19.7253 109.19 19.9792 109.008 20.2266C108.839 20.4609 108.708 20.6693 108.617 20.8516C108.5 21.0729 108.428 21.2812 108.402 21.4766C108.35 21.7891 108.305 22.2188 108.266 22.7656C108.24 23.2995 108.214 23.8854 108.188 24.5234C108.161 25.1615 108.148 25.819 108.148 26.4961C108.148 27.1732 108.155 27.8177 108.168 28.4297C108.194 29.0286 108.233 29.5625 108.285 30.0312C108.35 30.5 108.428 30.8385 108.52 31.0469C108.65 31.2812 108.786 31.5156 108.93 31.75C109.06 31.9453 109.216 32.1471 109.398 32.3555C109.581 32.5638 109.789 32.7331 110.023 32.8633C109.255 32.8242 108.643 32.8047 108.188 32.8047H107.484C107.276 32.8047 107.009 32.8177 106.684 32.8438C106.41 32.8698 106.065 32.8958 105.648 32.9219C105.232 32.9479 104.73 32.987 104.145 33.0391C104.444 32.7135 104.678 32.401 104.848 32.1016C105.017 31.8021 105.154 31.5417 105.258 31.3203C105.375 31.0599 105.453 30.8125 105.492 30.5781C105.544 30.2396 105.583 29.8229 105.609 29.3281C105.648 28.8203 105.674 28.2799 105.688 27.707C105.701 27.1211 105.701 26.5286 105.688 25.9297C105.688 25.3177 105.674 24.7318 105.648 24.1719C105.622 23.612 105.583 23.1042 105.531 22.6484C105.492 22.1927 105.44 21.8281 105.375 21.5547C105.336 21.3854 105.258 21.1966 105.141 20.9883C105.036 20.806 104.893 20.5977 104.711 20.3633C104.542 20.1159 104.314 19.8424 104.027 19.543ZM110.023 18.9961C110.44 19.0091 110.805 19.0156 111.117 19.0156C111.43 19.0026 111.684 18.9961 111.879 18.9961H112.445C112.589 18.9831 112.764 18.9766 112.973 18.9766C113.155 18.9766 113.376 18.9766 113.637 18.9766C113.897 18.9766 114.197 18.9831 114.535 18.9961C114.639 19.3607 114.757 19.7188 114.887 20.0703C115.03 20.4089 115.154 20.7148 115.258 20.9883C115.388 21.3138 115.518 21.6198 115.648 21.9062C115.779 22.1927 115.935 22.5378 116.117 22.9414C116.273 23.2799 116.462 23.6966 116.684 24.1914C116.905 24.6732 117.165 25.2266 117.465 25.8516C117.608 25.4479 117.738 25.0768 117.855 24.7383C117.986 24.3997 118.096 24.1068 118.188 23.8594C118.292 23.5729 118.376 23.3125 118.441 23.0781C118.507 22.8438 118.578 22.5573 118.656 22.2188C118.721 21.9323 118.793 21.5872 118.871 21.1836C118.962 20.7799 119.053 20.3112 119.145 19.7773C119.522 19.7773 119.861 19.7773 120.16 19.7773C120.46 19.7773 120.72 19.7708 120.941 19.7578C121.189 19.7578 121.41 19.7513 121.605 19.7383C121.814 19.7383 122.094 19.7253 122.445 19.6992C122.745 19.6732 123.142 19.6536 123.637 19.6406C124.145 19.6146 124.77 19.582 125.512 19.543C125.238 19.7383 125.017 19.9336 124.848 20.1289C124.691 20.3112 124.568 20.474 124.477 20.6172C124.372 20.7865 124.307 20.9492 124.281 21.1055C124.255 21.2357 124.229 21.5352 124.203 22.0039C124.19 22.4727 124.171 23.0326 124.145 23.6836C124.132 24.3216 124.118 25.0052 124.105 25.7344C124.105 26.4635 124.112 27.1536 124.125 27.8047C124.138 28.4557 124.158 29.0221 124.184 29.5039C124.223 29.9727 124.275 30.2721 124.34 30.4023C124.431 30.5586 124.555 30.7409 124.711 30.9492C124.854 31.1315 125.036 31.3398 125.258 31.5742C125.492 31.8086 125.798 32.069 126.176 32.3555C125.577 32.3815 125.076 32.401 124.672 32.4141C124.281 32.4271 123.956 32.4401 123.695 32.4531C123.396 32.4661 123.155 32.4727 122.973 32.4727C122.777 32.4727 122.51 32.4792 122.172 32.4922C121.872 32.5052 121.475 32.5247 120.98 32.5508C120.486 32.5638 119.848 32.5898 119.066 32.6289C119.249 32.4206 119.418 32.2122 119.574 32.0039C119.73 31.7956 119.861 31.6068 119.965 31.4375C120.095 31.2422 120.206 31.0534 120.297 30.8711C120.388 30.6237 120.46 30.1745 120.512 29.5234C120.564 28.9635 120.603 28.1628 120.629 27.1211C120.655 26.0664 120.655 24.6536 120.629 22.8828C120.382 23.2865 120.16 23.6901 119.965 24.0938C119.783 24.4844 119.62 24.8424 119.477 25.168C119.32 25.5456 119.177 25.9102 119.047 26.2617C118.917 26.6263 118.78 27.0299 118.637 27.4727C118.507 27.8503 118.35 28.2995 118.168 28.8203C117.999 29.3411 117.803 29.9141 117.582 30.5391L116.84 30.5781C116.736 30.0573 116.632 29.5885 116.527 29.1719C116.423 28.7422 116.319 28.3776 116.215 28.0781C116.098 27.7266 115.98 27.4141 115.863 27.1406C115.733 26.8672 115.59 26.5612 115.434 26.2227C115.29 25.9362 115.115 25.5977 114.906 25.207C114.711 24.8164 114.483 24.3802 114.223 23.8984C114.092 25.2266 114.014 26.3073 113.988 27.1406C113.962 27.9609 113.962 28.599 113.988 29.0547C114.014 29.6016 114.053 29.9987 114.105 30.2461C114.184 30.4674 114.307 30.7148 114.477 30.9883C114.62 31.2227 114.815 31.5026 115.062 31.8281C115.323 32.1406 115.655 32.4922 116.059 32.8828C115.772 32.8828 115.473 32.8828 115.16 32.8828C114.848 32.8828 114.561 32.8893 114.301 32.9023C113.988 32.9154 113.682 32.9219 113.383 32.9219C113.07 32.9349 112.706 32.9544 112.289 32.9805C111.924 33.0065 111.488 33.0326 110.98 33.0586C110.473 33.0846 109.887 33.1302 109.223 33.1953C109.509 33.013 109.743 32.8372 109.926 32.668C110.108 32.4857 110.251 32.3229 110.355 32.1797C110.486 32.0104 110.583 31.8411 110.648 31.6719C110.688 31.5677 110.72 31.3398 110.746 30.9883C110.785 30.6367 110.818 30.207 110.844 29.6992C110.883 29.1914 110.909 28.625 110.922 28C110.948 27.375 110.967 26.7435 110.98 26.1055C111.007 25.4544 111.026 24.8229 111.039 24.2109C111.052 23.5859 111.059 23.026 111.059 22.5312C111.072 22.0234 111.078 21.6003 111.078 21.2617C111.078 20.9232 111.078 20.7083 111.078 20.6172C111.039 20.4219 110.98 20.2266 110.902 20.0312C110.837 19.862 110.733 19.6862 110.59 19.5039C110.447 19.3216 110.258 19.1523 110.023 18.9961ZM132.191 19.1523C132.777 19.2565 133.259 19.3281 133.637 19.3672C134.014 19.4062 134.32 19.4388 134.555 19.4648C134.828 19.4909 135.043 19.4974 135.199 19.4844H135.785C135.993 19.4844 136.254 19.4844 136.566 19.4844C136.892 19.4714 137.296 19.4648 137.777 19.4648C138.051 20.1029 138.298 20.6888 138.52 21.2227C138.754 21.7565 138.949 22.2122 139.105 22.5898C139.288 23.0456 139.457 23.4557 139.613 23.8203C139.796 24.276 139.991 24.7773 140.199 25.3242C140.408 25.8711 140.596 26.3854 140.766 26.8672C140.948 27.349 141.098 27.7461 141.215 28.0586C141.332 28.3711 141.391 28.5143 141.391 28.4883C141.391 28.4753 141.397 28.3451 141.41 28.0977C141.423 27.8372 141.436 27.5182 141.449 27.1406C141.462 26.75 141.475 26.3268 141.488 25.8711C141.514 25.4023 141.527 24.9531 141.527 24.5234C141.54 24.0807 141.547 23.6771 141.547 23.3125C141.547 22.9479 141.534 22.6745 141.508 22.4922C141.469 22.2708 141.391 22.0169 141.273 21.7305C141.169 21.4831 141.026 21.1901 140.844 20.8516C140.661 20.5 140.408 20.1029 140.082 19.6602C140.616 19.6732 141.052 19.6797 141.391 19.6797C141.729 19.6797 142.003 19.6797 142.211 19.6797C142.445 19.6797 142.628 19.6732 142.758 19.6602C142.927 19.6602 143.135 19.6471 143.383 19.6211C143.604 19.5951 143.878 19.5755 144.203 19.5625C144.542 19.5365 144.958 19.5039 145.453 19.4648C145.167 19.7253 144.939 19.9727 144.77 20.207C144.6 20.4414 144.464 20.6497 144.359 20.832C144.242 21.0404 144.164 21.2357 144.125 21.418C144.073 21.6523 144.027 22.0365 143.988 22.5703C143.962 23.0911 143.93 23.6771 143.891 24.3281C143.865 24.9792 143.839 25.6562 143.812 26.3594C143.786 27.0625 143.76 27.707 143.734 28.293C143.734 28.7357 143.721 29.2109 143.695 29.7188C143.669 30.1484 143.643 30.6367 143.617 31.1836C143.591 31.7174 143.559 32.2578 143.52 32.8047L141.781 32.8438C141.273 31.9453 140.844 31.1771 140.492 30.5391C140.154 29.888 139.874 29.3542 139.652 28.9375C139.405 28.4557 139.197 28.0521 139.027 27.7266C138.884 27.4141 138.695 27.056 138.461 26.6523C138.266 26.3138 138.018 25.8971 137.719 25.4023C137.432 24.9076 137.087 24.3411 136.684 23.7031C136.645 24.6016 136.625 25.3698 136.625 26.0078C136.638 26.6328 136.658 27.1536 136.684 27.5703C136.723 28.0521 136.768 28.4557 136.82 28.7812C136.885 29.0938 136.977 29.4453 137.094 29.8359C137.198 30.1745 137.322 30.5716 137.465 31.0273C137.621 31.4831 137.81 31.9974 138.031 32.5703C137.263 32.5312 136.69 32.5117 136.312 32.5117H135.727C135.544 32.5117 135.297 32.5312 134.984 32.5703C134.724 32.5964 134.366 32.6354 133.91 32.6875C133.467 32.7396 132.914 32.8112 132.25 32.9023C132.562 32.5247 132.81 32.1797 132.992 31.8672C133.188 31.5417 133.337 31.2682 133.441 31.0469C133.572 30.7865 133.663 30.5586 133.715 30.3633C133.754 30.1549 133.78 29.7969 133.793 29.2891C133.806 28.7682 133.806 28.1823 133.793 27.5312C133.793 26.8672 133.78 26.1706 133.754 25.4414C133.741 24.7122 133.721 24.0352 133.695 23.4102C133.669 22.7852 133.637 22.2513 133.598 21.8086C133.572 21.3659 133.552 21.0924 133.539 20.9883C133.5 20.819 133.422 20.6367 133.305 20.4414C133.201 20.2721 133.064 20.0833 132.895 19.875C132.725 19.6536 132.491 19.4128 132.191 19.1523ZM145.551 19.5234C146.332 19.5885 147.016 19.6276 147.602 19.6406C148.201 19.6536 148.708 19.6602 149.125 19.6602C149.607 19.6602 150.023 19.6471 150.375 19.6211C150.74 19.582 151.215 19.5299 151.801 19.4648C152.296 19.3997 152.934 19.3151 153.715 19.2109C154.496 19.0938 155.447 18.944 156.566 18.7617C156.423 18.9831 156.299 19.2174 156.195 19.4648C156.104 19.6992 156.026 19.9141 155.961 20.1094C155.896 20.3438 155.837 20.5716 155.785 20.793C155.746 21.0404 155.701 21.3464 155.648 21.7109C155.596 22.0234 155.531 22.4206 155.453 22.9023C155.388 23.3711 155.303 23.931 155.199 24.582C154.809 23.5664 154.411 22.7852 154.008 22.2383C153.617 21.6914 153.253 21.2878 152.914 21.0273C152.523 20.7279 152.152 20.5586 151.801 20.5195C151.293 20.5195 150.876 20.6172 150.551 20.8125C150.225 21.0078 149.958 21.2617 149.75 21.5742C149.555 21.8737 149.405 22.2057 149.301 22.5703C149.197 22.9219 149.125 23.2669 149.086 23.6055C149.047 23.931 149.021 24.224 149.008 24.4844C148.995 24.7318 148.982 24.901 148.969 24.9922C149.424 24.9661 149.809 24.9336 150.121 24.8945C150.434 24.8555 150.681 24.8164 150.863 24.7773C151.085 24.7253 151.26 24.6732 151.391 24.6211C151.586 24.5169 151.781 24.3932 151.977 24.25C152.146 24.1198 152.322 23.9635 152.504 23.7812C152.699 23.599 152.868 23.3776 153.012 23.1172C152.934 23.5859 152.862 23.9766 152.797 24.2891C152.745 24.6016 152.699 24.849 152.66 25.0312C152.608 25.2526 152.576 25.4219 152.562 25.5391C152.536 25.6562 152.504 25.819 152.465 26.0273C152.426 26.2096 152.38 26.444 152.328 26.7305C152.276 27.0169 152.217 27.375 152.152 27.8047C151.996 27.5312 151.833 27.3099 151.664 27.1406C151.495 26.9583 151.339 26.8151 151.195 26.7109C151.026 26.5938 150.863 26.5026 150.707 26.4375C150.538 26.3854 150.355 26.3333 150.16 26.2812C149.991 26.2422 149.789 26.2031 149.555 26.1641C149.333 26.112 149.092 26.0664 148.832 26.0273C148.858 26.7305 148.897 27.3359 148.949 27.8438C149.001 28.3385 149.047 28.7552 149.086 29.0938C149.138 29.4844 149.19 29.8099 149.242 30.0703C149.307 30.3307 149.411 30.6107 149.555 30.9102C149.672 31.1706 149.835 31.4701 150.043 31.8086C150.264 32.1341 150.544 32.4857 150.883 32.8633C150.622 32.7982 150.349 32.7526 150.062 32.7266C149.776 32.7005 149.522 32.681 149.301 32.668C149.027 32.6549 148.767 32.6549 148.52 32.668C148.259 32.681 147.973 32.707 147.66 32.7461C147.4 32.7721 147.1 32.8112 146.762 32.8633C146.423 32.9154 146.065 32.974 145.688 33.0391C145.909 32.8177 146.091 32.5964 146.234 32.375C146.378 32.1536 146.482 31.9583 146.547 31.7891C146.625 31.5938 146.677 31.4049 146.703 31.2227C146.716 31.0664 146.723 30.7279 146.723 30.207C146.723 29.6732 146.716 29.0547 146.703 28.3516C146.69 27.6354 146.671 26.8802 146.645 26.0859C146.618 25.2917 146.592 24.5495 146.566 23.8594C146.54 23.1562 146.508 22.5573 146.469 22.0625C146.443 21.5677 146.41 21.2682 146.371 21.1641C146.319 21.0339 146.26 20.8841 146.195 20.7148C146.091 20.4414 145.876 20.0443 145.551 19.5234ZM155.082 18.7422C155.954 18.8464 156.71 18.9245 157.348 18.9766C157.986 19.0156 158.513 19.0482 158.93 19.0742C159.411 19.1003 159.815 19.1068 160.141 19.0938C160.479 19.0807 160.941 19.0482 161.527 18.9961C162.022 18.957 162.673 18.9049 163.48 18.8398C164.288 18.7617 165.297 18.6576 166.508 18.5273C166.521 18.8268 166.527 19.1198 166.527 19.4062C166.54 19.6797 166.553 19.9206 166.566 20.1289C166.579 20.3763 166.586 20.6042 166.586 20.8125C166.586 21.0339 166.573 21.3138 166.547 21.6523C166.521 21.9388 166.475 22.3034 166.41 22.7461C166.358 23.1758 166.273 23.6901 166.156 24.2891C165.974 23.5859 165.798 23.0195 165.629 22.5898C165.46 22.1471 165.303 21.7956 165.16 21.5352C165.004 21.2357 164.848 21.0078 164.691 20.8516C164.522 20.7344 164.32 20.6367 164.086 20.5586C163.878 20.4935 163.611 20.4414 163.285 20.4023C162.973 20.3633 162.602 20.3698 162.172 20.4219C162.107 22.1406 162.061 23.5339 162.035 24.6016C162.009 25.6693 161.99 26.5026 161.977 27.1016C161.964 27.8177 161.957 28.332 161.957 28.6445C161.97 29.0872 162.042 29.5234 162.172 29.9531C162.276 30.3177 162.445 30.6953 162.68 31.0859C162.914 31.4766 163.253 31.8216 163.695 32.1211H161.312C161.091 32.1211 160.818 32.1341 160.492 32.1602C160.219 32.1862 159.867 32.2122 159.438 32.2383C159.021 32.2643 158.533 32.3099 157.973 32.375C158.168 32.0365 158.324 31.7305 158.441 31.457C158.559 31.1836 158.65 30.9492 158.715 30.7539C158.793 30.5195 158.852 30.3112 158.891 30.1289C158.904 29.8685 158.936 29.3411 158.988 28.5469C159.001 28.2214 159.014 27.8177 159.027 27.3359C159.053 26.8542 159.079 26.2812 159.105 25.6172C159.145 24.9531 159.177 24.1914 159.203 23.332C159.242 22.4596 159.281 21.4766 159.32 20.3828C159.086 20.3177 158.865 20.3242 158.656 20.4023C158.448 20.4674 158.266 20.5521 158.109 20.6562C157.927 20.7865 157.751 20.9427 157.582 21.125C157.413 21.3464 157.224 21.6328 157.016 21.9844C156.833 22.2839 156.625 22.681 156.391 23.1758C156.156 23.6576 155.889 24.2565 155.59 24.9727C155.525 24.2174 155.479 23.599 155.453 23.1172C155.427 22.6224 155.408 22.2383 155.395 21.9648C155.382 21.6393 155.375 21.3984 155.375 21.2422C155.375 21.099 155.362 20.9102 155.336 20.6758C155.31 20.4805 155.277 20.2266 155.238 19.9141C155.199 19.5885 155.147 19.1979 155.082 18.7422Z" fill="black"/>
</svg>
