<svg width="252" height="141" viewBox="0 0 302 191" fill="none" xmlns="http://www.w3.org/2000/svg">
<mask id="path-1-inside-1_76_7039" fill="white">
<path fill-rule="evenodd" clip-rule="evenodd" d="M134.943 171C252.122 156.826 302 117.072 302 78.1845C302 39.2971 236.186 0 141.093 0C45.9998 0 5.12443 16.4599 0 86.8717C0 117.304 24.4058 151.628 80.5946 165.115L81.8082 190.207L90.8861 167.281C104.004 169.674 118.664 171 134.943 171Z"/>
</mask>
<path fill-rule="evenodd" clip-rule="evenodd" d="M134.943 171C252.122 156.826 302 117.072 302 78.1845C302 39.2971 236.186 0 141.093 0C45.9998 0 5.12443 16.4599 0 86.8717C0 117.304 24.4058 151.628 80.5946 165.115L81.8082 190.207L90.8861 167.281C104.004 169.674 118.664 171 134.943 171Z" fill="white"/>
<path d="M134.943 171V176H135.245L135.544 175.964L134.943 171ZM0 86.8717L-4.98681 86.5087L-5 86.69V86.8717H0ZM80.5946 165.115L85.5888 164.873L85.4076 161.128L81.7616 160.253L80.5946 165.115ZM81.8082 190.207L76.8141 190.448L86.457 192.048L81.8082 190.207ZM90.8861 167.281L91.7834 162.363L87.7477 161.626L86.2373 165.441L90.8861 167.281ZM297 78.1845C297 95.2321 286.097 113.527 259.807 129.593C233.53 145.651 192.548 158.996 134.343 166.036L135.544 175.964C194.518 168.83 237.064 155.211 265.021 138.126C292.964 121.05 307 100.024 307 78.1845H297ZM141.093 5C188.003 5 227.409 14.7008 254.906 28.9489C282.753 43.3785 297 61.632 297 78.1845H307C307 55.8497 288.34 35.0109 259.507 20.0701C230.323 4.94776 189.276 -5 141.093 -5V5ZM4.98681 87.2346C7.4737 53.0638 18.458 33.2016 39.2772 21.3793C60.7619 9.17911 93.5313 5 141.093 5V-5C93.5613 -5 58.3466 -0.949165 34.3392 12.6835C9.66636 26.6941 -2.34926 50.2678 -4.98681 86.5087L4.98681 87.2346ZM81.7616 160.253C27.1003 147.133 5 114.325 5 86.8717H-5C-5 120.283 21.7114 156.123 79.4276 169.976L81.7616 160.253ZM86.8024 189.965L85.5888 164.873L75.6004 165.356L76.8141 190.448L86.8024 189.965ZM86.2373 165.441L77.1594 188.366L86.457 192.048L95.535 169.122L86.2373 165.441ZM134.943 166C118.934 166 104.577 164.696 91.7834 162.363L89.9889 172.2C103.432 174.652 118.395 176 134.943 176V166Z" fill="black" mask="url(#path-1-inside-1_76_7039)"/>
<path d="M59.6621 59.8953C60.9928 59.8088 62.097 59.9941 62.9748 60.4514C63.8734 60.9077 64.6101 61.4658 65.185 62.1258C65.7599 62.7858 66.2105 63.4623 66.5367 64.1554C66.8619 64.8277 67.1175 65.3574 67.3035 65.7445C67.3502 65.8465 67.4401 65.9776 67.5732 66.138C67.6844 66.2785 67.8388 66.4482 68.0363 66.647C68.2537 66.824 68.5245 67.0296 68.849 67.2639C68.205 67.3166 67.6338 67.3656 67.1354 67.4111C66.636 67.4357 66.21 67.4672 65.8572 67.5054C65.4629 67.5458 65.1102 67.584 64.7991 67.6202C64.488 67.6564 64.1046 67.7067 63.6489 67.7709C63.2348 67.833 62.727 67.8998 62.1257 67.9712C61.5243 68.0426 60.7887 68.1415 59.9189 68.2678C60.4082 67.6179 60.7868 67.0465 61.0545 66.5535C61.342 66.0387 61.5493 65.5904 61.6765 65.2087C61.8234 64.8051 61.9001 64.4572 61.9065 64.1649C61.9338 63.8715 61.9111 63.6223 61.8384 63.4173C61.6899 62.9449 61.3504 62.6175 60.82 62.4351C59.3012 62.0928 58.0068 62.4905 56.9365 63.6279C55.8861 64.7435 55.1816 66.5304 54.8232 68.9886C54.6539 70.2068 54.4975 71.4764 54.3541 72.7976C54.2305 74.0969 54.2162 75.2866 54.3112 76.3665C54.4052 77.4257 54.6559 78.279 55.0633 78.9263C55.4707 79.5737 56.1312 79.854 57.0447 79.7672C57.9373 79.6814 58.6896 79.4983 59.3016 79.2178C59.9125 78.9165 60.3964 78.5797 60.7535 78.2075C61.1096 77.8145 61.3502 77.4063 61.4753 76.9829C61.6202 76.5378 61.6626 76.1289 61.6025 75.7564C61.5049 75.4692 61.271 75.1679 60.9008 74.8524C60.5743 74.5765 60.0903 74.2771 59.4486 73.9542C58.8058 73.6104 57.8921 73.2696 56.7073 72.9318C57.8071 72.8149 58.7102 72.7286 59.4166 72.6729C60.1428 72.5954 60.713 72.5255 61.1271 72.4634C61.6245 72.3971 62.0079 72.3469 62.2773 72.3127C62.526 72.2796 62.8891 72.2408 63.3667 72.1964C63.7818 72.1551 64.3119 72.1185 64.957 72.0866C65.6228 72.0538 66.4546 72.0023 67.4524 71.9322C67.0963 72.3252 66.8219 72.6829 66.6293 73.0053C66.5334 73.1769 66.447 73.3272 66.3699 73.4562C66.297 73.6683 66.2868 74.0964 66.3394 74.7405C66.3661 75.2815 66.4473 76.0805 66.5829 77.1376C66.7175 78.1739 66.9439 79.5916 67.2621 81.3906L63.1386 82.1572L63.1179 77.9344C62.6958 79.1024 62.1345 79.9853 61.434 80.5831C60.7542 81.1798 60.0975 81.6086 59.4637 81.8693C58.7072 82.1778 57.9122 82.3422 57.0789 82.3624C55.9917 82.3118 54.8974 82.1155 53.7958 81.7735C52.6943 81.4316 51.7074 80.8754 50.835 80.1049C49.9616 79.3137 49.2637 78.2739 48.7412 76.9856C48.2395 75.6962 48.0242 74.0799 48.0952 72.1365C48.1869 70.1922 48.5615 68.4841 49.219 67.0124C49.8962 65.5189 50.7626 64.2663 51.8182 63.2547C52.8738 62.2432 54.0764 61.4642 55.4261 60.9178C56.7956 60.3496 58.2076 60.0088 59.6621 59.8953ZM76.8189 76.6012C77.4015 76.5725 77.9394 76.4833 78.4327 76.3338C78.8437 76.2093 79.2308 76.0233 79.5941 75.7759C79.9771 75.5067 80.2192 75.1297 80.3205 74.645C80.7407 74.7077 81.0981 74.7631 81.3925 74.8111C81.6858 74.8383 81.9376 74.8676 82.1477 74.899C82.3797 74.9501 82.5794 74.982 82.7469 74.9946C82.9154 75.028 83.1152 75.0598 83.3461 75.0902C83.5562 75.1215 83.8085 75.1612 84.1029 75.2092C84.4171 75.2355 84.7843 75.2799 85.2045 75.3426C84.8904 75.3164 84.5694 75.3635 84.2416 75.484C83.9346 75.6034 83.6385 75.7328 83.3534 75.872C83.0276 76.0341 82.7243 76.2264 82.4432 76.4488C82.2621 76.5829 82.0529 76.781 81.8155 77.043C81.5989 77.304 81.2778 77.5597 80.8521 77.8101C80.4265 78.0606 79.8536 78.287 79.1335 78.4894C78.4332 78.67 77.5202 78.7672 76.3946 78.781C75.04 78.8062 73.8941 78.6228 72.957 78.231C72.0189 77.8184 71.253 77.3035 70.6593 76.6862C70.0647 76.048 69.6235 75.3502 69.3358 74.5926C69.0481 73.835 68.8774 73.1238 68.8238 72.459C68.7701 71.7942 68.9334 71.0873 69.3136 70.3385C69.6938 69.5897 70.2436 68.8951 70.9629 68.2547C71.703 67.6133 72.6048 67.0786 73.6684 66.6507C74.7309 66.2019 75.9072 65.9457 77.1973 65.882C77.9463 65.8451 78.6376 65.9048 79.2711 66.0613C79.9244 66.1959 80.5183 66.396 81.0529 66.6617C81.6083 66.9263 82.0929 67.2361 82.5067 67.5912C82.9195 67.9254 83.2704 68.2731 83.5594 68.6343C83.8494 69.0163 84.0988 69.4212 84.3077 69.8489C84.4926 70.2152 84.6489 70.6351 84.7766 71.1086C84.9042 71.582 84.9596 72.0695 84.9426 72.5709C83.3633 72.6906 82.0851 72.7849 81.1082 72.854C80.152 72.922 79.4034 72.9694 78.8624 72.9961L77.4579 73.0654L76.3967 73.1178C76.0221 73.1363 75.5337 73.1708 74.9313 73.2214C74.3288 73.272 73.5917 73.3396 72.7198 73.4244C72.8649 74.2516 73.1569 74.8838 73.5956 75.321C74.0542 75.7364 74.5284 76.0468 75.0182 76.252C75.5716 76.475 76.1718 76.5914 76.8189 76.6012ZM73.7326 71.1217C74.4005 71.1304 74.9534 71.1344 75.3914 71.1337C75.8502 71.1319 76.2258 71.1342 76.5181 71.1406C76.8313 71.1461 77.0815 71.1441 77.2688 71.1349L78.0491 71.0964C78.5693 71.0707 79.5353 70.9918 80.9472 70.8595C80.8395 69.947 80.6075 69.2597 80.2509 68.7976C79.9152 68.3344 79.5648 67.9971 79.1998 67.7856C78.7713 67.5565 78.3063 67.4334 77.8049 67.4164C76.4534 67.504 75.4581 67.8347 74.8189 68.4086C74.2006 68.9814 73.8384 69.8858 73.7326 71.1217ZM85.2728 61.5099C85.9002 61.5416 86.4229 61.5679 86.8411 61.589C87.2802 61.609 87.6354 61.6228 87.907 61.6302C88.2201 61.6357 88.4703 61.6337 88.6576 61.6245C88.8459 61.6361 89.0956 61.6237 89.4067 61.5875C89.6762 61.5534 90.0289 61.5151 90.4648 61.4727C90.8997 61.4096 91.4481 61.3199 92.1098 61.2038C91.9744 61.4191 91.8692 61.612 91.7942 61.7826C91.7182 61.9323 91.652 62.0712 91.5957 62.1991L91.4269 62.5829C91.3915 62.7098 91.356 62.8367 91.3206 62.9636C91.2841 63.0697 91.2486 63.1966 91.2142 63.3443C91.2006 63.491 91.1875 63.6481 91.1749 63.8156L95.9815 63.5784L95.6693 66.1281L91.2561 66.0956C91.2045 67.1619 91.1722 67.9874 91.1593 68.5721C91.1465 69.1568 91.1259 69.5854 91.0976 69.858L91.0629 70.4229C91.0395 71.2167 91.0197 72.0833 91.0035 73.0227C90.9863 73.9414 91.0075 74.7955 91.0674 75.5852C91.1272 76.3749 91.2329 77.0371 91.3844 77.572C91.535 78.086 91.7663 78.3353 92.0784 78.3199C92.3905 78.3045 92.6777 78.2069 92.94 78.0271C93.2023 77.8473 93.4214 77.6383 93.5974 77.4002C93.7942 77.161 93.939 76.9244 94.0317 76.6904C94.1234 76.4356 94.1662 76.2457 94.16 76.1209C94.1539 75.9961 94.1155 75.8519 94.0448 75.6886C93.9254 75.3816 93.7186 74.9955 93.4245 74.5302C94.0351 74.6461 94.5729 74.7656 95.0379 74.8886C95.2709 74.9606 95.4831 75.0335 95.6744 75.1075C95.8866 75.1805 96.1305 75.2623 96.4062 75.353C96.6402 75.4458 96.9377 75.5562 97.2986 75.6844C97.6595 75.8126 98.0844 75.969 98.5733 76.1534C98.1196 76.2592 97.7933 76.4109 97.5945 76.6085C97.4738 76.6979 97.3847 76.7961 97.3274 76.9032C97.1931 77.1393 97.042 77.4596 96.8743 77.8642C96.7055 78.248 96.4431 78.6364 96.087 79.0295C95.7309 79.4225 95.2376 79.7806 94.6069 80.1037C93.997 80.4258 93.1625 80.6339 92.1034 80.7279C91.0026 80.8239 90.1506 80.6782 89.5475 80.2908C88.9651 79.9024 88.5253 79.4443 88.2281 78.9167C87.9507 78.3672 87.7778 77.823 87.7095 77.284C87.6412 76.745 87.592 76.3824 87.562 76.1962C87.5319 76.01 87.5088 75.5418 87.4927 74.7917C87.4765 74.0415 87.4672 73.2181 87.4646 72.3213C87.4611 71.4037 87.4595 70.5277 87.4601 69.6933C87.4596 68.8381 87.4496 68.2129 87.4301 67.8175C87.4198 67.6094 87.4194 67.3904 87.429 67.1605C87.4197 66.9733 87.41 66.7756 87.3997 66.5675C87.4092 66.3376 87.4088 66.1186 87.3986 65.9105L82.8713 66.1026L82.5962 64.3328L87.1593 64.2328C87.1064 64.0059 87.0441 63.8004 86.9725 63.6162C86.9206 63.4102 86.8707 63.2458 86.823 63.123C86.7534 62.9804 86.6848 62.8586 86.6172 62.7577C86.5288 62.6578 86.4296 62.5479 86.3194 62.4282C86.2102 62.3293 86.0683 62.2007 85.8936 62.0425C85.7189 61.8842 85.512 61.7067 85.2728 61.5099ZM105.054 57.843C105.854 57.9913 106.568 58.102 107.198 58.1752C107.847 58.2266 108.391 58.2624 108.83 58.2824C109.353 58.3192 109.812 58.3174 110.206 58.2771C110.705 58.2316 111.325 58.128 112.068 57.9662C112.811 57.8043 113.596 57.6405 114.422 57.4746C115.248 57.3086 116.065 57.164 116.872 57.0408C117.68 56.9175 118.387 56.8722 118.993 56.9048C119.6 56.9375 120.241 57.0518 120.919 57.2478C121.595 57.423 122.233 57.6835 122.834 58.0293C123.435 58.3543 123.955 58.7666 124.397 59.2663C124.86 59.7649 125.16 60.355 125.298 61.0366C125.435 61.6973 125.408 62.4182 125.217 63.1994C125.025 63.9598 124.698 64.7165 124.234 65.4694C123.77 66.2015 123.178 66.8878 122.458 67.5282C121.739 68.1686 120.931 68.6986 120.034 69.1184C119.319 69.4248 118.538 69.6719 117.693 69.8597C116.97 70.0204 116.121 70.1458 115.145 70.2357C114.189 70.3037 113.165 70.25 112.071 70.0745C111.955 70.6851 111.9 71.251 111.905 71.7722C111.929 72.2716 111.972 72.718 112.033 73.1113C112.118 73.566 112.222 73.978 112.345 74.3474C112.488 74.7158 112.666 75.1451 112.878 75.6352C113.065 76.0432 113.277 76.5437 113.515 77.1369C113.773 77.7082 114.075 78.3503 114.423 79.0632C114.049 79.0817 113.685 79.1101 113.333 79.1483C112.979 79.1658 112.657 79.1921 112.367 79.2273C112.035 79.2645 111.724 79.3007 111.433 79.3359C111.101 79.3732 110.729 79.4333 110.316 79.5162C109.964 79.5753 109.52 79.6598 108.983 79.7697C108.467 79.8786 107.879 80.0119 107.219 80.1697C107.625 79.5238 107.94 78.9347 108.165 78.4022C108.408 77.8478 108.583 77.3699 108.688 76.9684C108.811 76.5034 108.884 76.0826 108.908 75.706C108.913 75.3929 108.886 74.8415 108.826 74.0518C108.787 73.2611 108.731 72.346 108.659 71.3067C108.587 70.2673 108.502 69.1764 108.404 68.034C108.306 66.8916 108.201 65.8226 108.089 64.8269C107.976 63.8104 107.86 62.94 107.741 62.2159C107.643 61.4907 107.557 61.0151 107.483 60.7893C107.386 60.5229 107.226 60.2388 107.003 59.937C106.823 59.6747 106.568 59.3744 106.239 59.036C105.929 58.6759 105.534 58.2782 105.054 57.843ZM111.818 63.6729C111.807 63.882 111.808 64.101 111.819 64.3299C111.841 64.7669 111.9 65.3272 111.996 66.0108C112.159 66.3573 112.35 66.6399 112.57 66.8585C112.81 67.0761 113.058 67.2412 113.314 67.3537C113.59 67.4652 113.865 67.5351 114.138 67.5633C114.41 67.5916 114.682 67.5991 114.952 67.5857C115.575 67.5341 116.224 67.3561 116.897 67.0517C117.793 66.6112 118.41 66.0175 118.749 65.2708C119.087 64.524 119.248 63.7652 119.231 62.9942C119.214 62.2233 119.044 61.5225 118.721 60.8918C118.418 60.2601 118.064 59.8396 117.657 59.6302C117.317 59.501 116.887 59.4596 116.368 59.5061C115.911 59.5495 115.345 59.6922 114.668 59.9341C113.992 60.1761 113.168 60.5922 112.196 61.1825C112.11 61.5622 112.043 61.8993 111.995 62.1936C111.947 62.488 111.908 62.7507 111.878 62.9816C111.848 63.2334 111.828 63.4638 111.818 63.6729ZM125.829 64.8275C126.376 64.9048 126.848 64.965 127.246 65.0079C127.664 65.0289 128.02 65.0531 128.314 65.0803C128.649 65.1055 128.941 65.1224 129.192 65.1309C129.443 65.1393 129.735 65.1458 130.069 65.1501C130.632 65.1432 131.423 65.1042 132.441 65.0331C131.836 65.0213 131.365 65.2009 131.029 65.5721C130.712 65.9215 130.481 66.3187 130.337 66.7639C130.154 67.2944 130.069 67.9035 130.083 68.5912C130.086 69.5088 130.148 70.3401 130.268 71.0851C130.408 71.8082 130.616 72.4237 130.891 72.9316C131.186 73.4176 131.559 73.7747 132.008 74.0029C132.456 74.2102 133.021 74.2449 133.703 74.1069C134.384 73.969 134.893 73.7041 135.228 73.3121C135.583 72.8982 135.83 72.4063 135.968 71.8363C136.106 71.2454 136.167 70.5853 136.152 69.856C136.158 69.1257 136.152 68.3647 136.133 67.5729C136.094 66.7822 136.056 66.2209 136.019 65.889C136.002 65.5353 135.98 65.3069 135.954 65.2039C135.928 65.1009 135.895 65.0608 135.854 65.0837C135.813 65.0857 135.758 65.0363 135.69 64.9353C135.645 64.8541 135.578 64.774 135.491 64.6949C135.424 64.6147 135.336 64.5252 135.227 64.4263C135.117 64.3066 134.996 64.1874 134.865 64.0687C135.408 64.0628 135.887 64.06 136.304 64.0603C136.741 64.0387 137.106 64.0311 137.398 64.0376C137.732 64.0419 138.025 64.0484 138.275 64.0569C138.505 64.0664 138.808 64.0827 139.185 64.1058C139.499 64.132 139.907 64.1536 140.408 64.1706C140.91 64.1876 141.506 64.2207 142.197 64.2701C141.723 64.3977 141.346 64.5728 141.065 64.7952C140.784 65.0177 140.565 65.2371 140.409 65.4534C140.233 65.6915 140.11 65.9479 140.04 66.2225C139.995 66.5793 140.022 67.1203 140.121 67.8455C140.194 68.4885 140.342 69.3677 140.564 70.4831C140.785 71.5985 141.118 73.0631 141.563 74.8767L139.169 76.4654L138.465 72.3388C137.912 73.3882 137.306 74.2107 136.647 74.8064C136.008 75.3803 135.403 75.8065 134.833 76.0849C134.16 76.4101 133.503 76.6094 132.86 76.6829C132.007 76.725 131.265 76.7094 130.636 76.6362C130.026 76.5411 129.499 76.4107 129.052 76.245C128.606 76.0793 128.242 75.8887 127.96 75.6731C127.698 75.4358 127.499 75.1953 127.362 74.9518C127.045 74.4459 126.856 73.7878 126.795 72.9773C126.733 72.146 126.724 71.3226 126.767 70.5069C126.809 69.6705 126.865 68.9064 126.935 68.2146C127.005 67.5228 127.013 67.0531 126.96 66.8054C126.909 66.6202 126.836 66.4152 126.741 66.1904C126.649 66.0073 126.535 65.8043 126.399 65.5816C126.261 65.3381 126.072 65.0867 125.829 64.8275ZM142.475 63.568C142.952 63.5028 143.355 63.4411 143.686 63.3831C144.038 63.324 144.327 63.268 144.554 63.2151C144.822 63.1601 145.049 63.1072 145.234 63.0564C145.421 63.0263 145.627 62.9744 145.853 62.9007C146.059 62.8488 146.285 62.7855 146.531 62.7108C146.798 62.6142 147.085 62.5062 147.392 62.3867L147.4 66.3599C147.822 65.609 148.325 65.0314 148.91 64.6271C149.494 64.202 150.052 63.8824 150.584 63.6685C151.217 63.4077 151.856 63.2407 152.499 63.1672C153.166 63.1552 153.785 63.2289 154.356 63.3885C154.842 63.5313 155.334 63.7678 155.83 64.0979C156.347 64.427 156.757 64.9282 157.062 65.6015C157.733 64.8383 158.403 64.2421 159.07 63.8129C159.757 63.3618 160.366 63.0189 160.896 62.7841C161.53 62.5234 162.127 62.3583 162.687 62.289C163.435 62.2312 164.127 62.3222 164.765 62.5619C165.423 62.8006 166.002 63.1162 166.501 63.5087C166.999 63.8804 167.405 64.288 167.719 64.7314C168.032 65.154 168.218 65.5307 168.276 65.8616C168.361 66.3163 168.359 66.9109 168.27 67.6453C168.18 68.359 168.07 69.0944 167.941 69.8517C167.81 70.5882 167.688 71.2722 167.573 71.9036C167.478 72.5132 167.447 72.9423 167.48 73.191C167.552 73.396 167.71 73.6385 167.954 73.9185C168.174 74.158 168.491 74.4552 168.905 74.8102C169.339 75.1434 169.952 75.5303 170.746 75.9709C170.079 75.983 169.485 75.9914 168.964 75.9963C168.463 76.0001 168.035 75.99 167.679 75.9658C167.261 75.9447 166.895 75.9315 166.582 75.9261C166.333 75.9384 166.03 75.9325 165.674 75.9083C165.382 75.9019 164.995 75.8897 164.515 75.8717C164.055 75.8526 163.522 75.8372 162.917 75.8254C163.142 75.7516 163.324 75.628 163.461 75.4543C163.598 75.2599 163.714 75.0768 163.81 74.9052C163.904 74.692 163.975 74.459 164.026 74.2062C164.057 73.9961 164.082 73.6611 164.101 73.2013C164.12 72.7415 164.126 72.2197 164.118 71.6361C164.131 71.0514 164.121 70.4365 164.089 69.7915C164.078 69.1454 164.048 68.5316 163.998 67.95C163.949 67.3684 163.881 66.8398 163.795 66.3643C163.709 65.8888 163.608 65.5288 163.491 65.2842C163.399 65.1011 163.246 64.9626 163.033 64.8688C162.819 64.7542 162.576 64.6932 162.304 64.6858C162.032 64.6575 161.762 64.6812 161.494 64.757C161.226 64.812 160.991 64.907 160.789 65.0421C160.609 65.197 160.369 65.407 160.069 65.6721C159.81 65.9144 159.471 66.2439 159.054 66.6609C158.636 67.0778 158.11 67.6044 157.474 68.2407C157.476 69.5547 157.476 70.6184 157.475 71.432C157.493 72.2237 157.502 72.8282 157.502 73.2454C157.505 73.7458 157.512 74.0896 157.521 74.2769C157.509 74.4444 157.527 74.6 157.575 74.7436C157.632 75.0536 157.772 75.3388 157.993 75.599C157.74 75.5489 157.468 75.5206 157.175 75.5142C156.904 75.5068 156.653 75.4983 156.423 75.4888C156.152 75.4813 155.881 75.4842 155.61 75.4976C155.381 75.5089 155.132 75.5316 154.863 75.5658C154.635 75.5979 154.355 75.6429 154.025 75.701C153.693 75.7382 153.33 75.7874 152.937 75.8485C153.098 75.7363 153.227 75.6048 153.324 75.454C153.421 75.3032 153.497 75.1638 153.554 75.0359C153.63 74.8861 153.686 74.7478 153.721 74.6209C153.736 74.495 153.762 74.1912 153.801 73.7096C153.839 73.2071 153.852 72.6224 153.84 71.9555C153.828 71.2887 153.793 70.5916 153.737 69.8643C153.679 69.1163 153.573 68.4436 153.418 67.8463C153.262 67.2283 153.039 66.7282 152.749 66.3462C152.48 65.9632 152.139 65.8028 151.724 65.8649C151.227 65.9312 150.724 66.0812 150.214 66.3149C149.785 66.5029 149.329 66.7757 148.846 67.1333C148.363 67.4909 147.917 67.9614 147.508 68.5448C147.501 70.1095 147.511 71.3501 147.535 72.2667C147.58 73.1822 147.625 73.8788 147.669 74.3563C147.718 74.9171 147.758 75.3011 147.789 75.5081C147.817 75.6527 147.876 75.7958 147.966 75.9374C148.035 76.0591 148.115 76.2012 148.206 76.3636C148.319 76.5249 148.441 76.6753 148.573 76.8148L143.598 76.81C143.76 76.7186 143.901 76.6073 144.019 76.4763C144.137 76.3245 144.234 76.1737 144.31 76.024C144.385 75.8534 144.46 75.6828 144.535 75.5122C144.59 75.3635 144.625 75.0176 144.64 74.4745C144.676 73.9305 144.697 73.2932 144.702 72.5629C144.707 71.8118 144.7 71.0299 144.68 70.2174C144.681 69.383 144.664 68.6121 144.629 67.9046C144.614 67.1753 144.594 66.561 144.569 66.0616C144.544 65.5414 144.518 65.2298 144.492 65.1267C144.419 64.9217 144.294 64.7089 144.116 64.4882C143.962 64.329 143.756 64.1618 143.497 63.9869C143.237 63.7911 142.896 63.6515 142.475 63.568ZM169.298 62.4946C169.959 62.3577 170.496 62.2478 170.909 62.1648C171.342 62.06 171.693 61.9801 171.961 61.9252C172.27 61.8473 172.507 61.7835 172.671 61.7337C172.836 61.6839 173.072 61.6096 173.38 61.511C173.646 61.4144 173.995 61.3033 174.427 61.1777C174.858 61.0313 175.401 60.8376 176.057 60.5967C175.901 60.813 175.775 61.0069 175.679 61.1785C175.603 61.3283 175.526 61.4572 175.448 61.5654C175.371 61.6943 175.303 61.8124 175.246 61.9195C175.189 62.0266 175.134 62.1858 175.082 62.3969C175.049 62.5654 175.008 62.8073 174.961 63.1225C174.913 63.4169 174.88 63.8044 174.862 64.2851C175.951 63.5221 176.955 62.9407 177.874 62.5408C178.813 62.1398 179.633 61.849 180.334 61.6684C181.158 61.4609 181.904 61.3615 182.572 61.3703C183.407 61.3916 184.186 61.5409 184.909 61.8181C185.652 62.0735 186.325 62.3949 186.928 62.7823C187.531 63.1697 188.063 63.6023 188.525 64.0801C188.987 64.558 189.355 65.0404 189.629 65.5275C189.812 65.8522 189.939 66.3256 190.012 66.9478C190.105 67.569 190.076 68.2379 189.923 68.9546C189.771 69.6714 189.472 70.3849 189.028 71.0951C188.603 71.7836 187.973 72.3465 187.14 72.784C185.695 73.5227 184.247 73.9697 182.794 74.1248C182.172 74.1972 181.526 74.2082 180.856 74.1579C180.207 74.1065 179.543 73.9619 178.864 73.7243C178.205 73.4856 177.562 73.1315 176.934 72.6619C176.305 72.1715 175.721 71.5328 175.181 70.7459C175.067 71.8154 174.988 72.7475 174.944 73.5423C174.919 74.3153 174.909 74.9624 174.914 75.4836C174.923 76.0881 174.948 76.5979 174.99 77.013C175.052 77.4271 175.157 77.8704 175.306 78.3428C175.43 78.7538 175.6 79.2252 175.813 79.757C176.049 80.3085 176.338 80.8783 176.68 81.4663C176.553 81.4309 176.375 81.4084 176.145 81.3989C175.937 81.4092 175.719 81.4407 175.492 81.4937C175.245 81.5476 174.966 81.6031 174.656 81.6601C174.368 81.7369 174.049 81.8256 173.699 81.9263C173.411 82.0031 173.071 82.0929 172.68 82.1956C172.31 82.3182 171.931 82.4516 171.542 82.596C171.758 82.3142 171.919 81.9933 172.026 81.6334C172.156 81.2933 172.255 80.9755 172.324 80.6801C172.389 80.3223 172.445 79.9649 172.49 79.6081C172.495 79.295 172.497 78.7004 172.495 77.8244C172.516 76.9682 172.519 75.9773 172.505 74.8516C172.49 73.7051 172.463 72.5071 172.422 71.2576C172.402 70.007 172.366 68.8512 172.313 67.79C172.281 66.7069 172.235 65.7914 172.178 65.0433C172.12 64.2952 172.057 63.8603 171.988 63.7386C171.898 63.597 171.734 63.4486 171.497 63.2935C171.302 63.1571 171.025 63.0248 170.664 62.8966C170.324 62.7673 169.869 62.6333 169.298 62.4946ZM177.007 67.8086C176.885 68.2944 176.877 68.7641 176.983 69.2178C177.089 69.6714 177.318 70.0877 177.67 70.4667C178.044 70.8446 178.55 71.1742 179.19 71.4555C179.849 71.715 180.661 71.8939 181.625 71.9923C182.59 72.0907 183.317 72.034 183.807 71.8221C184.297 71.6102 184.647 71.3009 184.856 70.8942C185.086 70.4658 185.228 69.979 185.285 69.4338C185.34 68.8679 185.416 68.2802 185.511 67.6706C185.607 67.0818 185.557 66.4898 185.361 65.8946C185.163 65.2785 184.896 64.7285 184.56 64.2445C184.244 63.7595 183.891 63.3702 183.501 63.0766C183.131 62.7611 182.81 62.61 182.54 62.6234C181.895 62.6552 181.268 62.853 180.66 63.2167C180.053 63.5805 179.501 64.0249 179.005 64.5499C178.51 65.075 178.079 65.6386 177.712 66.2407C177.365 66.821 177.13 67.3436 177.007 67.8086ZM199.607 70.5418C200.19 70.513 200.728 70.4239 201.221 70.2744C201.632 70.1498 202.019 69.9639 202.382 69.7165C202.765 69.4473 203.007 69.0703 203.109 68.5856C203.529 68.6482 203.886 68.7036 204.181 68.7517C204.474 68.7789 204.726 68.8082 204.936 68.8396C205.168 68.8907 205.367 68.9225 205.535 68.9351C205.703 68.9685 205.903 69.0004 206.134 69.0307C206.344 69.0621 206.597 69.1018 206.891 69.1498C207.205 69.176 207.572 69.2205 207.993 69.2832C207.678 69.257 207.357 69.3041 207.03 69.4246C206.723 69.544 206.427 69.6733 206.141 69.8126C205.816 69.9746 205.512 70.1669 205.231 70.3894C205.05 70.5235 204.841 70.7215 204.604 70.9835C204.387 71.2445 204.066 71.5002 203.64 71.7507C203.215 72.0011 202.642 72.2276 201.922 72.43C201.221 72.6105 200.308 72.7078 199.183 72.7216C197.828 72.7467 196.682 72.5634 195.745 72.1716C194.807 71.759 194.041 71.244 193.447 70.6267C192.853 69.9886 192.412 69.2907 192.124 68.5332C191.836 67.7756 191.665 67.0644 191.612 66.3996C191.558 65.7347 191.721 65.0279 192.102 64.2791C192.482 63.5303 193.032 62.8357 193.751 62.1953C194.491 61.5538 195.393 61.0192 196.456 60.5912C197.519 60.1425 198.695 59.8863 199.985 59.8226C200.734 59.7856 201.426 59.8454 202.059 60.0018C202.712 60.1365 203.306 60.3366 203.841 60.6023C204.396 60.8669 204.881 61.1767 205.295 61.5317C205.708 61.866 206.058 62.2137 206.347 62.5749C206.637 62.9569 206.887 63.3617 207.096 63.7895C207.281 64.1558 207.437 64.5757 207.565 65.0491C207.692 65.5226 207.748 66.01 207.731 66.5115C206.151 66.6311 204.873 66.7255 203.896 66.7946C202.94 66.8626 202.192 66.91 201.651 66.9367L200.246 67.006L199.185 67.0583C198.81 67.0768 198.322 67.1114 197.719 67.162C197.117 67.2125 196.38 67.2802 195.508 67.3649C195.653 68.1921 195.945 68.8243 196.384 69.2616C196.842 69.677 197.316 69.9873 197.806 70.1926C198.36 70.4156 198.96 70.532 199.607 70.5418ZM196.521 65.0622C197.189 65.071 197.741 65.075 198.179 65.0742C198.638 65.0725 199.014 65.0748 199.306 65.0812C199.619 65.0866 199.87 65.0847 200.057 65.0755L200.837 65.0369C201.357 65.0113 202.323 64.9323 203.735 64.8001C203.628 63.8876 203.396 63.2003 203.039 62.7381C202.703 62.2749 202.353 61.9376 201.988 61.7262C201.559 61.497 201.094 61.374 200.593 61.357C199.241 61.4446 198.246 61.7753 197.607 62.3491C196.989 62.922 196.627 63.8263 196.521 65.0622ZM208.356 60.1604C208.752 60.1617 209.107 60.1547 209.419 60.1393C209.751 60.102 210.03 60.0674 210.258 60.0353C210.528 60.0011 210.766 59.9685 210.973 59.9374C211.283 59.8804 211.603 59.8125 211.933 59.7336C212.222 59.6776 212.521 59.6107 212.83 59.5329C213.159 59.4332 213.477 59.3237 213.784 59.2042C213.675 59.5225 213.584 59.7981 213.512 60.0311C213.44 60.2641 213.387 60.4649 213.354 60.6334C213.301 60.8238 213.277 60.9814 213.284 61.1062C213.27 61.2529 213.268 61.4303 213.278 61.6383C213.275 61.9931 213.303 62.5653 213.363 63.355C214.399 62.3653 215.268 61.5923 215.971 61.0362C216.694 60.479 217.267 60.044 217.69 59.7311C218.194 59.3725 218.589 59.134 218.875 59.0156C219.639 58.8527 220.323 58.9962 220.93 59.4461C221.19 59.6418 221.443 59.9109 221.689 60.2534C221.935 60.575 222.154 61.0126 222.348 61.5662C222.543 62.1198 222.701 62.7899 222.823 63.5765C222.944 64.3423 223 65.2677 222.991 66.3528C222.557 66.416 222.163 66.4771 221.812 66.5362C221.481 66.5943 221.201 66.6393 220.973 66.6714C220.705 66.7264 220.456 66.7595 220.227 66.7708L219.389 66.9061C219.1 66.962 218.738 67.0216 218.303 67.0848C217.888 67.1262 217.38 67.1929 216.78 67.2851C217.619 66.5345 218.15 65.893 218.374 65.3604C218.618 64.8061 218.711 64.3531 218.651 64.0014C218.59 63.6081 218.386 63.274 218.039 62.9991C217.632 62.7897 217.202 62.7276 216.747 62.8126C216.354 62.8737 215.904 63.0732 215.4 63.4109C214.895 63.7487 214.372 64.3586 213.832 65.2405C213.939 66.5701 214.035 67.6709 214.12 68.5428C214.225 69.4136 214.312 70.1185 214.381 70.6575C214.474 71.2786 214.55 71.7651 214.609 72.1167C214.687 72.4258 214.828 72.7526 215.033 73.0971C215.193 73.3812 215.417 73.6934 215.705 74.0338C215.993 74.3742 216.364 74.7105 216.818 75.0427C215.901 75.0462 215.152 75.0832 214.571 75.1536C214.218 75.1918 213.907 75.228 213.638 75.2622C213.349 75.3182 213.039 75.3752 212.708 75.4332C212.418 75.4892 212.077 75.5478 211.684 75.6089C211.312 75.6898 210.899 75.7728 210.445 75.8578C210.6 75.6207 210.722 75.3435 210.81 75.0263C210.9 74.7298 210.969 74.4448 211.018 74.1712C211.086 73.855 211.133 73.5294 211.158 73.1944C211.164 72.9021 211.153 72.4646 211.125 71.882C211.117 71.2983 211.074 70.6434 210.996 69.9171C210.938 69.1691 210.869 68.4007 210.789 67.6121C210.707 66.8026 210.617 66.0457 210.52 65.3413C210.423 64.6369 210.32 64.0267 210.211 63.5106C210.122 62.9726 210.03 62.6017 209.937 62.3977C209.82 62.1532 209.683 61.9096 209.525 61.6671C209.389 61.4444 209.221 61.2128 209.022 60.9723C208.821 60.7111 208.599 60.4404 208.356 60.1604ZM237.585 55.8395C237.42 56.3065 237.274 56.7309 237.147 57.1126C237.041 57.4934 236.943 57.8319 236.853 58.1284C236.765 58.4664 236.686 58.7624 236.615 59.0162C236.546 59.3116 236.469 59.6491 236.383 60.0288C236.296 60.3669 236.181 60.7897 236.039 61.2973C235.917 61.7831 235.769 62.364 235.593 63.0402C235.378 62.0496 235.037 61.2738 234.571 60.7127C234.104 60.1309 233.634 59.6848 233.16 59.3744C232.6 59.0266 232.004 58.7848 231.372 58.6492C230.239 58.5173 229.429 58.5782 228.94 58.8317C228.452 59.0853 228.134 59.393 227.985 59.755C227.909 59.9047 227.824 60.0966 227.732 60.3306C227.659 60.5428 227.597 60.7649 227.545 60.9969C227.515 61.2278 227.516 61.4572 227.548 61.6851C227.58 61.9129 227.683 62.0956 227.857 62.233C227.966 62.3319 228.244 62.4642 228.69 62.6299C229.135 62.7748 229.665 62.9469 230.28 63.146C230.914 63.3232 231.581 63.5198 232.28 63.7356C233 63.9504 233.678 64.1672 234.314 64.3861C234.951 64.605 235.504 64.828 235.974 65.0551C236.445 65.2822 236.758 65.4962 236.914 65.6971C237.049 65.899 237.198 66.1732 237.361 66.5198C237.544 66.8445 237.677 67.2134 237.76 67.6265C237.862 68.0177 237.904 68.4329 237.884 68.8719C237.883 69.2891 237.789 69.7109 237.602 70.1373C237.414 70.5637 237.1 70.9651 236.66 71.3414C236.241 71.7167 235.662 72.0373 234.924 72.3032C234.064 72.6168 233.224 72.7312 232.407 72.6464C231.589 72.5616 230.831 72.4113 230.132 72.1955C229.454 71.9787 228.859 71.7681 228.349 71.5639C227.837 71.3388 227.478 71.2522 227.272 71.3041C227.045 71.357 226.791 71.4843 226.509 71.686C226.226 71.8876 225.955 72.0992 225.695 72.3206C225.455 72.5202 225.245 72.7078 225.066 72.8835C224.886 73.0384 224.795 73.0951 224.793 73.0535C224.791 73.0118 224.816 72.8854 224.868 72.6743C224.941 72.4621 225.012 72.2083 225.081 71.9129C225.169 71.5956 225.246 71.2581 225.312 70.9002C225.398 70.5206 225.453 70.1632 225.478 69.8282C225.507 69.5557 225.542 69.2202 225.585 68.8218C225.609 68.466 225.64 68.0368 225.678 67.5344C225.735 67.0101 225.798 66.3812 225.866 65.6478C225.997 66.1837 226.166 66.6446 226.373 67.0308C226.6 67.4158 226.815 67.7494 227.017 68.0315C227.262 68.3531 227.494 68.6232 227.714 68.8419C228.04 69.1178 228.418 69.3703 228.846 69.5995C229.295 69.8276 229.743 70.0245 230.189 70.1902C230.634 70.3351 231.056 70.4186 231.453 70.4407C231.851 70.4628 232.181 70.4048 232.446 70.2666C232.71 70.1284 232.928 69.8882 233.099 69.546C233.29 69.2029 233.418 68.8315 233.482 68.4321C233.545 68.0326 233.558 67.6565 233.52 67.3038C233.481 66.9303 233.372 66.6332 233.194 66.4125C233.062 66.273 232.762 66.1001 232.293 65.8938C231.844 65.6865 231.301 65.463 230.664 65.2233C230.047 64.9826 229.388 64.7335 228.687 64.4761C228.007 64.2176 227.358 63.9576 226.74 63.6961C226.142 63.4127 225.639 63.1455 225.23 62.8946C224.841 62.6217 224.62 62.3719 224.567 62.1451C224.509 61.8142 224.46 61.4516 224.42 61.0573C224.378 60.6421 224.379 60.2353 224.422 59.8369C224.485 59.4166 224.611 59.0141 224.8 58.6293C225.011 58.2434 225.328 57.9149 225.753 57.6436C226.036 57.4628 226.415 57.319 226.889 57.2121C227.364 57.1053 227.892 57.0375 228.475 57.0087C229.057 56.9591 229.661 56.9502 230.288 56.9818C230.915 56.9926 231.511 57.0258 232.077 57.0813C232.662 57.1149 233.187 57.1725 233.65 57.2539C234.133 57.3344 234.502 57.41 234.756 57.4809C235.052 57.5706 235.365 57.5656 235.694 57.466C235.982 57.3892 236.288 57.2385 236.61 57.014C236.933 56.7895 237.258 56.398 237.585 55.8395ZM96.4214 97.5355C97.366 97.6557 98.1415 97.7322 98.748 97.7648C99.3546 97.7975 99.8461 97.8254 100.223 97.8485C100.662 97.8685 101.006 97.862 101.254 97.8289L102.191 97.7827C102.524 97.7662 102.94 97.7457 103.439 97.7211C103.958 97.6746 104.603 97.6323 105.373 97.5943C105.86 98.5924 106.302 99.5092 106.697 100.345C107.114 101.18 107.462 101.892 107.742 102.484C108.069 103.197 108.372 103.84 108.65 104.41C108.977 105.124 109.329 105.909 109.705 106.767C110.081 107.624 110.423 108.431 110.732 109.188C111.061 109.944 111.332 110.566 111.544 111.057C111.756 111.547 111.861 111.771 111.859 111.729C111.857 111.709 111.858 111.5 111.859 111.104C111.859 110.686 111.855 110.176 111.846 109.571C111.836 108.946 111.823 108.269 111.808 107.539C111.813 106.788 111.798 106.069 111.764 105.383C111.75 104.674 111.729 104.028 111.7 103.446C111.671 102.863 111.629 102.427 111.573 102.138C111.493 101.787 111.348 101.388 111.138 100.939C110.952 100.552 110.7 100.095 110.382 99.5686C110.063 99.0211 109.626 98.4065 109.071 97.7247C109.925 97.7034 110.623 97.6794 111.164 97.6527C111.705 97.626 112.142 97.6045 112.475 97.588C112.849 97.5695 113.14 97.5448 113.347 97.5137C113.618 97.5003 113.95 97.4631 114.343 97.402C114.695 97.3429 115.13 97.2901 115.649 97.2437C116.188 97.1753 116.851 97.0905 117.639 96.989C117.202 97.4278 116.857 97.8411 116.605 98.229C116.353 98.6169 116.151 98.9606 115.999 99.2601C115.828 99.6023 115.719 99.9206 115.671 100.215C115.606 100.594 115.563 101.211 115.543 102.067C115.542 102.902 115.537 103.841 115.526 104.884C115.535 105.926 115.547 107.011 115.561 108.136C115.575 109.262 115.584 110.294 115.589 111.232C115.623 111.94 115.64 112.7 115.639 113.514C115.631 114.203 115.628 114.985 115.629 115.861C115.63 116.716 115.62 117.582 115.601 118.459L112.826 118.659C111.944 117.263 111.197 116.069 110.584 115.077C109.992 114.064 109.503 113.233 109.116 112.584C108.683 111.834 108.318 111.205 108.022 110.698C107.768 110.21 107.438 109.653 107.032 109.026C106.693 108.501 106.265 107.855 105.747 107.087C105.251 106.319 104.654 105.441 103.959 104.454C103.967 105.892 103.997 107.122 104.047 108.141C104.117 109.139 104.19 109.97 104.264 110.634C104.364 111.4 104.469 112.042 104.578 112.558C104.707 113.052 104.88 113.607 105.098 114.222C105.291 114.755 105.52 115.38 105.785 116.097C106.071 116.812 106.413 117.619 106.812 118.518C105.581 118.516 104.664 118.53 104.061 118.559L103.124 118.606C102.833 118.62 102.439 118.671 101.943 118.758C101.529 118.82 100.96 118.911 100.235 119.03C99.5321 119.148 98.6534 119.306 97.5994 119.504C98.069 118.876 98.4372 118.305 98.7038 117.791C98.9903 117.256 99.208 116.807 99.357 116.445C99.5445 116.019 99.6722 115.647 99.7401 115.331C99.7861 114.995 99.7994 114.421 99.7802 113.608C99.7599 112.775 99.7137 111.838 99.6416 110.799C99.5892 109.738 99.5135 108.626 99.4143 107.463C99.336 106.298 99.2514 105.218 99.1605 104.221C99.0696 103.224 98.9755 102.374 98.8782 101.669C98.8016 100.964 98.7488 100.529 98.7198 100.363C98.6441 100.096 98.5048 99.8105 98.3022 99.5077C98.1223 99.2454 97.889 98.9544 97.602 98.6349C97.3141 98.2945 96.9205 97.928 96.4214 97.5355ZM128.781 94.5306C129.907 94.5167 131.051 94.6689 132.214 94.9869C133.397 95.2832 134.497 95.8129 135.515 96.5762C136.532 97.3186 137.416 98.3075 138.165 99.5429C138.913 100.758 139.415 102.266 139.671 104.068C139.89 105.538 139.775 107.014 139.326 108.497C138.898 109.957 138.266 111.313 137.431 112.564C136.596 113.815 135.616 114.896 134.493 115.806C133.369 116.696 132.231 117.305 131.079 117.633C130.38 117.834 129.601 117.894 128.741 117.811C127.902 117.706 127.036 117.488 126.143 117.157C125.271 116.804 124.403 116.346 123.541 115.783C122.7 115.22 121.927 114.57 121.224 113.833C120.519 113.075 119.915 112.25 119.412 111.357C118.93 110.463 118.612 109.519 118.459 108.525C118.313 107.698 118.258 106.783 118.292 105.78C118.346 104.755 118.493 103.736 118.735 102.723C118.997 101.688 119.376 100.689 119.87 99.7261C120.385 98.7412 121.051 97.874 121.87 97.1244C122.687 96.354 123.658 95.7429 124.783 95.2911C125.927 94.8174 127.26 94.5639 128.781 94.5306ZM123.818 107.447C123.637 109.688 123.933 111.467 124.707 112.785C125.502 114.101 126.635 114.869 128.106 115.089C128.821 115.2 129.49 115.021 130.114 114.552C130.757 114.061 131.328 113.376 131.827 112.496C132.326 111.616 132.745 110.594 133.084 109.43C133.422 108.266 133.655 107.056 133.78 105.798C133.906 104.54 133.861 103.416 133.645 102.425C133.449 101.413 133.146 100.562 132.737 99.8734C132.327 99.1636 131.841 98.6243 131.281 98.2557C130.741 97.886 130.189 97.6942 129.625 97.6803C128.644 97.6662 127.804 97.9684 127.104 98.5869C126.404 99.1847 125.826 99.9537 125.372 100.894C124.918 101.834 124.563 102.884 124.307 104.044C124.073 105.203 123.909 106.337 123.818 107.447ZM137.693 95.6865C138.384 95.7358 139.011 95.7675 139.575 95.7814C140.118 95.7963 140.588 95.8148 140.986 95.8369C141.445 95.8559 141.853 95.8671 142.207 95.8705C142.582 95.852 143.06 95.8179 143.642 95.7684C144.14 95.7229 144.773 95.6604 145.541 95.5808C146.309 95.5012 147.252 95.3816 148.371 95.2221C147.845 95.561 147.413 95.8952 147.075 96.2247C146.757 96.5533 146.511 96.847 146.336 97.106C146.121 97.4086 145.969 97.7081 145.88 98.0046C145.837 98.403 145.896 99.1719 146.056 100.311C146.121 100.788 146.213 101.378 146.331 102.081C146.469 102.763 146.634 103.578 146.827 104.528C147.04 105.456 147.291 106.529 147.581 107.745C147.891 108.96 148.241 110.341 148.63 111.886C148.987 110.679 149.279 109.612 149.504 108.683C149.728 107.733 149.918 106.921 150.072 106.245C150.243 105.486 150.387 104.811 150.504 104.222C150.62 103.611 150.758 102.822 150.919 101.855C151.046 101.035 151.212 99.9733 151.419 98.6698C151.626 97.3664 151.88 95.7581 152.182 93.8451L153.314 93.9457C153.491 95.4179 153.659 96.7133 153.818 97.8318C153.999 98.9493 154.15 99.9013 154.272 100.688C154.401 101.599 154.523 102.386 154.639 103.048C154.752 103.647 154.911 104.338 155.117 105.12C155.295 105.779 155.523 106.592 155.8 107.558C156.076 108.504 156.431 109.571 156.865 110.76C157.167 109.264 157.435 107.926 157.669 106.747C157.923 105.566 158.132 104.523 158.296 103.618C158.481 102.712 158.63 101.933 158.744 101.281C158.879 100.627 158.987 100.08 159.07 99.6377C159.247 98.586 159.348 97.8822 159.372 97.5264C159.332 97.1321 159.22 96.7518 159.035 96.3854C158.872 96.0597 158.626 95.7069 158.294 95.3269C157.962 94.947 157.486 94.5846 156.864 94.2398C158.135 94.2188 159.167 94.1992 159.958 94.181C160.77 94.1409 161.415 94.1091 161.893 94.0855L163.142 94.0239L164.266 93.9684C164.682 93.9479 165.223 93.9212 165.889 93.8883C166.574 93.8336 167.447 93.7593 168.506 93.6653C167.614 94.1891 166.897 94.6625 166.354 95.0856C165.812 95.5087 165.392 95.8631 165.093 96.1491C164.735 96.5005 164.478 96.7947 164.323 97.0318C164.177 97.4562 163.953 98.4059 163.65 99.881C163.514 100.513 163.366 101.303 163.204 102.25C163.041 103.175 162.846 104.291 162.618 105.595C162.411 106.898 162.173 108.422 161.905 110.167C161.635 111.891 161.336 113.866 161.008 116.093L155.581 115.798L152.792 106.205C152.526 107.991 152.316 109.441 152.162 110.554C152.007 111.646 151.893 112.497 151.819 113.105C151.73 113.84 151.683 114.374 151.679 114.708C151.672 115 151.665 115.282 151.658 115.554C151.648 115.783 151.629 116.035 151.601 116.307C151.594 116.579 151.575 116.83 151.545 117.061L146.02 117.334C145.362 114.988 144.77 112.921 144.243 111.132C143.737 109.322 143.283 107.738 142.883 106.381C142.482 105.024 142.133 103.873 141.836 102.929C141.56 101.983 141.312 101.192 141.093 100.556C140.603 99.0784 140.256 98.1674 140.051 97.8229C139.897 97.6636 139.7 97.4752 139.46 97.2576C139.264 97.0795 139.023 96.8619 138.739 96.6048C138.434 96.3278 138.085 96.0218 137.693 95.6865ZM167.005 93.6768C167.405 93.7614 167.784 93.8261 168.14 93.8711C168.496 93.8952 168.81 93.9214 169.083 93.9497C169.397 93.9759 169.69 93.9928 169.962 94.0002C170.254 94.0067 170.598 94.0105 170.995 94.0118C171.349 94.0152 171.776 94.0045 172.276 93.9799C172.775 93.9552 173.368 93.926 174.055 93.8921C173.522 95.3576 173.093 96.599 172.768 97.6163C172.442 98.6127 172.191 99.4386 172.014 100.094C171.822 100.854 171.686 101.476 171.606 101.96C171.546 102.443 171.471 103.031 171.38 103.723C171.306 104.332 171.197 105.078 171.052 105.961C170.908 106.844 170.752 107.895 170.582 109.113L167.829 109.124C167.941 108.013 168.01 107.071 168.034 106.298C168.057 105.504 168.077 104.846 168.093 104.324C168.105 103.718 168.101 103.218 168.082 102.822C168.061 102.406 167.999 101.783 167.896 100.954C167.82 100.27 167.712 99.3468 167.571 98.1856C167.429 97.0037 167.241 95.5007 167.005 93.6768ZM171.323 111.454C171.48 111.676 171.577 111.932 171.612 112.222C171.667 112.491 171.66 112.773 171.591 113.068C171.542 113.342 171.419 113.608 171.224 113.868C171.049 114.127 170.798 114.338 170.473 114.5C169.822 114.845 169.233 114.957 168.706 114.837C168.177 114.697 167.779 114.445 167.511 114.083C167.355 113.882 167.26 113.657 167.227 113.409C167.214 113.138 167.253 112.875 167.345 112.621C167.436 112.345 167.59 112.087 167.807 111.847C168.025 111.607 168.307 111.405 168.654 111.242C169.326 110.917 169.882 110.785 170.324 110.847C170.785 110.907 171.119 111.11 171.323 111.454ZM176.368 93.2147C176.769 93.2993 177.147 93.364 177.504 93.409C177.86 93.4331 178.174 93.4594 178.447 93.4876C178.761 93.5138 179.054 93.5307 179.325 93.5381C179.617 93.5446 179.962 93.5484 180.358 93.5497C180.713 93.5531 181.14 93.5424 181.639 93.5178C182.139 93.4931 182.732 93.4639 183.419 93.43C182.886 94.8955 182.457 96.1369 182.132 97.1542C181.806 98.1507 181.554 98.9765 181.378 99.6319C181.186 100.392 181.05 101.014 180.969 101.498C180.91 101.981 180.835 102.568 180.744 103.261C180.669 103.87 180.56 104.616 180.416 105.499C180.272 106.382 180.115 107.433 179.946 108.651L177.193 108.662C177.305 107.551 177.373 106.609 177.398 105.836C177.421 105.042 177.441 104.384 177.457 103.862C177.469 103.256 177.465 102.756 177.445 102.36C177.425 101.944 177.363 101.321 177.259 100.492C177.184 99.8076 177.076 98.8847 176.935 97.7235C176.793 96.5416 176.604 95.0387 176.368 93.2147ZM180.687 110.992C180.844 111.214 180.94 111.47 180.975 111.76C181.03 112.029 181.023 112.311 180.954 112.606C180.905 112.88 180.783 113.146 180.587 113.406C180.412 113.665 180.162 113.876 179.836 114.038C179.186 114.383 178.597 114.495 178.069 114.375C177.541 114.235 177.143 113.983 176.875 113.621C176.719 113.42 176.624 113.195 176.591 112.946C176.578 112.676 176.617 112.413 176.708 112.158C176.799 111.883 176.953 111.625 177.171 111.385C177.389 111.145 177.671 110.943 178.017 110.78C178.689 110.455 179.246 110.323 179.687 110.385C180.149 110.445 180.482 110.648 180.687 110.992ZM185.732 92.7527C186.132 92.8372 186.511 92.9019 186.868 92.9469C187.223 92.9711 187.538 92.9973 187.81 93.0255C188.124 93.0518 188.417 93.0686 188.689 93.0761C188.981 93.0825 189.325 93.0864 189.722 93.0876C190.077 93.091 190.504 93.0804 191.003 93.0557C191.502 93.0311 192.095 93.0018 192.782 92.9679C192.25 94.4334 191.821 95.6748 191.495 96.6921C191.169 97.6886 190.918 98.5145 190.742 99.1698C190.55 99.9302 190.414 100.552 190.333 101.036C190.273 101.519 190.198 102.106 190.107 102.799C190.033 103.408 189.924 104.154 189.78 105.037C189.635 105.92 189.479 106.971 189.309 108.189L186.557 108.2C186.669 107.088 186.737 106.146 186.761 105.374C186.785 104.58 186.804 103.922 186.82 103.399C186.832 102.794 186.828 102.294 186.809 101.898C186.788 101.482 186.726 100.859 186.623 100.03C186.547 99.3455 186.439 98.4226 186.298 97.2615C186.157 96.0795 185.968 94.5766 185.732 92.7527ZM190.051 110.53C190.208 110.752 190.304 111.008 190.339 111.298C190.394 111.567 190.387 111.849 190.318 112.144C190.269 112.418 190.147 112.684 189.951 112.944C189.776 113.203 189.526 113.414 189.2 113.576C188.549 113.921 187.96 114.033 187.433 113.913C186.905 113.772 186.506 113.521 186.238 113.159C186.082 112.958 185.988 112.733 185.955 112.484C185.941 112.214 185.98 111.951 186.072 111.696C186.163 111.421 186.317 111.163 186.535 110.923C186.752 110.682 187.034 110.481 187.381 110.318C188.053 109.993 188.61 109.861 189.051 109.922C189.513 109.983 189.846 110.186 190.051 110.53Z" fill="#2E2E2E"/>
</svg>
